<?xml version="1.0" encoding="UTF-8" standalone="no"?>
<svg
   xmlns:dc="http://purl.org/dc/elements/1.1/"
   xmlns:cc="http://creativecommons.org/ns#"
   xmlns:rdf="http://www.w3.org/1999/02/22-rdf-syntax-ns#"
   xmlns:svg="http://www.w3.org/2000/svg"
   xmlns="http://www.w3.org/2000/svg"
   xmlns:sodipodi="http://sodipodi.sourceforge.net/DTD/sodipodi-0.dtd"
   xmlns:inkscape="http://www.inkscape.org/namespaces/inkscape"
   viewBox="0 0 512 512"
   id="svg3336"
   version="1.1"
   inkscape:version="0.91 r13725"
   sodipodi:docname="book.svg">
  <metadata
     id="metadata3346">
    <rdf:RDF>
      <cc:Work
         rdf:about="">
        <dc:format>image/svg+xml</dc:format>
        <dc:type
           rdf:resource="http://purl.org/dc/dcmitype/StillImage" />
        <dc:title></dc:title>
      </cc:Work>
    </rdf:RDF>
  </metadata>
  <defs
     id="defs3344" />
  <sodipodi:namedview
     pagecolor="#ffffff"
     bordercolor="#666666"
     borderopacity="1"
     objecttolerance="10"
     gridtolerance="10"
     guidetolerance="10"
     inkscape:pageopacity="0"
     inkscape:pageshadow="2"
     inkscape:window-width="1440"
     inkscape:window-height="837"
     id="namedview3342"
     showgrid="false"
     inkscape:zoom="1"
     inkscape:cx="256"
     inkscape:cy="256"
     inkscape:window-x="-8"
     inkscape:window-y="-8"
     inkscape:window-maximized="1"
     inkscape:current-layer="svg3336" />
  <path
     d="M0 0h512v512H0z"
     id="path3338" />
  <path
     d="M102.5 26.03l90.03 345.75 289.22 23.25-90.063-345.75L102.5 26.03zm-18.906 1.564c-30.466 11.873-55.68 53.098-49.75 75.312l3.25 11.78c.667-1.76 1.36-3.522 2.093-5.28C49.097 85.7 65.748 62.64 89.564 50.5l-5.97-22.906zm10.844 41.593c-16.657 10.012-29.92 28.077-38 47.407-5.247 12.55-8.038 25.63-8.75 36.53L112.5 388.407c.294-.55.572-1.106.875-1.656 10.603-19.252 27.823-37.695 51.125-48.47L94.437 69.19zm74.874 287.594c-17.677 9.078-31.145 23.717-39.562 39-4.464 8.107-7.27 16.364-8.688 23.75l11.688 42.408 1.625.125c-3.84-27.548 11.352-60.504 41.25-81.094l-6.313-24.19zm26.344 34c-32.567 17.27-46.51 52.44-41.844 72.94l289.844 24.5c-5.34-7.79-8.673-17.947-8.594-28.5l-22.406-9L459 443.436l-13.5-12.875c5.604-6.917 13.707-13.05 24.813-17.687L195.656 390.78z"
     fill="#fff"
     id="path3340" />
  <text
     xml:space="preserve"
     style="font-style:normal;font-variant:normal;font-weight:normal;font-stretch:normal;font-size:300px;line-height:125%;font-family:Sans;-inkscape-font-specification:'Sans, Normal';text-align:start;letter-spacing:0px;word-spacing:0px;writing-mode:lr-tb;text-anchor:start;fill:#000000;fill-opacity:1;stroke:none;stroke-width:1px;stroke-linecap:butt;stroke-linejoin:miter;stroke-opacity:1"
     x="138.08562"
     y="299.12949"
     id="text3348"
     sodipodi:linespacing="125%"
     transform="matrix(1.0270713,0.08411468,0.27856567,0.9964561,0,0)"><tspan
       sodipodi:role="line"
       id="tspan3350"
       x="138.08562"
       y="299.12949"
       style="font-style:normal;font-variant:normal;font-weight:normal;font-stretch:normal;font-size:300px;line-height:125%;font-family:Sans;-inkscape-font-specification:'Sans, Normal';text-align:start;writing-mode:lr-tb;text-anchor:start">1</tspan></text>
</svg>
