<svg xmlns="http://www.w3.org/2000/svg" viewBox="0 0 512 512"><path d="M0 0h512v512H0z"/><path d="m102.5 26.029 90.03 345.75 289.22 23.25-90.06-345.75-289.19-23.251zm-18.906 1.565c-30.466 11.873-55.68 53.098-49.75 75.312l3.25 11.779c.667-1.76 1.3608-3.5213 2.0938-5.2793 9.91-23.71 26.56-46.77 50.376-58.91l-5.97-22.906zm10.844 41.594c-16.657 10.012-29.92 28.076-38 47.406-5.247 12.55-8.038 25.629-8.75 36.529l64.812 235.29c.294-.55.572-1.1043.875-1.6543 10.603-19.252 27.823-37.696 51.125-48.471l-70.062-269.09v-.002zm182.78 25.217c4.2417-.03294 8.6834.14157 13.322.52148 5.9177.48464 10.95 1.1341 15.098 1.9492 4.148.81512 8.4559 2.0232 12.922 3.625l7.793 27.881-1.5039-.125c-3.2165-1.6897-7.8609-3.3996-13.932-5.1328-5.9976-1.8224-11.955-2.9763-17.873-3.4609-21.564-1.7661-36.93 3.3931-46.096 15.479-9.1931 11.988-11.727 29.039-7.6035 51.15 7.0378-4.2728 14.265-7.3423 21.682-9.207 7.4901-1.9538 16.602-2.4903 27.334-1.6113 9.5285.78036 18.148 2.3406 25.859 4.6836 7.7844 2.2539 16.209 6.273 25.273 12.055 10.486 6.6588 19.199 14.694 26.143 24.105 7.0434 9.4195 12.374 20.599 15.992 33.541 6.1752 22.089 3.6999 39.524-7.4277 52.305-11.055 12.691-27.465 18.146-49.23 16.363-11.033-.90357-21.525-3.378-31.477-7.4258-9.9519-4.0478-19.3-9.6146-28.043-16.701-10.884-8.7832-20.545-20.034-28.986-33.752-8.3407-13.709-15.136-29.954-20.387-48.734-5.3863-19.267-8.0543-36.173-8.0039-50.717.15073-14.535 3.2707-27.211 9.3613-38.027 5.7524-10.273 14.743-17.904 26.971-22.893 9.1505-3.8145 20.087-5.7723 32.812-5.8711zm1.541 104.07c-4.9188.0429-9.4963.48458-13.732 1.3262-6.7778 1.3466-13.457 3.7486-20.037 7.2031.39788 2.1244.83176 4.203 1.3027 6.2383.44377 1.938 1.0864 4.415 1.9297 7.4316 4.2982 15.375 9.3033 27.671 15.016 36.887 5.7854 9.1263 12.259 16.501 19.418 22.127 5.8108 4.6595 11.66 8.2301 17.547 10.709 5.9603 2.3898 12.099 3.8419 18.418 4.3594 14.543 1.1911 24.78-2.1536 30.711-10.035 5.9038-7.9788 6.5978-20.044 2.082-36.197-2.5299-9.0498-6.0283-16.658-10.496-22.824-4.3675-6.1577-10.322-11.686-17.865-16.582-5.4843-3.4918-11.172-5.9536-17.061-7.3867-5.8888-1.4331-11.891-2.4013-18.01-2.9023-3.1971-.26183-6.2714-.37923-9.2227-.35352zm-109.45 158.3c-17.677 9.078-31.146 23.717-39.562 39-4.464 8.107-7.2695 16.364-8.6875 23.75l11.688 42.408 1.625.125c-3.84-27.548 11.352-60.504 41.25-81.094l-6.3125-24.189zm26.344 33.998v.002c-32.567 17.27-46.51 52.439-41.844 72.939l289.84 24.5c-5.34-7.79-8.6728-17.947-8.5938-28.5l-22.406-9 46.35-7.28-13.5-12.88c5.604-6.917 13.706-13.05 24.812-17.688l-274.65-22.09z" fill="#fff"></path>
</svg>
