<svg xmlns="http://www.w3.org/2000/svg" viewBox="0 0 512 512"><path d="M0 0h512v512H0z"/><path d="m102.5 26.029 90.03 345.75 289.22 23.25-90.06-345.75-289.19-23.251zm-18.906 1.565c-30.466 11.873-55.68 53.098-49.75 75.312l3.25 11.779c.667-1.76 1.3608-3.5213 2.0938-5.2793 9.91-23.71 26.56-46.77 50.376-58.91l-5.97-22.906zm10.844 41.594c-16.657 10.012-29.92 28.076-38 47.406-5.247 12.55-8.038 25.629-8.75 36.529l64.812 235.29c.294-.55.572-1.1043.875-1.6543 10.603-19.252 27.823-37.696 51.125-48.471l-70.062-269.09v-.002zm96.123 27.053 153.31 12.555 9.0996 32.551l-49.75 176.48-32.19-2.63 54.25-182.97-127.58-10.45-7.14-25.54zm-21.25 260.54c-17.677 9.078-31.146 23.717-39.562 39-4.464 8.107-7.2695 16.364-8.6875 23.75l11.688 42.408 1.625.125c-3.84-27.548 11.352-60.504 41.25-81.094l-6.3125-24.189zm26.344 33.998v.002c-32.567 17.27-46.51 52.439-41.844 72.939l289.84 24.5c-5.34-7.79-8.6728-17.947-8.5938-28.5l-22.406-9 46.35-7.28-13.5-12.88c5.604-6.917 13.706-13.05 24.812-17.688l-274.65-22.09z" fill="#fff"></path>
</svg>
