<svg xmlns="http://www.w3.org/2000/svg" version="1.1" xmlns:xlink="http://www.w3.org/1999/xlink" width="612px" height="612px"><svg version="1.1" id="SvgjsSvg1001" xmlns="http://www.w3.org/2000/svg" xmlns:xlink="http://www.w3.org/1999/xlink" x="0px" y="0px" width="612px" height="612px" viewBox="0 90 612 612" enable-background="new 0 90 612 612" xml:space="preserve">
<path fill="#800000" d="M7.188,54.5h597.625c23.576,0,42.688,19.112,42.688,42.688v597.625c0,23.576-19.111,42.688-42.688,42.688
	H7.188c-23.576,0-42.688-19.111-42.688-42.688V97.188C-35.5,73.612-16.388,54.5,7.188,54.5z"></path>
<g transform="translate(0,0)">
	<path fill="#FFFFFF" d="M305.75,171.38c-8.159,0.197-17.147,4.122-26.802,12.258l-69.895,100.346l73.725,34.904l-33.479-30.303
		c46.916-97.678,68.387-95.917,111.862,0l-33.091,29.974l73.457-34.576l-70.073-100.585c-9.207-8.958-17.476-12.22-25.703-12.021
		V171.38z M384.193,311.766l-75.417,35.497l-3.799,1.781l-3.77-1.781l-72.713-34.429l-99.607,116.672l17.808,13.415l62.712,14.303
		l27.486-112.276l16.352,7.746l-66.037,269.641h88.238l14.81-252.132l14.811,7.005l16.858-7.954l14.87,253.081h88.237
		l-66.245-270.414l16.383-7.717l27.752,113.259l68.085-15.581l13.712-12.375L384.193,311.766z M160.942,464.38
		c-1.237,3.282-1.872,6.761-1.871,10.269c0,16.131,13.075,29.205,29.205,29.205c3.464,0.002,6.902-0.61,10.153-1.811l6.735-27.573
		l-44.222-10.092V464.38z M452.338,464.38l-45.172,10.328l6.559,26.859c3.569,1.506,7.404,2.283,11.278,2.286
		c16.13,0,29.205-13.074,29.205-29.205C454.208,471.03,453.537,467.575,452.338,464.38L452.338,464.38z"></path>
</g>
</svg><style>@media (prefers-color-scheme: light) { :root { filter: none; } }
@media (prefers-color-scheme: dark) { :root { filter: none; } }
</style></svg>