<svg xmlns="http://www.w3.org/2000/svg" viewBox="0 0 512 512"><path d="M0 0h512v512H0z"/><path d="m102.5 26.029 90.03 345.75 289.22 23.25-90.06-345.75-289.19-23.251zm-18.906 1.565c-30.466 11.873-55.68 53.098-49.75 75.312l3.25 11.779c.667-1.76 1.3608-3.5213 2.0938-5.2793 9.91-23.71 26.56-46.77 50.376-58.91l-5.97-22.906zm10.844 41.594c-16.657 10.012-29.92 28.076-38 47.406-5.247 12.55-8.038 25.629-8.75 36.529l64.812 235.29c.294-.55.572-1.1043.875-1.6543 10.603-19.252 27.823-37.696 51.125-48.471l-70.062-269.09v-.002zm151.8 25.957c4.1731-.05936 8.3465.08191 12.521.42383 10.933.89536 20.834 2.6552 29.703 5.2832s17.261 6.3594 25.178 11.191c8.5274 5.2623 15.572 11.354 21.133 18.275 5.5609 6.921 9.5792 14.809 12.055 23.664 3.3733 12.066 1.9117 22.263-4.3848 30.59-6.2234 8.2379-14.977 13.035-26.26 14.393l.57227 2.0449c5.032 1.1728 11.012 3.279 17.938 6.3184 6.8987 2.942 13.021 6.4373 18.367 10.488 5.9842 4.5786 11.415 10.158 16.293 16.738 4.8775 6.5798 8.7176 14.881 11.52 24.904 2.7748 9.9256 3.4613 18.872 2.0625 26.84-1.3988 7.9674-4.6012 14.74-9.6074 20.32-5.6182 6.1956-13.079 10.529-22.385 13-9.2326 2.3816-19.918 3.076-32.055 2.082-12.437-1.0186-25.081-3.4817-37.934-7.3867-12.825-3.8077-23.575-7.7292-32.25-11.768l-8.5274-30.508 2.2559.18555c10.049 6.1476 21.344 11.494 33.885 16.039 12.541 4.5451 24.178 7.2578 34.91 8.1367 6.3189.5175 12.753.0462 19.303-1.4141s11.474-4.0065 14.771-7.6348c3.4168-3.9038 5.5086-8.3436 6.2734-13.32.86511-4.9685.19569-11.393-2.0078-19.275-2.1763-7.7848-5.2764-14.314-9.2988-19.588-3.9493-5.3628-8.5884-9.6896-13.918-12.979-5.3568-3.3862-11.395-5.8765-18.113-7.4726-6.7456-1.6934-13.828-2.8433-21.25-3.4512l-13.541-1.1094-6.7734-24.23 10.531.86328c15.246 1.2486 26.525-.82359 33.838-6.2148 7.3863-5.4804 9.4204-14.157 6.1016-26.029-1.469-5.2547-3.9018-9.9226-7.2969-14.004-3.4222-4.1786-7.5437-7.7015-12.363-10.568-5.0202-2.8833-10.124-5.0111-15.311-6.3867-5.1867-1.3756-10.889-2.3188-17.107-2.8281-9.5285-.78036-19.197.045-29.004 2.4746-9.8072 2.4296-18.631 6.2706-26.473 11.523l-1.5039-.12305-8.5293-30.508c6.1692-2.8226 14.778-5.159 25.824-7.0117 6.9497-1.2136 13.902-1.8698 20.857-1.9688zm-76.93 261.64c-17.677 9.078-31.146 23.717-39.562 39-4.464 8.107-7.2695 16.364-8.6875 23.75l11.688 42.408 1.625.125c-3.84-27.548 11.352-60.504 41.25-81.094l-6.3125-24.189zm26.344 33.998v.002c-32.567 17.27-46.51 52.439-41.844 72.939l289.84 24.5c-5.34-7.79-8.6728-17.947-8.5938-28.5l-22.406-9 46.35-7.28-13.5-12.88c5.604-6.917 13.706-13.05 24.812-17.688l-274.65-22.09z" fill="#fff"></path>
</svg>
