<svg xmlns="http://www.w3.org/2000/svg" viewBox="0 0 512 512"><path d="M0 0h512v512H0z"/><path d="m102.5 26.029 90.03 345.75 289.22 23.25-90.06-345.75-289.19-23.251zm-18.906 1.565c-30.466 11.873-55.68 53.098-49.75 75.312l3.25 11.779c.667-1.76 1.3608-3.5213 2.0938-5.2793 9.91-23.71 26.56-46.77 50.376-58.91l-5.97-22.906zm10.844 41.594c-16.657 10.012-29.92 28.076-38 47.406-5.247 12.55-8.038 25.629-8.75 36.529l64.812 235.29c.294-.55.572-1.1043.875-1.6543 10.603-19.252 27.823-37.696 51.125-48.471l-70.062-269.09v-.002zm158.48 28.199c2.5439-.0041 5.1708.10438 7.8789.32617 10.832.88715 21.324 3.3635 31.477 7.4277 10.125 3.967 19.559 9.4935 28.303 16.58 10.783 8.775 20.264 19.726 28.441 32.852 8.1503 13.028 15.041 29.613 20.672 49.756 5.3047 18.975 7.8639 36.015 7.6758 51.117-.0878 15.111-3.1214 27.747-9.1016 37.906-6.0261 10.346-15.067 17.973-27.121 22.881-12.054 4.9079-27.361 6.6017-45.916 5.082-5.2156-.42714-10.211-1.1223-14.988-2.084-4.7498-.86442-9.094-2.0288-13.031-3.4922l-7.793-27.879 1.5039.12304c3.3167 1.6979 7.8247 3.4464 13.521 5.2441 5.6696 1.7004 11.764 2.8176 18.283 3.3516 22.166 1.8154 37.723-3.1858 46.67-15.004 9.0197-11.907 11.362-29.116 7.0293-51.625-7.8045 4.6854-15.493 7.8596-23.064 9.5215-7.5717 1.6619-16.222 2.0937-25.951 1.2969-9.2276-.75572-17.847-2.3179-25.859-4.6856-7.9119-2.3594-16.336-6.3765-25.273-12.053-10.486-6.6588-19.263-14.747-26.334-24.264-6.9703-9.5086-12.237-20.637-15.801-33.385-6.2024-22.187-3.7271-39.621 7.4277-52.305 9.7605-11.098 23.544-16.661 41.352-16.689zm9.0117 23.867c-11.712-.0232-20.182 3.4953-25.412 10.555-5.8766 8.0761-6.5983 20.045-2.1641 35.906 2.5844 9.2445 6.0464 16.897 10.387 22.957 4.3403 6.0604 10.331 11.543 17.975 16.447 5.3568 3.3863 10.894 5.8376 16.609 7.3516 5.6882 1.4167 11.843 2.3954 18.463 2.9375 7.8234.64072 15.461.26918 22.914-1.1172 7.4527-1.3864 14.145-3.7392 20.078-7.0566-.47098-2.0353-.92927-4.021-1.373-5.959-.37069-2.0271-.99081-4.599-1.8613-7.7129-4.2166-15.083-9.2079-27.328-14.975-36.738-5.7667-9.41-12.166-16.876-19.197-22.396-5.9383-4.765-11.874-8.2935-17.807-10.586-5.9603-2.3898-12.101-3.8438-18.42-4.3613-1.8054-.14786-3.5437-.22325-5.2168-.22656zm-92.62 235.53c-17.677 9.078-31.146 23.717-39.562 39-4.464 8.107-7.2695 16.364-8.6875 23.75l11.688 42.408 1.625.125c-3.84-27.548 11.352-60.504 41.25-81.094l-6.3125-24.189zm26.344 33.998v.002c-32.567 17.27-46.51 52.439-41.844 72.939l289.84 24.5c-5.34-7.79-8.6728-17.947-8.5938-28.5l-22.406-9 46.35-7.28-13.5-12.88c5.604-6.917 13.706-13.05 24.812-17.688l-274.65-22.09z" fill="#fff"></path>
</svg>
