<svg xmlns="http://www.w3.org/2000/svg" viewBox="0 0 512 512">
  <path d="M0 0h512v512H0z"/>
  <path d="m281.61 8.5549c-.0357-.00284-.0722 0-.11001.00668-.21334.071114-8.107.92449-17.494 1.9201l-17.067 1.7067-4.6224 3.129c-2.5601 1.7067-5.4758 3.8402-6.5425 4.7647l-1.9912 1.5645.71114 23.823c.35557 13.085.85337 28.659.9956 34.633l.42669 10.738-2.7735 1.7067c-1.4934.85337-3.698 2.7735-4.9069 4.1957l-2.2046 2.489 2.4179 16.356 2.3468 16.285-1.4934 1.4934c-2.9157 2.8446-35.059 32.641-36.766 34.064-1.9201 1.6356-1.7779 1.3512 3.2713-6.4003 1.9912-3.129 8.676-11.592 14.792-18.774 6.7559-8.0359 10.952-13.583 10.809-14.223-.21334-.64003-1.4934-6.9692-2.9868-14.081-1.4934-7.1114-2.8446-13.298-3.129-13.725-.4978-.85338-17.921 2.2756-41.957 7.467-6.4714 1.4223-16.427 3.5557-22.188 4.7647l-10.383 2.2045-3.129 7.1826-3.0579 7.1826.4978 15.645c.28446 8.6048.9956 29.939 1.6356 47.433l1.1378 31.859 6.8981 6.6136c19.414 18.632 26.81 25.459 34.633 31.646 4.6936 3.698 8.9604 7.1114 9.4582 7.5381.71114.71115.56891 15.005-.56891 72.963-.71115 39.682-1.5645 83.204-1.849 96.716l-.4978 24.534 4.4091 6.7559 4.4802 6.7559 8.2493 3.2713c13.014 5.1202 36.482 14.365 47.647 18.703l10.24 3.9824 13.583-.42668 13.654-.42669 4.2669-2.3468c12.445-6.7559 50.633-29.015 51.629-30.081.64003-.64003 3.129-4.5513 5.618-8.676l4.4091-7.3959-.42668-5.0491c-.21335-2.7023-3.2002-43.878-6.5425-91.382-6.0447-85.266-6.1158-86.333-4.7647-87.471.78225-.56891 4.9069-3.8402 9.2449-7.1826 7.3248-5.7603 7.8226-6.3292 8.8893-9.956.64003-2.1334 3.8402-12.516 7.1826-23.041l5.9736-19.201 1.9912-36.268c2.0623-38.544 2.2046-45.869 1.0667-73.959-.56892-14.863-.85338-17.921-1.849-18.632-.56891-.42669-4.9069-2.7735-9.5293-5.1202-6.3292-3.2713-10.027-4.6935-14.863-5.6891l-6.4003-1.2801-.35557 1.849c-.85337 4.0535-10.383 71.825-10.383 73.532 0 1.6356-.21334 1.849-1.9201 1.5645-1.1378-.21335-8.3915-1.4934-16.143-2.8446-7.8226-1.3512-14.365-2.6312-14.507-2.8446-.21334-.21334 5.1914-.35557 12.018-.35557 6.827 0 12.729-.28446 13.227-.56892.4978-.28446 1.3512-3.7691 1.9912-7.6092.64003-3.9113 2.4179-14.792 3.9824-24.179 2.5601-15.218 2.9868-19.343 3.7691-38.046.4978-11.521.71115-22.685.4978-24.748l-.42668-3.8402-12.587-6.5425c-11.805-6.1869-13.227-6.6847-21.903-8.5337-5.0491-1.0667-9.5293-1.7067-9.956-1.4934-.35557.21334-.71114 3.0579-.71114 6.2581 0 3.2001-.78226 23.752-1.7779 45.655-.9956 21.903-1.7779 42.526-1.7779 45.869-.0711 4.7647-.42669 6.8981-1.7779 9.956l-1.6356 3.9113-4.1958.4978c-6.1158.71114-37.335 2.7735-37.619 2.489-.21334-.14223 8.0359-2.489 18.205-5.1202 10.169-2.7024 18.49-5.1914 18.49-5.618 0-.42668.9956-13.085 2.1334-28.09 1.9201-24.677 2.1334-30.366 2.1334-58.812 0-28.59-.13372-33.555-1.2412-33.644zm-69.01 22.316c-1.1847.006-5.2014 1.5401-10.468 4.0735-5.0491 2.4179-12.445 6.0447-16.356 8.0359l-7.1114 3.5557-2.2757 14.578c-2.8446 18.845-4.8358 35.415-4.1958 36.055.21335.28445 10.738-1.0667 23.254-2.9157 20.125-2.9868 22.97-3.2001 24.037-2.3468.9956.92448 1.5645.78226 4.9069-1.3512l3.698-2.4179v-28.446-28.446h-6.8981c-3.8402 0-7.6092-.21334-8.3915-.35557-.0533-.01333-.11993-.0204-.1989-.02zm158.84 102.17c.29293.0726.0589 5.0336-.70114 14.407-.56891 6.9692-1.2801 12.872-1.4223 13.085-.21334.14223-6.3292-1.7067-13.583-4.1957-7.2537-2.489-12.872-4.6224-12.516-4.7647.35557-.14222 3.2713.28446 6.4714.85338 7.0403 1.3512 9.3871 1.4223 14.223.28445 4.4802-.9956 4.4802-1.0667 6.187-12.801.69337-4.6802 1.1408-6.9189 1.3412-6.8692zm-135.82 68.17c.14223 0 8.3915 5.618 18.276 12.587 9.8138 6.8981 18.561 12.658 19.343 12.801.78226.14222 9.4582-2.6312 19.272-6.1158 9.8138-3.5557 18.134-6.4714 18.419-6.4714.28446 0-5.9736 4.2669-13.938 9.5293-7.9648 5.2625-15.076 9.956-15.787 10.525-1.0667.71114-1.9912 5.1202-4.7647 22.685-1.849 11.947-3.6268 23.539-3.9113 25.743-.28446 2.2756-.71115 4.0535-.9956 4.0535-.28446 0-1.209-11.449-2.1334-25.459-.85338-13.938-1.7068-26.17-1.9201-27.166-.28446-1.2801-5.3336-5.8314-17.352-15.574-16.854-13.654-16.996-13.796-15.858-15.432.56891-.92449 1.2089-1.7067 1.3512-1.7067z" fill="#fff"></path>
</svg>
