<svg xmlns="http://www.w3.org/2000/svg" viewBox="0 0 512 512">
  <path d="M0 0h512v512H0z"/>
  <path d="m276.01 9.8049c-14.57 1.0704-24.977 3.3302-40.022 8.8608-2.7355.95149-5.4116 1.784-5.8874 1.784-.53522 0-1.4272.35681-1.903.83256-.53522.41628-3.2708 2.0219-6.1252 3.5086-2.914 1.4867-6.0063 3.2708-6.9578 3.9249-.95149.71362-1.903 1.2488-2.1409 1.2488-.23787 0-3.0329 1.784-6.1847 3.9844-20.754 14.451-37.762 34.432-47.039 55.484-7.6714 17.246-10.11 29.496-10.11 50.072 0 12.013.53522 16.235 3.0329 25.155 2.1408 7.7309 2.6166 9.0392 4.5196 13.38 6.7199 15.521 14.748 26.285 27.891 37.406 5.9468 4.9953 7.8498 6.4226 15.7 11.537 5.4711 3.5086 5.5306 3.5681 12.369 7.1957 8.4445 4.5791 12.369 7.1957 13.559 9.0392.83255 1.2488 1.0704 3.1518 1.1894 9.8123.11894 7.493.0595 8.2661-.89202 8.2661-1.0704 0-4.8169 3.5086-4.8169 4.5196 0 .29734-1.011 1.6056-2.3193 2.8545l-2.2598 2.2598-.41628 8.385c-.71362 16.354-.59468 39.665.53522 95.863.0595 2.6166.29734 11.121.59468 18.97l.47575 14.153-1.4272-.41628c-3.8654-1.2488-7.7309-3.3897-10.942-6.1252-1.9624-1.7246-3.7465-3.0924-3.9844-3.0924-.23787 0-1.011-1.0704-1.6651-2.3193-.83255-1.7246-1.011-2.4977-.47574-2.795.41627-.29734.11893-.89202-1.011-1.784-1.3083-1.011-1.5462-1.5462-1.0704-2.1409.35681-.41628 1.011-2.4382 1.4272-4.5196.77309-3.687.77309-3.7465-1.1894-7.6714-1.6651-3.3897-2.0219-4.8169-2.2598-9.3365-.23787-4.7575-.95149-7.493-1.8435-6.6604-.53522.59468-2.4977-.89202-2.4977-1.8435 0-.53521 1.784-2.7355 4.0438-4.8764 4.5196-4.4006 6.7794-8.2661 8.2066-13.737 1.011-3.9844.71362-8.6229-.53522-9.0986-1.1299-.41628-7.0767.53521-9.5744 1.6056-2.795 1.1894-2.7355 1.1894-2.7355 0 0-.53521 1.3678-2.5571 3.0329-4.579 1.6056-1.9625 3.4492-4.5196 4.0438-5.709 2.5571-4.9953 2.9734-12.786.89203-16.83-1.3083-2.4977-4.6385-3.7465-7.9093-2.9139-1.4272.41627-3.2708 1.1894-4.1033 1.8435-2.0814 1.6651-3.5086 1.4867-4.5791-.65415-.89202-1.6056-.89202-2.0814-.0595-4.9359 1.3083-4.4006 2.3193-14.332 1.8435-18.197-.59468-5.59-3.0924-12.845-5.2332-15.581-.47574-.59468-1.9624-1.5462-3.3897-2.2003-3.6276-1.6056-5.4116-.83256-7.9093 3.4492-1.0704 1.8435-2.3787 3.3897-2.914 3.5086-1.6651.29734-4.3412-3.3302-5.5306-7.4335-.1784-.65415-1.4272-2.9734-2.795-5.0548-1.3083-2.0219-3.1518-5.3521-4.0438-7.3146-2.2003-4.8764-6.482-9.4554-10.883-11.715-3.3897-1.6651-3.806-1.7246-6.7794-1.1299-4.5196.89203-6.3036 2.4977-8.6824 7.7309-2.2598 4.9953-4.9953 15.7-6.3631 24.977-.47575 3.5681-.35681 11.002.29734 14.332.47575 2.5571-.35681 3.0924-5.3522 3.3302-2.4977.11893-4.8169.35681-5.1143.53521-1.011.65415-2.8545 5.4116-3.2708 8.4445-1.0704 8.3256 4.8764 20.636 13.024 26.82 1.7246 1.3083 3.7465 2.9734 4.5791 3.806.83255.77309 2.6761 2.2598 4.1628 3.2708 2.795 1.903 5.709 4.7575 5.2927 5.1737-.11894.11894-2.0219 1.0704-4.2817 2.1409-2.2003 1.011-4.3412 2.4382-4.698 3.1518-1.3083 2.3193-2.2598 5.4116-2.2598 7.4335 0 5.2927 8.6824 12.013 15.462 12.013 1.2488 0 3.2113.41628 4.4601.95149 1.3083.53522 4.4006.95149 7.3741 1.0704 6.0063.17841 10.704 1.7246 8.7418 2.914-3.3302 2.1409-4.0438 2.9734-3.6276 4.5196.65415 2.4977 3.0329 5.1737 5.9468 6.601 1.4867.71362 2.795 1.5462 2.9734 1.784.35681.59468 12.072 8.9202 12.548 8.9202.1784 0 2.6166 1.1299 5.4711 2.4977 3.9249 1.903 5.8874 2.4977 8.0877 2.4977 2.8545-.0595 2.9734.0595 8.3256 5.3521 3.0329 2.9734 6.482 6.1847 7.6714 7.0767 1.2488.95149 3.5086 2.9734 5.1143 4.5791 1.5462 1.5462 3.9249 3.3897 5.1738 4.0438l2.3193 1.1894.1784 12.905c.17841 14.153-.47574 18.554-3.2708 21.884-.77309.95149-1.3678 2.0814-1.3678 2.4977 0 .47575-.53522.95149-1.1299 1.1894-2.1409.65415-5.4116 4.8764-5.4116 7.0172 0 1.0704-.29734 2.2598-.65415 2.6166-.47574.47575-.83255 4.3412-1.011 10.704l-.23787 9.9907 3.9249 3.4492c2.1408 1.903 5.1143 3.9844 6.5415 4.6385 2.914 1.2488 6.8983 5.0548 6.8983 6.5415 0 .47574.77309 1.6056 1.6651 2.4977 1.5462 1.4867 2.0814 1.6056 6.482 1.6056 2.6761 0 5.0548-.29734 5.2332-.59468.17841-.35681 2.8545-.59469 5.8279-.59469 8.5634-.0595 12.429-2.5571 15.521-10.229 2.6761-6.601 3.5681-19.922 1.6056-24.025-.83255-1.7246-1.1894-3.9249-1.3083-7.8498l-.1784-5.5306 7.4335-7.3741c4.0438-4.0438 7.493-7.1362 7.5525-6.8388.35681.89202 1.3083.71362 1.3083-.23788 0-.47574 1.0704-2.0814 2.3787-3.6276 1.3083-1.4867 2.6166-3.7465 2.9734-4.9953l.59468-2.3193 1.8435 1.784c2.2598 2.2598 3.6276 2.0814 10.764-1.2488 2.8545-1.3678 5.2927-2.4382 5.4711-2.4382.47575 0 12.191-8.3256 12.548-8.9202.1784-.23788 1.4867-1.0704 2.9734-1.784 2.914-1.4272 5.2927-4.1033 5.9468-6.601.41628-1.5462-.29734-2.3787-3.6276-4.5196-1.9625-1.1894 2.7355-2.7355 8.7418-2.914 2.9734-.11894 6.0658-.53521 7.3741-1.0704 1.2488-.53521 3.2113-.95149 4.4601-.95149 6.7794 0 15.462-6.7199 15.462-12.013 0-2.7355-1.3083-6.1252-3.0329-7.9688-.77309-.89202-2.9734-2.2598-4.8169-3.0329-1.903-.83256-3.4492-1.7246-3.4492-1.9624 0-.59469 5.1737-5.3522 5.8279-5.3522.29734 0 1.5462-.95149 2.8545-2.1409 1.2488-1.1894 3.687-3.2113 5.4116-4.5196 8.2066-6.3036 14.094-18.495 13.024-26.82-.41628-3.0329-2.2598-7.7904-3.2708-8.4445-.29734-.1784-2.6166-.41628-5.1143-.53521-4.9953-.23788-5.8874-.77309-5.3522-3.3302.9515-4.5791.65416-14.035-.53521-19.625-3.2708-15.045-6.0063-22.657-9.0986-25.334-.89202-.77308-3.0924-1.7246-4.8764-2.0814-3.1518-.65415-3.4492-.59468-7.0173 1.1894-4.5196 2.3193-8.385 6.482-10.823 11.596-.95149 2.0814-2.8545 5.4116-4.1628 7.493-1.3083 2.0219-2.5571 4.2817-2.7355 4.9359-1.1894 4.1033-3.8654 7.7309-5.5306 7.4335-.53522-.11894-1.8435-1.6651-2.914-3.5086-2.4382-4.2817-4.2817-5.0548-7.8498-3.4492-2.8545 1.2488-4.3412 2.8545-5.59 5.8874-1.3083 3.0924-2.6761 8.2066-3.0924 11.596-.47575 3.687.59468 14.213 1.8435 18.435.83256 2.9139.83256 3.3897-.0595 4.9953-1.0704 2.1409-2.4977 2.3193-4.5791.65415-.83256-.65415-2.6761-1.4272-4.1033-1.8435-3.2708-.83256-6.601.41627-7.9093 2.9139-2.0814 4.0438-1.6651 11.834.89203 16.83.59468 1.1894 2.4382 3.7465 4.0438 5.709 1.6651 2.0219 3.0329 4.0438 3.0329 4.579 0 1.1894.0595 1.1894-2.7355 0-2.4977-1.0704-8.4445-2.0219-9.5744-1.6056-1.2488.47575-1.5462 5.1143-.53522 9.0986 1.4272 5.4711 3.687 9.3365 8.2661 13.737 2.2003 2.1408 3.9844 4.3412 3.9844 4.8764 0 .95149-1.9624 2.4382-2.4977 1.8435-.89202-.83255-1.6056 1.903-1.8435 6.6604-.23788 4.5791-.59469 6.0063-2.2003 9.1581-1.9625 3.9249-2.0219 4.3412-.83256 10.645.23788 1.3083.17841 1.903-.1784 1.6651-.35681-.23788-1.1894.95149-1.903 2.6166-.71362 1.6056-2.7355 4.7575-4.5196 6.9578-3.1518 3.8654-10.169 10.11-10.764 9.5149-.29734-.29734-.71362-22.301-1.0704-51.916-.11894-7.8498-.41628-14.748-.65415-15.402-.23787-.59468-.29734-11.18 0-23.49.71362-35.265.77309-56.614.1784-59.944-.35681-2.2003-.23787-5.8279.41628-11.953 1.0704-10.764 1.1299-14.57.11894-17.543-.89203-2.3787-4.8764-6.9578-6.1847-6.9578-1.011 0-.9515-2.0219.0595-11.002 1.6651-14.035 2.4382-26.999 1.6651-27.772-.41628-.41628-.71362-1.1299-.71362-1.6651 0-.53522-.59469-1.5462-1.3678-2.2598-1.2488-1.1894-2.0219-1.3083-7.7309-1.3083h-6.3036l-5.8279-4.6385c-3.2113-2.5571-8.7418-6.8983-12.369-9.6933-8.385-6.4226-12.786-10.526-16.651-15.7-13.202-17.603-19.446-36.87-17.543-54.116 3.2113-28.664 21.111-57.149 45.731-72.551.53522-.35681 1.6056-1.011 2.4382-1.5462.83256-.53522 3.2113-1.903 5.3522-3.0329s4.4006-2.3193 5.0548-2.7355c4.0438-2.3193 20.636-7.9688 27.355-9.3365 1.9624-.35681 4.5196-1.011 5.6495-1.3678 5.59-1.8435 20.635-3.5681 36.157-4.0438 9.277-.35681 12.191-.59468 12.429-1.2488.23787-.59468 2.0814-.77309 7.8498-.77309 7.9093 0 15.759 1.2488 22.776 3.6276 1.8435.59468 4.1033 1.1299 4.9359 1.1299.89203 0 4.8169.77309 8.8013 1.7246 3.9844.95149 8.8608 2.0814 10.823 2.4382 6.6604 1.3083 14.272 3.1518 17.603 4.2222 1.8435.65415 4.6385 1.1299 6.2442 1.1299l2.914-.05947-2.1409-1.903c-1.1894-1.0704-3.1518-3.0924-4.3412-4.5196-4.5791-5.5306-13.499-11.953-19.327-14.035-1.3678-.47575-4.9953-2.3193-8.0877-4.1628-3.0924-1.784-5.7684-3.2708-6.0063-3.2708-.1784 0-2.0219-.77309-4.0438-1.6651-7.6119-3.5681-24.917-7.4335-40.201-9.0392-16.94-1.7348-32.28-2.1511-45.49-1.1401z" fill="#fff"></path>
</svg>
