<svg xmlns="http://www.w3.org/2000/svg" viewBox="0 0 512 512">
  <path d="M0 0h512v512H0z"/>
  <path d="m125.67 16.636c-.1129-.02462-.28701.18364-.37964.55422-.15881.42352-.79409 4.0764-1.5352 8.1527l-1.2706 7.4116 1.0059 15.882c.5294 8.7351 1.9058 24.405 3.0705 34.834 1.9588 17.841 2.3294 19.958 6.0881 36.528 3.494 15.3 4.7116 19.694 9.5821 33.881 3.3882 9.8468 7.5174 20.646 10.429 27.264l4.8705 10.959 8.3115 10.376 8.2586 10.376 17.1 14.082c9.4233 7.7292 20.011 16.094 23.505 18.529l6.3528 4.4999 2.9117-3.2293c2.4352-2.7529 12.811-14.135 26.046-28.64l2.9646-3.2823-6.6175-7.3586c-3.6528-4.0764-14.823-16.835-24.776-28.323-16.941-19.641-18.582-21.705-26.311-33.352-4.4999-6.8292-16.041-24.246-25.57-38.646l-17.43-26.2-9.85-20.382c-9.8468-20.329-9.8997-20.435-13.235-32.029-1.7999-6.4057-3.3881-11.753-3.494-11.859-.0132-.01323-.0277-.02128-.0439-.02483zm260.85.39125c-.29054.11172-1.8868 5.0781-3.6818 11.386-3.3882 11.7-3.4411 11.859-13.288 32.134l-9.8468 20.382-18.476 27.793c-10.111 15.3-21.652 32.664-25.517 38.593-6.3528 9.5821-8.9998 12.917-23.876 30.176-19.164 22.182-34.834 39.758-36.158 40.552-.5294.2647-6.4057 6.6175-13.129 14.082-15.776 17.47-21.176 24.988-39.228 54.263-16.464 26.735-15.564 25.199-16.782 28.005-.47646 1.1647-.95291 2.2764-1.0588 2.4352-.10588.15883 1.2176.95292 2.9646 1.747l3.1234 1.5352.37058 5.9822.37058 6.0351-5.241 5.7175c-3.6528 4.0764-6.194 6.3528-8.6292 7.7822-1.9058 1.1117-3.7587 2.0117-4.0764 2.0117-.37058 0-.68822.21175-.68822.42352 0 .26469-.68822.79409-1.4823 1.2176-1.3764.68821-1.6411 1.3235-2.6999 6.5116-.95292 4.5528-3.3352 10.959-11.594 31.393-5.6646 14.135-10.641 27.105-11.011 28.852-.31764 1.747-.89997 4.4999-1.2176 6.141l-.63528 2.9646-2.2764-.21175c-1.8529-.21177-2.9117.0529-6.0881 1.6411-2.2235 1.1647-3.7587 2.2235-3.5999 2.594.10587.37057.84703 2.7529 1.6411 5.294l1.4294 4.6587-3.7058 10.059c-2.0646 5.5587-3.7587 10.323-3.7587 10.641 0 .2647.47646 1.2176 1.0588 2.0117l1.0588 1.4823-1.6411 1.3764c-.89998.79409-2.3294 1.747-3.1764 2.1705-1.4823.7941-1.5882 1.0588-3.0176 7.0939l-.58234 2.3823 3.3352 4.2352c4.5528 5.8234 6.2469 9.2115 5.6116 11.329-.47647 1.747-.2647 2.0646 1.9588 3.2293 1.0058.5294 1.8529.2647 5.9822-1.8 3.1764-1.5882 5.3998-2.3823 6.8292-2.3823 1.9588 0 2.0646-.0529 2.3823-2.1176.26469-1.8.84703-2.4882 3.7587-4.8175 1.9058-1.4823 3.4411-2.7529 3.494-2.7529 0-.0529.47646-3.9175 1.0059-8.5762.95291-8.0998 1.2176-9.1586 6.5116-25.411 7.8351-24.088 21.229-57.069 33.14-81.739 8.3115-17.152 10.059-20.329 21.388-38.54 12.229-19.694 12.335-19.905 24.776-34.887 12.282-14.823 12.653-15.194 22.235-23.188 5.3469-4.4469 12.388-9.7409 15.564-11.806 10.853-6.8822 24.988-17.47 41.293-30.917l16.252-13.341 8.0998-10.112c4.394-5.5587 8.4174-10.853 8.8939-11.753 3.4411-6.7234 10.694-24.776 15.141-37.852 4.6058-13.447 5.9292-18.158 9.3174-33.193 3.7587-16.517 4.1293-18.688 6.0881-36.475 1.1647-10.429 2.5411-26.099 3.0705-34.834l.95292-15.882-1.2706-7.6763c-.68821-4.2352-1.4294-7.8351-1.6411-8.0468-.007-.0067-.0146-.0077-.0241-.0042zm-96.9 238.92c-.15882 0-3.1764 1.747-6.6704 3.8116-5.294 3.1764-7.941 5.241-14.823 11.7-4.6587 4.3411-8.4704 7.9939-8.5762 8.2057-.0529.15881 4.9763 6.4586 11.17 13.976 10.906 13.235 11.594 14.188 23.505 33.405 11.276 18.105 13.023 21.335 21.335 38.487 11.911 24.564 25.146 57.228 33.14 81.527 5.294 16.252 5.6116 17.523 6.3528 24.564.42351 4.0764.89997 7.941 1.0058 8.5762.15882.58234 1.8 2.3294 3.7058 3.8117 2.9117 2.3294 3.494 3.0176 3.7587 4.8175.31764 2.0646.42352 2.1176 2.3823 2.1176 1.4294 0 3.6528.7941 6.8292 2.3823 4.1293 2.0646 4.9763 2.3294 5.9822 1.8 2.2235-1.1647 2.4352-1.4823 1.9588-3.2293-.63527-2.1176 1.0588-5.5057 5.6116-11.329l3.3352-4.2352-.5294-2.3823c-1.2706-5.6646-1.5352-6.1939-3.547-7.4116-1.0588-.63527-2.4882-1.6411-3.1234-2.2235l-1.1647-1.0588 1.0058-1.4294c.58234-.84704 1.0588-1.747 1.0588-2.0117 0-.31764-1.6941-5.0822-3.7587-10.641l-3.7058-10.059 1.3764-4.6587c.7941-2.5411 1.4823-4.9763 1.5882-5.3469.15882-.37058-1.3235-1.4294-3.547-2.5411-3.1234-1.5882-4.2352-1.8529-6.0351-1.6411l-2.2764.21175-.63528-2.9646c-.31764-1.6411-.89998-4.394-1.2176-6.141-.37057-1.747-5.3469-14.717-11.011-28.852-8.2586-20.435-10.641-26.84-11.594-31.393-1.0588-5.1881-1.3235-5.8234-2.6999-6.5116-.79409-.42352-1.4823-1.0059-1.4823-1.3235 0-.31763-.21177-.42352-.42352-.26469-.21177.10588-2.1176-.74116-4.1293-1.9588-2.7529-1.6411-5.1881-3.7587-8.8939-7.888l-5.1352-5.6646.37058-6.0351.37058-6.0881 3.0705-1.4823c3.2293-1.5352 3.494-1.747 2.594-2.647-.26469-.2647-.7941-1.3235-1.1647-2.3823-.74116-1.9588-34.887-57.651-35.364-57.598zm-19.588 93.65c-.31764 0-.0529.95291.5294 2.1176.68821 1.3764 1.0588 3.1234 1.0588 5.241 0 3.0176-.10587 3.3352-2.3823 5.8763-1.9588 2.2235-2.647 3.5999-4.1822 8.5762-1.0059 3.2823-2.3823 8.8939-3.0176 12.388l-1.1647 6.4057 1.4823 11.594c.7941 6.4057 1.4823 11.594 1.5352 11.647 0 0 2.1176.58233 4.6058 1.3235l4.5528 1.3764 4.3411-1.5882 4.3411-1.5882 5.3998-6.5645c5.2939-6.4057 5.3999-6.6175 5.7175-9.8468.58233-5.3999.52939-14.4-.10589-19.852l-.58233-5.1352-4.9234-5.0293c-2.6999-2.7529-6.141-6.988-7.6763-9.4233-2.4352-3.8646-3.1234-4.5528-5.8763-5.9822-1.6941-.84704-3.3352-1.5352-3.6528-1.5352zm-23.413.0861c-.46321-.0728-1.6014.44338-3.6396 1.5022-2.5411 1.2706-3.3352 2.1176-5.7175 5.9293-1.5352 2.4352-5.0293 6.6704-7.7292 9.4233l-4.9763 5.0293-.52939 5.1352c-.63528 5.5057-.68822 14.505-.10589 19.852.31764 3.2293.42352 3.4411 5.6646 9.7938 5.294 6.4586 5.3998 6.5116 9.2644 7.9939 2.1705.7941 4.3411 1.4294 4.8705 1.4294.74116 0 8.5762-2.0117 9.1586-2.3294.0529-.0529.74116-5.3469 1.5882-11.753l1.4294-11.7-1.1647-6.194c-.63528-3.3881-1.9588-8.9468-3.0176-12.335-1.6411-5.3998-2.1705-6.5645-4.2352-8.7351-2.2235-2.3823-2.3294-2.647-2.3294-5.7175 0-2.1705.31764-3.9175 1.0588-5.294.66176-1.297.87351-1.9588.41027-2.0316zm-30.358 35.998c-.43017-.029-1.5841.91404-3.6686 2.9324-3.8117 3.8117-9.8997 13.5-14.188 22.658-1.747 3.7587-3.3881 7.1469-3.6528 7.5174-.31764.42352-.31764 2.7529.10588 6.3528.58234 5.6116.63528 5.7175 3.9705 11.223 1.8529 3.0705 4.6587 6.8292 6.194 8.3645 2.6999 2.6999 2.9117 2.8058 6.5645 3.1234l3.8117.37058 3.9705-2.8058c2.594-1.7999 4.7646-3.8646 6.2998-6.0351 2.2235-3.0705 2.3823-3.494 2.6999-7.888.31763-4.1293.26469-4.9234-.89999-7.7292-.68821-1.747-1.5352-4.3411-1.8529-5.8234-.37058-1.6941-1.9058-4.8705-4.0764-8.3645-4.5528-7.3586-6.2998-12.6-5.8763-17.894.15881-2.0646.47645-4.2352.63527-4.9234.21836-.69485.22082-1.0621-.0372-1.0795zm84.249 0c-.25809.0174-.25563.38463-.0372 1.0795.15881.68822.47646 2.8587.63527 4.9234.42352 5.294-1.3235 10.535-5.8763 17.894-2.1705 3.494-3.7058 6.6704-4.0764 8.3645-.31764 1.4823-1.1647 4.0764-1.8529 5.8234-1.1647 2.8058-1.2706 3.6528-.95292 7.5174.2647 3.9175.5294 4.6587 2.4882 7.6763 1.6411 2.4882 3.3352 4.1293 6.3528 6.2998l4.1822 2.9646 3.7587-.37058c3.7058-.31763 3.8646-.42352 6.6175-3.1234 1.5353-1.5352 4.3411-5.241 6.194-8.3115 3.2823-5.5057 3.3881-5.7175 3.9705-11.011l.58233-5.4528-1.6941-3.547c-.89998-1.9588-2.594-5.4528-3.6528-7.7821-3.1234-6.7234-9.5821-16.623-12.97-20.011-2.0845-2.0183-3.2384-2.9613-3.6686-2.9324zm-42.383 37.305c-1.2201-.002-2.4542.0645-3.7115.19687-1.747.21176-6.0881 1.3764-9.635 2.6999l-6.4586 2.3294-4.6058 8.7351c-6.9351 13.182-7.3586 13.817-10.482 16.517-2.2235 1.9588-4.447 3.1234-9.688 5.1881-6.6704 2.647-9.2644 4.3411-10.747 7.0939-.52939 1.1117-.31764 1.6941 2.3294 5.9292 2.4352 3.9175 3.7587 5.3999 8.0998 8.9468 4.447 3.5999 5.6646 4.3411 8.7351 5.0822l3.547.89998 13.976-3.3352c18.794-4.4999 19.111-4.4999 37.852 0l13.923 3.3352 3.547-.95292c3.0705-.74115 4.341-1.4823 8.735-5.0822 4.3411-3.494 5.6646-4.9234 8.0998-8.8939 2.647-4.2352 2.8588-4.8175 2.3294-5.9292-1.4823-2.7529-4.0764-4.4469-10.747-7.0939-5.241-2.0646-7.4645-3.2293-9.688-5.1881-3.1234-2.6999-3.547-3.3352-10.482-16.57l-4.6587-8.788-2.4352-.79409c-1.3764-.47646-4.4999-1.5882-6.988-2.4352-3.6528-1.2706-7.1866-1.886-10.847-1.891z" fill="#fff"></path>
</svg>
