<svg xmlns="http://www.w3.org/2000/svg" viewBox="0 0 512 512">
  <path d="M0 0h512v512H0z"/>
  <path d="m253.13 18.824c-.63424 17.022-5.0274 33.303-7.01 50.121-5.33 23.984-6.8377 49.146-16.123 72.203-9.2302 28.513-16.69 58.04-30.844 84.26-9.8378 23.794-23.015 46.161-27.799 71.707-5.8716 25.065-16.553 48.988-17.002 75.077-.69128 25.971 5.3204 52.02 16.691 75.293 14.435 26.955 40.372 52.023 72.387 52.785 18.276 4.5196 38.324-.30117 55.265-8.1316 45.488-25.57 63.514-82.279 57.878-131.84-2.1374-26.369-14.17-50.39-18.814-76.22-6.0143-21.27-17.396-40.812-25.744-60.917-16.798-33.127-24.863-70.078-37.068-105.16-4.217-25.545-7.9712-51.01-11.599-76.447-5.8103-8.0323-1.4066-30.917-10.217-30.436v7.6973zm-2.5236 255.23c-4.7188 19.523 11.261 35.445 9.814 55.099 4.1184 16.907 1.2526 35.844 2.3834 51.734 7.161-5.5183 8.8474-14.247 8.0927-22.791-1.6906-7.1864 3.3776-29.238 4.5954-10.647 6.0422 16.062 18.985 35.87 5.7044 53.039-4.6941 5.6349-7.6728 30.295-2.2177 11.19 2.8554-11.315 21.426-1.6488 15.134-18.673 15.289-2.4841 7.0915 28.476 3.482 39.075-10.013 5.6879-24.139 8.3625-27.329 19.512-15.327-4.4994-31.344.19514-45.095-11.006-6.3479-12.085-9.7186-24.094-19.201-35.123-3.9169-7.1092 2.7419-28.499 4.0855-9.2784 6.1493 2.8338 16.324 14.415 11.319-.24973-6.5216-13.825-7.5516-33.239.56189-46.804 4.7567-8.2293 15.97-24.365 13.956-4.2192-1.8564 8.1325-3.1999 21.237 5.321 9.5468 12.921-10.571 7.7491-28.595 8.7625-43.322-6.0781-11.596-6.592-28.596-.81697-40.069l.50919.4128.93868 2.5729z" fill="#fff"></path>
</svg>
