<svg xmlns="http://www.w3.org/2000/svg" viewBox="0 0 512 512"><path d="M0 0h512v512H0z"/><path d="M236.63 87.527c-2.656.036-5.3.2-7.935.49-21.07 2.336-40.757 13.6-55.924 33.83-15.165 20.232-26.197 49.186-32.096 88.085l-1.35 8.898 17.797 2.7 1.35-8.9c5.597-36.897 16-63.04 28.704-79.985 12.704-16.947 27.325-24.943 43.506-26.737 32.36-3.587 73.432 20.07 107.287 63.824l5.508 7.118 14.236-11.016-5.507-7.117c-33.918-43.837-75.756-71.724-115.574-71.19zm-2.526 42.973c-19.43.235-38.066 11.346-49.118 34.71l16.272 7.696c8.926-18.87 19.498-24.244 33.064-24.408 13.566-.164 30.76 6.748 47.557 17.315 33.59 21.133 66.027 56.81 71.31 63.933l14.458-10.725c-8.268-11.145-39.502-45.364-76.183-68.442-18.34-11.54-37.93-20.313-57.36-20.078zm5.373 44.13c-11.34.01-22.34 3.976-29.842 13.604-9.015 11.568-10.385 25.903-6.41 38.7 3.974 12.796 12.51 24.67 23.21 35.64 21.402 21.94 51.76 40.303 77.483 48.877l5.69-17.075c-22.276-7.426-51.426-25.034-70.288-44.37-9.43-9.667-16.216-19.755-18.904-28.41-2.688-8.657-2.064-15.264 3.416-22.296 5.443-6.986 12.067-8.243 23.16-5.833s25.076 9.53 38.703 18.646c27.255 18.23 53.76 44.473 60.494 52.192l13.564-11.832c-8.57-9.823-34.737-35.715-64.05-55.323-14.658-9.803-29.935-18.024-44.892-21.273-3.74-.812-7.555-1.25-11.335-1.246zm-59.166.563c-2.174 3.166-2.722 5.337-3.935 8.65-1.213 3.315-2.482 7.147-3.656 10.83-2.35 7.37-4.314 14.155-4.314 14.155l17.29 5.004s1.914-6.606 4.173-13.693c1.13-3.545 2.344-7.206 3.407-10.11 1.064-2.905 2.582-5.68 1.87-4.643l-14.836-10.194zm73.094 38.405l-10.658 14.504 73.902 54.306 10.66-14.504-73.904-54.306zm-87.097 13.88c-.432 8.958 2.806 17.848 7.61 27.157 4.802 9.308 11.44 18.903 19.08 27.894 15.284 17.982 33.755 33.97 52.925 37.546l3.3-17.695c-10.518-1.96-28.778-15.353-42.507-31.507-6.865-8.077-12.804-16.74-16.803-24.49-4-7.75-5.787-14.722-5.627-18.04l-17.978-.866zm-32.504 10.155c-2.022 27.514-.665 63.568 13.744 88.187l15.535-9.09c-10.457-17.87-13.194-52.35-11.326-77.78l-17.953-1.317zm227.37 30.13c-2.85 17.495-13.132 55.3-19.542 67.186l15.845 8.542c9.482-17.58 18.253-53.136 21.462-72.834l-17.765-2.894zm-25.868 4.864c-6.962 18.98-9.932 26.054-17.74 40.53l15.843 8.544c8.085-14.99 11.753-23.67 18.797-42.874l-16.9-6.2zm-158.953.975l-16.213 7.824c7.13 14.776 10.88 24.093 16.503 32.883l15.162-9.703c-4.39-6.858-8.134-15.84-15.453-31.005zm29.92 36.404c-3.418-.01-5.854 1.13-9.014 2.256-4.213 1.5-8.936 3.69-13.98 6.476-10.085 5.57-21.37 13.465-30.563 23.086l13.014 12.434c7.448-7.796 17.555-14.96 26.252-19.762 4.35-2.4 8.366-4.227 11.32-5.28 2.952-1.052 5.62-.62 3.038-1.167l3.738-17.61c-1.42-.3-2.667-.43-3.807-.434zm63.7 15.275c-7.852-.088-15.55.66-23.038 2.107-29.957 5.784-56.587 21.94-79.866 38.072l10.254 14.794c22.573-15.643 47.316-30.23 73.024-35.195 25.707-4.966 52.384-1.104 82.144 21.66l10.936-14.296c-24.94-19.078-49.896-26.876-73.453-27.143zm-9.238 36.716c-24.58.286-49.327 10.097-71.933 31.44l12.358 13.087c19.922-18.807 39.714-26.294 59.785-26.527 20.072-.233 40.823 7.124 61.305 19.977l9.566-15.248c-22.49-14.112-46.5-23.014-71.08-22.73zm2.547 34.567c-10.048-.007-20.12 2.465-29.577 7.818l-7.832 4.434 8.866 15.665 7.832-4.433c13.785-7.8 27.69-7.352 42.28-.24l8.09 3.943 7.888-16.18-8.092-3.943c-9.377-4.57-19.404-7.058-29.453-7.065z" fill="#fff"/></svg>
