<?xml version="1.0" encoding="UTF-8"?>
<!DOCTYPE svg PUBLIC "-//W3C//DTD SVG 1.1//EN" "http://www.w3.org/Graphics/SVG/1.1/DTD/svg11.dtd">
<svg xmlns="http://www.w3.org/2000/svg" version="1.1" width="226px" height="226px" style="shape-rendering:geometricPrecision; text-rendering:geometricPrecision; image-rendering:optimizeQuality; fill-rule:evenodd; clip-rule:evenodd" xmlns:xlink="http://www.w3.org/1999/xlink">
<g><path style="opacity:0.952" fill="#fefffe" d="M 68.5,40.5 C 69.8734,40.3433 71.2068,40.51 72.5,41C 96.406,64.4045 119.739,88.2379 142.5,112.5C 119.739,136.762 96.406,160.595 72.5,184C 71.1667,184.667 69.8333,184.667 68.5,184C 57.1243,172.959 46.1243,161.625 35.5,150C 47.3053,137.36 59.3053,124.86 71.5,112.5C 59.3053,100.14 47.3053,87.6396 35.5,75C 46.3266,63.3399 57.3266,51.8399 68.5,40.5 Z"/></g>
<g><path style="opacity:0.947" fill="#fefffe" d="M 225.5,109.5 C 225.5,110.833 225.5,112.167 225.5,113.5C 205.035,133.465 184.701,153.632 164.5,174C 163.167,174.667 161.833,174.667 160.5,174C 150.457,164.292 140.791,154.292 131.5,144C 141.638,133.027 151.972,122.194 162.5,111.5C 151.972,100.806 141.638,89.9728 131.5,79C 140.791,68.7082 150.457,58.7082 160.5,49C 161.833,48.3333 163.167,48.3333 164.5,49C 184.701,69.3683 205.035,89.535 225.5,109.5 Z"/></g>
<g><path style="opacity:0.916" fill="#fefffe" d="M -0.5,114.5 C -0.5,113.167 -0.5,111.833 -0.5,110.5C 7.84062,102.326 16.3406,94.3259 25,86.5C 34.3676,94.3671 42.8676,103.034 50.5,112.5C 42.8676,121.966 34.3676,130.633 25,138.5C 16.3406,130.674 7.84062,122.674 -0.5,114.5 Z"/></g>
</svg>
