<?xml version="1.0" encoding="UTF-8"?>
<!DOCTYPE svg PUBLIC "-//W3C//DTD SVG 1.1//EN" "http://www.w3.org/Graphics/SVG/1.1/DTD/svg11.dtd">
<svg xmlns="http://www.w3.org/2000/svg" version="1.1" width="298px" height="298px" style="shape-rendering:geometricPrecision; text-rendering:geometricPrecision; image-rendering:optimizeQuality; fill-rule:evenodd; clip-rule:evenodd" xmlns:xlink="http://www.w3.org/1999/xlink">
<g><path style="opacity:0.952" fill="#fefffe" d="M 68.5,76.5 C 69.8734,76.3433 71.2068,76.51 72.5,77C 96.406,100.405 119.739,124.238 142.5,148.5C 119.739,172.762 96.406,196.595 72.5,220C 71.1667,220.667 69.8333,220.667 68.5,220C 57.1243,208.959 46.1243,197.625 35.5,186C 47.3053,173.36 59.3053,160.86 71.5,148.5C 59.3053,136.14 47.3053,123.64 35.5,111C 46.3266,99.3399 57.3266,87.8399 68.5,76.5 Z"/></g>
<g><path style="opacity:0.947" fill="#fefffe" d="M 160.5,84.5 C 161.873,84.3433 163.207,84.51 164.5,85C 185.406,105.405 205.74,126.238 225.5,147.5C 205.74,168.762 185.406,189.595 164.5,210C 163.167,210.667 161.833,210.667 160.5,210C 150.457,200.292 140.791,190.292 131.5,180C 141.638,169.027 151.972,158.194 162.5,147.5C 151.972,136.806 141.638,125.973 131.5,115C 140.993,104.674 150.66,94.5069 160.5,84.5 Z"/></g>
<g><path style="opacity:0.929" fill="#fefffe" d="M 297.5,145.5 C 297.5,146.5 297.5,147.5 297.5,148.5C 281.035,164.465 264.701,180.632 248.5,197C 247.167,197.667 245.833,197.667 244.5,197C 235.953,189.954 228.286,182.12 221.5,173.5C 229.255,164.241 237.588,155.408 246.5,147C 237.79,138.625 229.457,129.958 221.5,121C 228.79,112.709 236.456,104.709 244.5,97C 245.833,96.3333 247.167,96.3333 248.5,97C 264.701,113.368 281.035,129.535 297.5,145.5 Z"/></g>
<g><path style="opacity:0.916" fill="#fefffe" d="M -0.5,150.5 C -0.5,149.167 -0.5,147.833 -0.5,146.5C 7.84062,138.326 16.3406,130.326 25,122.5C 34.3676,130.367 42.8676,139.034 50.5,148.5C 42.8676,157.966 34.3676,166.633 25,174.5C 16.3406,166.674 7.84062,158.674 -0.5,150.5 Z"/></g>
</svg>
