<?xml version="1.0" encoding="UTF-8"?>
<!DOCTYPE svg PUBLIC "-//W3C//DTD SVG 1.1//EN" "http://www.w3.org/Graphics/SVG/1.1/DTD/svg11.dtd">
<svg xmlns="http://www.w3.org/2000/svg" version="1.1" width="144px" height="144px" style="shape-rendering:geometricPrecision; text-rendering:geometricPrecision; image-rendering:optimizeQuality; fill-rule:evenodd; clip-rule:evenodd" xmlns:xlink="http://www.w3.org/1999/xlink">
<g><path style="opacity:0.889" fill="#fefffe" d="M 70.5,-0.5 C 71.8333,-0.5 73.1667,-0.5 74.5,-0.5C 97.5272,22.8602 120.527,46.1935 143.5,69.5C 143.5,70.8333 143.5,72.1667 143.5,73.5C 119.833,96.5 96.5,119.833 73.5,143.5C 72.1667,143.5 70.8333,143.5 69.5,143.5C 46.1935,120.527 22.8602,97.5272 -0.5,74.5C -0.5,73.1667 -0.5,71.8333 -0.5,70.5C 23.5,47.1667 47.1667,23.5 70.5,-0.5 Z M 71.5,21.5 C 88.4282,36.7601 104.762,52.7601 120.5,69.5C 103.833,86.8333 86.8333,103.833 69.5,120.5C 64.6815,116.182 60.0148,111.682 55.5,107C 67.4094,95.5933 78.7427,83.76 89.5,71.5C 79.0763,59.5734 68.0763,48.0734 56.5,37C 61.7031,31.9646 66.7031,26.798 71.5,21.5 Z M 40.5,55.5 C 45.479,59.8123 50.1456,64.479 54.5,69.5C 50.5,74.1667 46.1667,78.5 41.5,82.5C 36.6815,78.1819 32.0148,73.6819 27.5,69C 32.0367,64.6312 36.3701,60.1312 40.5,55.5 Z"/></g>
</svg>
