<?xml version="1.0" encoding="UTF-8"?>
<!DOCTYPE svg PUBLIC "-//W3C//DTD SVG 1.1//EN" "http://www.w3.org/Graphics/SVG/1.1/DTD/svg11.dtd">
<svg xmlns="http://www.w3.org/2000/svg" version="1.1" width="144px" height="118px" style="shape-rendering:geometricPrecision; text-rendering:geometricPrecision; image-rendering:optimizeQuality; fill-rule:evenodd; clip-rule:evenodd" xmlns:xlink="http://www.w3.org/1999/xlink">
<g><path style="opacity:0.905" fill="#fefffe" d="M 60.5,-0.5 C 66.5,-0.5 72.5,-0.5 78.5,-0.5C 94.6651,0.945011 109.665,6.11168 123.5,15C 134.477,22.4523 141.144,32.619 143.5,45.5C 143.5,48.5 143.5,51.5 143.5,54.5C 140.852,66.6113 134.519,76.4446 124.5,84C 110.316,93.5061 94.6494,98.8395 77.5,100C 82.251,105.23 85.9176,111.064 88.5,117.5C 87.5,117.5 86.5,117.5 85.5,117.5C 64.058,112.343 42.3913,107.677 20.5,103.5C 20.4521,100.708 21.7854,98.8747 24.5,98C 43.2727,86.6182 62.2727,75.7848 81.5,65.5C 79.8145,74.2419 77.8145,82.9086 75.5,91.5C 93.2659,86.7341 104.266,75.4008 108.5,57.5C 107.017,45.691 101.35,36.5244 91.5,30C 68.4658,16.4967 44.4658,14.4967 19.5,24C 13.2949,26.8789 7.62821,30.5455 2.5,35C 1.55198,35.4828 0.551975,35.6495 -0.5,35.5C -0.5,34.5 -0.5,33.5 -0.5,32.5C 8.79439,18.1621 21.7944,8.66213 38.5,4C 45.8823,2.02413 53.2156,0.524132 60.5,-0.5 Z"/></g>
</svg>
