<svg xmlns="http://www.w3.org/2000/svg" viewBox="0 0 512 512"><path d="M0 0h512v512H0z"/><path fill="#fff" d="M70 150v212h372V150H70zm17 17h338v178H87V167zm44.225 18A40 40 0 0 1 105 215.373v83.68A40 40 0 0 1 134.447 327h243.405A40 40 0 0 1 407 299.953v-83.406A40 40 0 0 1 376.715 185h-245.49zM256 192a48 64 0 0 1 48 64 48 64 0 0 1-48 64 48 64 0 0 1-48-64 48 64 0 0 1 48-64zm-9 16v12.217c-5.835 1.643-10.808 4.374-14.912 8.2-7.193 6.708-10.79 15.91-10.79 27.606 0 11.568 3.53 20.738 10.595 27.51 4.16 3.97 9.202 6.763 15.107 8.395V304h18v-10.49c3.808-.227 7.532-.747 11.17-1.57 5.022-1.133 9.867-2.834 14.533-5.102V251.94H261.54v12.54h11.423v14.096c-1.33.52-2.837.907-4.522 1.166-1.65.227-3.45.34-5.393.34-7.16 0-12.684-2.09-16.572-6.27-3.89-4.18-5.834-10.11-5.834-17.79 0-7.743 2.01-13.687 6.028-17.834 4.05-4.18 9.8-6.27 17.254-6.27 4.018 0 8.02.567 12.006 1.7 4.018 1.135 8.05 2.85 12.1 5.152v-15.018c-3.92-1.782-8.1-3.126-12.538-4.033-3.372-.696-6.87-1.12-10.49-1.284V208h-18zm-103 32a16 16 0 0 1 16 16 16 16 0 0 1-16 16 16 16 0 0 1-16-16 16 16 0 0 1 16-16zm224 0a16 16 0 0 1 16 16 16 16 0 0 1-16 16 16 16 0 0 1-16-16 16 16 0 0 1 16-16z"/></svg>