<svg xmlns="http://www.w3.org/2000/svg" viewBox="0 0 512 512"><path d="M0 0h512v512H0z"/><path d="m102.5 26.029 90.03 345.75 289.22 23.25-90.06-345.75-289.19-23.251zm-18.906 1.565c-30.466 11.873-55.68 53.098-49.75 75.312l3.25 11.779c.667-1.76 1.3608-3.5213 2.0938-5.2793 9.91-23.71 26.56-46.77 50.376-58.91l-5.97-22.906zm10.844 41.594c-16.657 10.012-29.92 28.076-38 47.406-5.247 12.55-8.038 25.629-8.75 36.529l64.812 235.29c.294-.55.572-1.1043.875-1.6543 10.603-19.252 27.823-37.696 51.125-48.471l-70.062-269.09v-.002zm102.72 26.248 134.8 11.039 7.1406 25.545-105.77-8.6621 16.16 57.801c4.2041-.036 8.535.034 12.994.20899 4.4591.17502 8.3424.39885 11.652.66992 12.136.99393 23.055 2.8867 32.754 5.6777 9.6714 2.6937 19.025 6.882 28.062 12.566 9.5202 6.0092 17.669 13.428 24.449 22.256 6.7799 8.8274 11.952 19.614 15.516 32.361 2.8292 10.12 3.6313 19.648 2.4043 28.58-1.227 8.9323-4.2676 16.289-9.1191 22.072-5.3173 6.2203-12.472 10.768-21.469 13.645-8.9232 2.7873-19.954 3.6425-33.094 2.5664-12.237-1.0022-24.377-3.2312-36.418-6.6894-12.01-3.37-22.42-7.12-31.22-11.27l-8.6094-30.799 2.1055.17188c9.6392 5.7337 20.478 10.853 32.518 15.357 12.012 4.4068 23.335 7.0453 33.967 7.916 7.1213.58321 13.719.17359 19.795-1.2305 6.176-1.3958 11.193-4.3136 15.049-8.752 3.2434-3.8229 5.1522-8.5628 5.7266-14.221.67468-5.6497-.0638-12.318-2.2129-20.006-2.0947-7.4929-5.2173-13.929-9.3672-19.309-4.0496-5.371-8.8666-9.8066-14.451-13.307-6.2493-4.1249-13.339-7.225-21.27-9.3008-7.8574-2.1648-16.399-3.6251-25.627-4.3809-8.8264-.72286-17.19-.8379-25.088-.34375-7.7978.50236-14.491 1.0962-20.082 1.7793l-31.31-111.94zm-27.85 261.34c-17.677 9.078-31.146 23.717-39.562 39-4.464 8.107-7.2695 16.364-8.6875 23.75l11.688 42.408 1.625.125c-3.84-27.548 11.352-60.504 41.25-81.094l-6.3125-24.189zm26.344 33.998v.002c-32.567 17.27-46.51 52.439-41.844 72.939l289.84 24.5c-5.34-7.79-8.6728-17.947-8.5938-28.5l-22.406-9 46.35-7.28-13.5-12.88c5.604-6.917 13.706-13.05 24.812-17.688l-274.65-22.09z" fill="#fff"></path>
</svg>
