<svg xmlns="http://www.w3.org/2000/svg" viewBox="0 0 512 512"><path d="M0 0h512v512H0z"/><path d="m102.5 26.029 90.03 345.75 289.22 23.25-90.06-345.75-289.19-23.251zm-18.906 1.565c-30.466 11.873-55.68 53.098-49.75 75.312l3.25 11.779c.667-1.76 1.3608-3.5213 2.0938-5.2793 9.91-23.71 26.56-46.77 50.376-58.91l-5.97-22.906zm10.844 41.594c-16.657 10.012-29.92 28.076-38 47.406-5.247 12.55-8.038 25.629-8.75 36.529l64.812 235.29c.294-.55.572-1.1043.875-1.6543 10.603-19.252 27.823-37.696 51.125-48.471l-70.062-269.09v-.002zm149.99 23.787c4.1769-.04568 8.3543.10339 12.529.44531 22.969 1.8811 42.48 8.7557 58.539 20.625 16.031 11.772 26.618 26.854 31.76 45.246 2.3123 8.2714 3.3732 15.917 3.1797 22.938-.12042 6.9311-1.3895 13.434-3.8066 19.512-2.2251 5.7129-5.1796 11.273-8.8633 16.676-3.5834 5.4115-8.1431 11.36-13.68 17.848-7.8757 9.3386-16.185 18.357-24.926 27.055-8.7682 8.6-16.975 16.579-24.619 23.939l120.51 9.8711 6.9785 24.959-151.65-12.42-8.5274-30.506 24.248-23.688c8.1835-7.8872 15.63-15.786 22.336-23.699 14.198-16.523 23.373-29.797 27.529-39.82 4.1289-10.121 4.4666-21.36 1.0117-33.719-3.1556-11.288-9.4794-20.411-18.971-27.369-9.4182-7.0468-20.997-11.132-34.738-12.258-9.1273-.74751-18.573.00093-28.334 2.2441-9.7613 2.2432-18.808 6.1611-27.143 11.754l-1.5059-.12304-8.5684-30.652c6.1692-2.8226 14.776-5.161 25.822-7.0137 6.9667-1.1528 13.931-1.7676 20.893-1.8438zm-75.12 263.8c-17.677 9.078-31.146 23.717-39.562 39-4.464 8.107-7.2695 16.364-8.6875 23.75l11.688 42.408 1.625.125c-3.84-27.548 11.352-60.504 41.25-81.094l-6.3125-24.189zm26.344 33.998v.002c-32.567 17.27-46.51 52.439-41.844 72.939l289.84 24.5c-5.34-7.79-8.6728-17.947-8.5938-28.5l-22.406-9 46.35-7.28-13.5-12.88c5.604-6.917 13.706-13.05 24.812-17.688l-274.65-22.09z" fill="#fff"></path>
</svg>
