<svg xmlns="http://www.w3.org/2000/svg" viewBox="0 0 512 512"><path d="M0 0h512v512H0z"/><path d="m102.5 26.029 90.03 345.75 289.22 23.25-90.06-345.75-289.19-23.251zm-18.906 1.565c-30.466 11.873-55.68 53.098-49.75 75.312l3.25 11.779c.667-1.76 1.3608-3.5213 2.0938-5.2793 9.91-23.71 26.56-46.77 50.376-58.91l-5.97-22.906zm10.844 41.594c-16.657 10.012-29.92 28.076-38 47.406-5.247 12.55-8.038 25.629-8.75 36.529l64.812 235.29c.294-.55.572-1.1043.875-1.6543 10.603-19.252 27.823-37.696 51.125-48.471l-70.062-269.09v-.002zm161.75 27.826c2.5053.03879 5.0932.16801 7.7637.38672 22.367 1.8318 41.675 8.5012 57.926 20.006s26.621 25.284 31.109 41.34c2.7476 9.8283 2.2955 19.253-1.3574 28.271-3.6801 8.9216-10.89 15.556-21.631 19.906l.24414.87695c15.674 6.9886 28.42 15.069 38.236 24.24 9.8161 9.1712 16.574 20.373 20.273 33.607 5.2503 18.781 2.0441 33.779-9.6191 44.994-11.563 11.224-28.78 15.898-51.648 14.025-24.273-1.9879-45.33-9.6553-63.174-23.002-17.743-13.338-29.268-29.495-34.572-48.471-3.3733-12.066-2.8098-22.669 1.6914-31.809 4.474-9.2369 12.479-16.188 24.014-20.854l-.24414-.875c-13.777-7.2136-24.609-14.757-32.494-22.629-7.7846-7.8638-13.227-17.342-16.328-28.436-4.5702-16.348-1.4586-29.405 9.3359-39.17 9.4453-8.5445 22.937-12.682 40.475-12.41zm6.8262 21.576c-9.332.10485-16.635 2.2596-21.91 6.4629-6.3918 5.1815-8.2006 12.735-5.4258 22.66 1.9587 7.0063 5.6653 13.252 11.119 18.738 5.5269 5.3969 12.961 10.429 22.301 15.092 4.2008 2.0555 10.156 4.7772 17.865 8.166 7.8099 3.397 15.283 6.2906 22.42 8.6816 8.1342-5.6092 13.142-11.712 15.021-18.309 1.8799-6.5969 1.5553-14.421-.97461-23.471-2.9108-10.412-9.3851-19.024-19.424-25.836-9.9656-6.9014-21.369-10.878-34.207-11.93-2.3696-.19406-4.6316-.28005-6.7852-.25586zm13.264 90.211c-7.694 4.0289-13.157 9.9047-16.389 17.627-3.1311 7.7305-3.2547 16.753-.3711 27.068 3.6725 13.137 11.37 24.368 23.092 33.695 11.722 9.3272 24.753 14.579 39.096 15.754 14.644 1.1993 25.31-1.4945 31.996-8.0781 6.7861-6.5754 8.3957-16.237 4.832-28.984-2.5027-8.9525-6.5575-16.272-12.166-21.961-5.5354-5.778-14.983-11.876-28.342-18.295-5.3126-2.5269-11.034-4.945-17.168-7.2539-6.1337-2.3089-14.327-5.4998-24.58-9.5723zm-106.97 147.98c-17.677 9.078-31.146 23.717-39.562 39-4.464 8.107-7.2695 16.364-8.6875 23.75l11.688 42.408 1.625.125c-3.84-27.548 11.352-60.504 41.25-81.094l-6.3125-24.189zm26.344 33.998v.002c-32.567 17.27-46.51 52.439-41.844 72.939l289.84 24.5c-5.34-7.79-8.6728-17.947-8.5938-28.5l-22.406-9 46.35-7.28-13.5-12.88c5.604-6.917 13.706-13.05 24.812-17.688l-274.65-22.09z" fill="#fff"></path>
</svg>
