<svg xmlns="http://www.w3.org/2000/svg" viewBox="0 0 512 512">
  <path d="M0 0h512v512H0z"/>
  <path d="m256.02 10.902c-.16304 0-2.0656 14.565-4.2938 32.336l-3.9672 32.336-5.9781 13.478c-3.2607 7.391-6.087 13.803-6.25 14.292-.10869.48911-4.6191 2.8808-10.38 5.5438l-10.162 4.6734-12.228 2.2281-12.227 2.2828-10.272-3.5875c-5.6519-2.0108-10.379-3.4787-10.542-3.3156-.16304.16303 1.1941 6.8475 2.9875 14.891l3.2609 14.673-2.5531 12.228-2.5 12.173-4.2938 6.7391c-2.3368 3.6955-4.836 7.6626-5.5969 8.9125-1.0869 1.739-3.8587 3.8037-14.184 10.597l-12.827 8.4234-11.141 2.3375c-6.141 1.3043-11.358 2.4991-11.63 2.6078-.21738.16304 3.6955 2.3373 8.6953 4.7828l9.1844 4.5656 13.206 12.119 13.206 12.119 7.6078 19.292 7.6078 19.294-.0531 13.695-.0547 13.748-2.4453 10.706c-1.3586 5.9236-2.6639 11.685-2.8813 12.772-.27172 1.1413-.37934 2.0641-.325 2.0641.1087 0 1.2488-1.521 2.5531-3.3688 1.3043-1.9021 8.804-12.391 16.63-23.369 7.8258-10.978 14.239-20.162 14.239-20.38 0-.27172-1.6311-2.2828-3.5875-4.5109-11.521-13.152-18.858-28.911-22.336-47.823-1.3043-7.2823-1.3043-26.411 0-33.694 3.8585-20.923 12.555-38.206 25.978-51.575 11.847-11.847 26.629-19.51 42.334-22.064 6.9019-1.0869 23.533-1.0869 30.434 0 40.053 6.4128 69.561 44.836 69.561 90.486 0 24.184-8.4779 47.443-23.586 64.67-1.9564 2.2282-3.5859 4.2392-3.5859 4.5109 0 .32608 27.879 39.673 32.444 45.814l1.1953 1.575-.48906-2.1734c-.27173-1.1956-1.6304-7.0111-2.9891-12.989l-2.4453-10.814v-13.641-13.641l7.5547-19.294 7.5531-19.238 13.206-12.173 13.261-12.119 9.1297-4.5656c5.0541-2.4456 8.967-4.6198 8.6953-4.7828-.21738-.10869-5.434-1.3035-11.575-2.6078l-11.142-2.3375-12.825-8.4234-12.825-8.3688-5.5984-8.9672-5.6516-8.9672-2.5-12.173-2.5547-12.173 3.2609-14.673c1.7934-8.0431 3.1521-14.728 2.9891-14.891-.16304-.16304-4.8903 1.3048-10.542 3.3156l-10.272 3.5328-12.5-2.2828-12.498-2.3375-9.8375-4.564-9.7812-4.5656-6.3047-14.509-6.3578-14.456-3.9672-32.227c-2.16-17.678-4.06-32.189-4.23-32.189zm0 138.04c-.21738 0-.81592 2.6092-1.3594 5.8156-.54345 3.2607-1.0316 5.9238-1.0859 5.9781-.0543.10868-2.1742.54336-4.7828.97812s-6.6845 1.5758-9.1844 2.4453c-2.4456.92387-4.5113 1.6297-4.5656 1.6297-.38041 0-10.434-11.357-10.652-12.009-.16303-.43476-.43384-.6521-.59687-.48906-.16304.16304.54243 2.7711 1.575 5.8688s1.8484 5.9246 1.8484 6.3594c0 .38042.217.81475.43438.92344.27173.0543.65259.81416.81562 1.575.32607 1.3043-.0543 1.7944-3.4781 4.6203-2.1195 1.739-5.2722 4.8902-7.0656 7.0641-3.3151 4.0759-3.4237 4.0772-6.1953 2.9359-2.2825-.97822-13.423-4.4033-13.641-4.1859-.10869.10869 1.3042 1.4674 3.2063 2.9891 1.8477 1.5217 4.457 3.8586 5.8156 5.2172 1.3043 1.3586 2.7165 2.5 3.0969 2.5 1.0326 0 .87046 1.3053-.59687 5.3812-1.2499 3.5868-2.1197 7.2817-2.7719 12.064l-.32656 2.5547-3.3688.325c-1.8478.21738-3.5864.54355-3.9125.76093-.27173.21739-.76143.38125-1.0875.38125-1.9564.1087-8.4234 1.5208-8.4234 1.8469 0 .38042 1.902.81631 11.902 2.6641l5.1625.92343.65312 4.0766c.70649 3.9129 1.8472 7.8244 3.6406 11.955l.81563 1.9031-3.8047 3.6406c-2.0651 2.0108-3.9123 3.6956-4.1297 3.75-.21737.0543-1.6849 1.2499-3.2609 2.7172-2.989 2.7173-2.7725 3.3689.59688 1.9016.97821-.38042 4.6738-1.6306 8.2062-2.7719l6.4672-2.0094 3.8594 4.075c2.989 3.0977 7.8802 7.3918 9.4562 8.3156.10869.0543-1.1415 4.0211-2.7719 8.8578-1.576 4.8368-2.7721 8.75-2.5547 8.75.16304 0 1.2506-1.142 2.3375-2.6094 1.0869-1.413 3.8043-4.51 5.9781-6.8469l3.9672-4.2938 3.9125 1.1953 3.9125 1.1953v12.827 12.88l1.9016 1.9562 1.8484 1.9016-1.25 82.606-1.25 82.605-2.7172 7.064-2.7719 7.0656-.32656 11.684-.325 11.739 6.9016 4.4562c6.5758 4.2933 6.9566 4.4563 10 4.4563 3.0433 0 3.4226-.16296 9.9984-4.4563l6.7937-4.5109-.32656-11.684-.325-11.684-2.7719-7.0656-2.7719-7.064-1.25-82.605-1.1953-82.606 1.8469-1.9016 1.9031-1.9016.10781-12.989.16407-12.989 3.5312-1.0312c1.9564-.54346 3.6963-.97969 3.8594-.97969.43476 0 8.7493 9.1846 10.869 11.956 1.4673 1.9021 2.6622 2.0662 1.6297.16406-.32607-.54346-1.1954-2.9354-1.9562-5.3266-.81518-2.3912-1.6298-4.8366-1.9016-5.4344-.54346-1.1956-1.6846-5.3257-1.4672-5.4344.0543-.0543 1.7392-1.3584 3.75-2.9344 2.8803-2.2282 7.3368-6.8479 8.9672-9.2391.21738-.27173 12.716 3.5318 15.216 4.6188 3.4238 1.5217 3.5333.8159.38125-2.1188-1.6847-1.5217-3.2069-2.8266-3.3156-2.8266-.10868 0-1.8474-1.5764-3.9125-3.5328l-3.75-3.5312.81562-1.9031c1.7934-4.1846 2.9341-8.0962 3.6406-11.955l.65312-4.0766 4.8906-.81563c2.6629-.43476 5.108-.97792 5.3797-1.1953.32607-.16303 1.9562-.48886 3.6953-.70625 1.6847-.21738 3.0984-.59824 3.0984-.81562 0-.38042-3.0981-1.0317-8.2609-1.8469-.38041-.0543-.97827-.21855-1.25-.43594-.32607-.21738-2.0648-.54355-3.9125-.76093l-3.3703-.325-.325-2.5547c-.65216-4.7824-1.5219-8.4773-2.7719-12.064-1.4673-4.0759-1.631-5.3812-.59844-5.3812.38042 0 1.7942-1.1414 3.0984-2.5 1.3586-1.3586 3.9663-3.6955 5.8141-5.2172 1.9021-1.5217 3.3165-2.8792 3.2078-3.0422-.21739-.16303-10.871 3.0978-13.642 4.2391-2.826 1.1412-2.8794 1.1408-6.3031-3.0438-1.7934-2.2282-5.0005-5.4353-7.0656-7.0656-3.3151-2.7173-3.6952-3.2066-3.4234-4.5109.21738-.76084.54355-1.6845.76094-1.9562.27172-.32608.7602-1.6304 1.1406-2.9891.81518-2.989.76089-2.7164 1.25-4.075 1.576-4.2933 1.903-5.3798 1.6312-5.6516-.21738-.16303-.49009-.00038-.65312.43438-.16304.43477-2.5541 3.3148-5.4344 6.4125-3.7498 4.1302-5.3791 5.544-6.0312 5.3266-3.6955-1.4673-10.598-3.533-12.827-3.8047-5.2715-.65215-4.8365-.16361-5.9234-6.7938-.54345-3.2607-1.1951-5.9781-1.4125-5.9781z" fill="#fff"></path>
</svg>
