<svg xmlns="http://www.w3.org/2000/svg" viewBox="0 0 512 512"><path d="M0 0h512v512H0z"/><path fill="#fff" d="M411.305 49.078c-.307-.003-.6.005-.875.024-2.212.147-3.34.653-4.576 1.89l-27.58 27.578 55.156 55.155 27.578-27.58c1.237-1.236 1.743-2.363 1.89-4.575.148-2.21-.372-5.432-1.806-9.162-2.87-7.46-9.277-16.667-17.055-24.445-7.778-7.778-16.985-14.185-24.445-17.055-3.264-1.255-6.138-1.81-8.287-1.83zm-45.758 42.22l-9.9 9.9 9.9 9.9 12.728 12.726v.002l9.9 9.9 12.727 12.727 9.9 9.9 9.9-9.9-55.155-55.156zm-22.627 22.626l-213.545 213.55 9.898 9.897L352.82 123.825l-9.9-9.9zm22.627 22.63L152 350.097l9.902 9.902 213.545-213.547-9.9-9.9zm22.63 22.626L174.628 372.727l9.897 9.898 213.55-213.545-9.9-9.9zM119.933 343.488l-12.12 30.305 30.393 30.394 30.305-12.12-6.612-6.612-12.726-12.728-9.9-9.9-12.73-12.727-6.61-6.612zm-19.395 48.487l-12.993 32.478 32.478-12.992-19.486-19.485z"/></svg>