<svg xmlns="http://www.w3.org/2000/svg" viewBox="0 0 512 512"><path d="M0 0h512v512H0z"/><path fill="#fff" d="M437.375 74.064C427.187 73.032 279.62 219.656 205.12 294.137l12.726 12.726c75.848-75.746 226.418-226.13 219.91-232.636-.092-.092-.22-.146-.38-.163zm-200.76 109.434c-9.55.854-65.027 57.702-95.804 84.436-3.514 3.515-3.514 9.213 0 12.728l33.942 33.942-53.78 53.777 22.628 22.63 53.78-53.78 33.94 33.942c3.515 3.514 9.212 3.514 12.727 0 28.048-32.29 90.313-90.873 84.146-96.873l-90.51 77.78-77.78-77.78 77.78-90.51c-.24-.24-.598-.334-1.068-.292zm-127.22 195.865l-9.9 9.9 23.22 23.22 9.902-9.897-23.222-23.223z"/></svg>