<?xml version="1.0" standalone="no"?>
<!DOCTYPE svg PUBLIC "-//W3C//DTD SVG 20010904//EN"
 "http://www.w3.org/TR/2001/REC-SVG-20010904/DTD/svg10.dtd">
<svg version="1.0" xmlns="http://www.w3.org/2000/svg"
 width="236.000000pt" height="422.000000pt" viewBox="0 0 236.000000 422.000000"
 preserveAspectRatio="xMidYMid meet">
<metadata>
Created by potrace 1.11, written by Peter Selinger 2001-2013
</metadata>
<g transform="translate(0.000000,422.000000) scale(0.100000,-0.100000)"
fill="#000000" stroke="none">
<path d="M568 3872 c-89 -101 -198 -243 -222 -290 l-17 -32 46 -64 c25 -35 45
-68 45 -73 0 -6 -35 -13 -77 -17 -42 -3 -78 -8 -81 -10 -13 -13 -54 -213 -66
-321 -12 -106 -12 -149 -1 -268 8 -78 22 -171 34 -207 11 -36 25 -84 31 -107
l11 -43 79 40 c44 22 80 37 80 34 0 -4 -23 -49 -51 -100 l-51 -94 44 -79 c52
-95 271 -353 277 -326 1 10 -2 43 -8 74 -25 134 21 319 108 434 50 67 66 74
154 76 48 1 62 5 77 23 l17 22 32 -55 c17 -29 31 -60 31 -67 0 -7 12 -28 26
-46 l26 -32 -1 -284 -1 -285 -32 -29 -31 -28 19 -32 c17 -28 19 -64 25 -371
11 -535 10 -1053 -1 -1060 -17 -10 -11 -35 8 -35 10 0 25 -13 35 -29 31 -53
135 -52 163 0 8 17 23 29 34 29 22 0 26 10 9 27 -7 7 -9 220 -7 704 l3 694 22
36 23 36 -29 27 -29 27 -7 285 -7 285 26 28 c14 15 26 31 26 37 0 15 63 134
72 134 4 0 12 -9 18 -20 9 -16 21 -20 69 -20 32 0 71 -5 88 -10 41 -15 113
-117 148 -210 25 -65 29 -89 29 -185 1 -60 -3 -129 -7 -152 -5 -24 -5 -43 0
-42 4 0 57 56 116 125 153 175 232 314 286 506 35 125 70 343 56 356 -2 2 -44
12 -94 21 -50 10 -93 20 -96 22 -2 3 41 20 96 38 80 26 99 36 95 49 -2 9 -7
49 -11 87 -12 128 -69 332 -121 430 -55 104 -162 248 -264 355 -71 75 -71 75
-66 40 16 -98 6 -230 -26 -332 -18 -60 -26 -71 -77 -111 -58 -45 -152 -87
-195 -87 -19 0 -27 -8 -38 -42 -24 -79 -58 -56 -58 40 0 27 -4 42 -12 42 -30
0 -96 112 -98 163 0 14 -9 17 -55 17 -54 0 -54 0 -64 -37 -6 -21 -11 -43 -11
-49 0 -6 -21 -33 -46 -60 -41 -44 -46 -55 -51 -107 -5 -52 -8 -58 -27 -55 -16
2 -23 13 -30 46 -7 34 -13 42 -31 42 -86 0 -235 94 -268 169 -29 66 -48 211
-41 309 4 45 5 82 3 82 -2 0 -39 -40 -81 -88z"/>
</g>
</svg>
