<?xml version="1.0" standalone="no"?>
<!DOCTYPE svg PUBLIC "-//W3C//DTD SVG 20010904//EN"
 "http://www.w3.org/TR/2001/REC-SVG-20010904/DTD/svg10.dtd">
<svg version="1.0" xmlns="http://www.w3.org/2000/svg"
 width="408.000000pt" height="1143.000000pt" viewBox="0 0 408.000000 1143.000000"
 preserveAspectRatio="xMidYMid meet">
<metadata>
Created by potrace 1.11, written by Peter Selinger 2001-2013
</metadata>
<g transform="translate(0.000000,1143.000000) scale(0.100000,-0.100000)"
fill="#000000" stroke="none">
<path d="M1905 10845 c-139 -63 -141 -64 -227 -156 -82 -88 -88 -97 -88 -136
l0 -43 -55 0 c-54 0 -55 1 -95 51 l-40 51 -27 -58 c-14 -32 -26 -63 -26 -69 0
-8 75 -147 89 -163 1 -2 14 4 28 15 22 15 25 23 20 56 l-6 37 56 0 c64 0 62 4
50 -119 l-7 -61 -88 0 -87 0 -41 51 -41 52 -26 -59 c-15 -33 -27 -64 -27 -69
0 -8 75 -147 89 -163 1 -2 14 4 28 15 22 15 25 23 20 56 l-6 37 91 0 91 0 0
-52 c0 -29 -3 -77 -6 -105 -6 -50 -9 -53 -35 -53 -21 0 -37 12 -68 51 l-41 52
-27 -59 c-14 -32 -26 -63 -26 -69 0 -8 75 -147 89 -163 1 -2 14 4 28 15 22 15
25 23 20 56 -6 36 -5 37 25 37 l31 0 0 -59 c0 -32 -3 -79 -6 -105 l-7 -46 -43
0 c-39 0 -45 4 -83 51 l-41 52 -26 -59 c-15 -33 -27 -64 -27 -69 0 -8 75 -147
89 -163 1 -2 14 4 28 15 22 15 25 23 20 56 l-6 37 46 0 46 0 0 -72 0 -73 114
-192 114 -191 -67 -1939 -67 -1938 -293 -452 -292 -452 -200 -548 -200 -548
-80 -448 -80 -449 47 -391 46 -392 181 -345 181 -345 140 -67 141 -67 251 -41
251 -40 313 0 313 0 251 40 251 41 130 61 c72 33 137 68 146 77 9 9 96 167
192 351 l175 335 46 392 47 391 -80 449 -80 448 -200 549 -201 549 -127 196
c-70 108 -201 311 -292 451 l-164 255 -67 1939 -67 1938 113 191 114 190 0 73
0 74 46 0 46 0 -6 -37 c-5 -33 -2 -41 20 -56 14 -11 27 -17 28 -15 14 16 89
155 89 163 0 6 -12 37 -26 69 l-27 59 -41 -52 c-38 -47 -44 -51 -83 -51 l-43
0 -7 46 c-3 26 -6 73 -6 105 l0 59 31 0 c30 0 31 -1 25 -37 -5 -33 -2 -41 20
-56 14 -11 27 -17 28 -15 12 13 89 155 89 163 0 6 -12 36 -27 69 l-26 59 -41
-52 c-31 -39 -47 -51 -68 -51 -26 0 -29 3 -35 53 -3 28 -6 76 -6 105 l0 52 91
0 91 0 -6 -37 c-5 -33 -2 -41 20 -56 14 -11 27 -17 28 -15 12 13 89 155 89
163 0 6 -12 36 -27 69 l-26 59 -41 -52 -41 -51 -87 0 -88 0 -7 61 c-12 123
-14 119 50 119 l56 0 -6 -37 c-5 -33 -2 -41 20 -56 14 -11 27 -17 28 -15 14
16 89 155 89 163 0 5 -12 36 -27 69 l-26 59 -41 -52 c-40 -50 -42 -51 -95 -51
l-54 0 0 43 c0 41 -5 49 -92 139 -92 95 -94 96 -231 157 -76 33 -144 61 -150
60 -7 0 -75 -29 -152 -64z m284 -7330 c242 -57 421 -284 421 -535 0 -301 -249
-550 -550 -550 -353 0 -616 334 -535 678 46 192 211 360 401 406 78 19 184 19
263 1z m-987 -356 c-19 -43 -28 -54 -30 -40 -2 12 -6 21 -10 21 -9 0 -76 -113
-101 -170 -25 -59 -45 -196 -39 -274 10 -120 110 -262 297 -419 228 -192 271
-272 271 -507 0 -83 -3 -103 -26 -148 -37 -74 -111 -137 -191 -162 -79 -24
-210 -27 -252 -5 -39 19 -91 93 -91 126 0 39 42 69 94 69 52 0 66 -13 66 -61
0 -45 9 -49 103 -49 148 0 207 78 207 273 0 96 -1 103 -36 166 -44 80 -98 144
-263 309 -143 143 -163 177 -186 308 -34 196 -14 372 55 475 32 49 132 149
149 149 5 0 -3 -27 -17 -61z m1784 10 c115 -109 154 -206 154 -379 0 -127 -22
-262 -52 -328 -15 -31 -66 -91 -149 -174 -165 -165 -219 -229 -263 -309 -35
-63 -36 -70 -36 -166 0 -195 59 -273 207 -273 94 0 103 4 103 49 0 48 14 61
66 61 52 0 94 -30 94 -69 0 -33 -52 -107 -91 -126 -42 -22 -173 -19 -252 5
-80 25 -154 88 -191 162 -23 45 -26 65 -26 149 0 233 44 315 271 506 96 81
137 123 201 208 65 86 90 140 96 211 6 78 -14 215 -39 274 -25 57 -92 170
-101 170 -4 0 -8 -9 -10 -21 -2 -14 -11 -3 -30 40 -14 34 -22 61 -17 61 6 0
35 -23 65 -51z m-366 -2099 l0 -120 -565 0 -565 0 0 120 0 120 565 0 565 0 0
-120z"/>
</g>
</svg>
