<?xml version="1.0" standalone="no"?>
<!DOCTYPE svg PUBLIC "-//W3C//DTD SVG 20010904//EN"
 "http://www.w3.org/TR/2001/REC-SVG-20010904/DTD/svg10.dtd">
<svg version="1.0" xmlns="http://www.w3.org/2000/svg"
 width="659.000000pt" height="1025.000000pt" viewBox="0 0 659.000000 1025.000000"
 preserveAspectRatio="xMidYMid meet">
<metadata>
Created by potrace 1.11, written by Peter Selinger 2001-2013
</metadata>
<g transform="translate(0.000000,1025.000000) scale(0.100000,-0.100000)"
fill="#000000" stroke="none">
<path d="M3301 9055 l-73 -595 -110 -248 c-60 -136 -112 -254 -115 -263 -2 -9
-85 -53 -191 -102 l-187 -86 -225 -41 -225 -42 -189 66 c-104 37 -191 64 -194
61 -3 -3 22 -126 55 -274 l60 -270 -47 -225 -46 -224 -79 -124 c-43 -68 -89
-141 -103 -164 -20 -32 -71 -70 -261 -195 l-236 -155 -205 -43 c-113 -24 -209
-46 -214 -48 -4 -3 68 -43 160 -88 l169 -84 243 -223 243 -223 140 -355 140
-355 -1 -252 -1 -253 -45 -197 c-25 -109 -49 -215 -53 -235 -5 -21 -7 -38 -6
-38 2 0 23 28 47 62 24 35 162 228 306 430 144 202 262 371 262 375 0 5 -30
42 -66 83 -212 242 -347 532 -411 880 -24 134 -24 486 0 620 71 385 231 703
478 949 218 218 490 359 779 406 127 20 433 20 560 0 737 -118 1280 -825 1280
-1665 0 -445 -156 -873 -434 -1190 -36 -41 -66 -78 -66 -83 0 -6 513 -730 597
-843 l22 -29 -9 40 c-5 22 -30 129 -55 239 l-45 199 0 251 0 251 139 355 139
354 243 224 244 223 168 84 c93 45 165 85 160 88 -4 2 -100 24 -213 48 l-205
43 -236 155 -236 154 -103 165 -104 165 -46 224 -47 224 60 270 c33 148 58
271 55 274 -3 3 -90 -24 -194 -61 l-189 -65 -230 42 -230 43 -181 84 -180 84
-116 267 -117 266 -73 593 c-40 325 -75 592 -78 592 -3 0 -38 -268 -79 -595z"/>
<path d="M3355 7003 c-10 -60 -19 -109 -20 -110 -1 -2 -40 -10 -88 -18 -48 -8
-123 -29 -169 -45 -45 -17 -83 -30 -84 -30 -7 0 -192 209 -196 221 -3 8 -8 12
-11 9 -3 -3 10 -51 29 -108 19 -57 34 -109 34 -117 0 -7 4 -15 8 -17 5 -1 12
-15 15 -29 6 -24 -1 -33 -64 -85 -39 -32 -97 -90 -130 -130 -61 -75 -63 -75
-114 -54 -42 18 -247 81 -251 77 -2 -2 24 -27 59 -55 34 -28 82 -71 107 -96
24 -25 50 -46 57 -46 19 0 16 -24 -11 -99 -23 -66 -39 -134 -51 -222 l-6 -47
-62 -6 c-34 -4 -66 -10 -72 -14 -5 -4 -14 -7 -20 -7 -36 -2 -155 -28 -155 -34
0 -7 35 -15 219 -49 l95 -17 12 -75 c13 -72 34 -144 67 -220 l15 -35 -70 -67
c-38 -37 -72 -68 -76 -69 -4 -1 -31 -23 -60 -50 -55 -50 -51 -62 11 -35 18 7
86 30 151 51 l119 37 71 -75 c55 -57 145 -136 174 -153 2 -1 -21 -74 -51 -163
-29 -89 -51 -161 -47 -161 3 0 23 21 43 48 20 26 70 83 110 126 l73 79 72 -22
72 -22 0 -236 0 -237 35 -36 34 -35 -23 -1520 -23 -1520 -50 -130 -51 -130 -6
-215 -6 -216 127 -82 c121 -79 128 -82 184 -82 56 0 63 3 184 82 l125 83 -6
215 -6 215 -51 130 -51 130 -23 1520 -22 1520 34 35 35 35 2 239 3 239 65 19
c36 10 68 18 71 18 8 0 161 -169 200 -220 27 -35 49 -38 30 -3 -6 10 -22 54
-36 98 -15 44 -30 89 -35 100 -10 22 -31 98 -27 100 1 1 32 25 69 54 53 41
135 126 165 170 4 5 234 -65 280 -85 63 -28 65 -15 7 39 -31 28 -59 52 -61 52
-2 0 -34 29 -72 65 l-69 65 15 35 c33 77 54 149 67 220 l12 75 90 15 c49 8 94
18 99 22 6 3 36 9 68 13 31 4 57 11 57 15 0 7 -57 19 -152 34 -7 1 -18 4 -23
8 -6 4 -38 10 -72 14 l-62 6 -6 47 c-12 88 -28 156 -51 222 -27 75 -30 99 -11
99 7 0 33 21 57 46 25 25 73 68 107 96 35 28 61 53 59 56 -4 3 -200 -57 -251
-78 -52 -21 -53 -21 -116 56 -33 41 -92 100 -130 130 -61 50 -68 59 -63 83 4
14 10 31 14 36 5 6 14 30 21 55 15 55 14 50 23 75 29 79 35 99 30 104 -4 3 -9
0 -12 -8 -3 -8 -47 -61 -100 -118 -69 -76 -99 -102 -111 -98 -68 27 -195 65
-236 70 -97 12 -89 3 -109 125 -10 60 -22 110 -26 110 -4 0 -15 -48 -25 -107z"/>
</g>
</svg>
