<svg xmlns="http://www.w3.org/2000/svg" viewBox="0 0 512 512">
  <path d="M0 0h512v512H0z"/>
  <path d="m248.51 9.9333c-6.719 3.0453-6.8157 3.0937-10.973 7.5408-3.9638 4.2538-4.2538 4.6888-4.2538 6.574v2.0786h-2.6586c-2.6103 0-2.6586-.04834-4.5922-2.4653l-1.9336-2.4653-1.3051 2.8036c-.67674 1.5468-1.2568 3.0453-1.2568 3.3354 0 .38671 3.6254 7.1058 4.3021 7.8792.0483.09668.67674-.19336 1.3535-.72508 1.0634-.72508 1.2085-1.1118.96677-2.707l-.29003-1.7885h2.707c3.0937 0 2.997-.19335 2.4169 5.7523l-.33836 2.9486h-4.2538-4.2054l-1.9819-2.4653-1.9819-2.5136-1.2568 2.852c-.72508 1.5952-1.3051 3.0937-1.3051 3.3354 0 .38671 3.6254 7.1058 4.3021 7.8792.0483.09668.67674-.19335 1.3535-.72508 1.0634-.72508 1.2085-1.1118.96677-2.707l-.29003-1.7885h4.3988 4.3988v2.5136c0 1.4018-.14501 3.7221-.29003 5.0755-.29003 2.4169-.43505 2.5619-1.6918 2.5619-1.0151 0-1.7885-.58006-3.287-2.4653l-1.9819-2.5136-1.3051 2.852c-.67674 1.5468-1.2568 3.0453-1.2568 3.3354 0 .38671 3.6254 7.1058 4.3021 7.8792.0483.09668.67674-.19335 1.3535-.72508 1.0634-.72508 1.2085-1.1118.96677-2.707-.29003-1.7402-.2417-1.7885 1.2085-1.7885h1.4985v2.852c0 1.5468-.14501 3.8187-.29003 5.0755l-.33837 2.2236h-2.0786c-1.8852 0-2.1752-.19335-4.0121-2.4653l-1.9819-2.5136-1.2568 2.852c-.72508 1.5952-1.3051 3.0937-1.3051 3.3354 0 .38671 3.6254 7.1058 4.3021 7.8792.0483.09668.67674-.19335 1.3535-.72508 1.0634-.72508 1.2085-1.1118.96677-2.707l-.29004-1.7885h2.2236 2.2236v3.4804 3.5287l5.5106 9.281 5.5106 9.2327-3.2387 93.728-3.2387 93.68-14.163 21.849-14.115 21.849-9.6677 26.49-9.6677 26.49-3.8671 21.656-3.8671 21.704 2.2719 18.9 2.2236 18.949 8.7493 16.677 8.7493 16.677 6.7674 3.2387 6.8157 3.2387 12.133 1.9819 12.133 1.9335h15.13 15.13l12.133-1.9335 12.133-1.9819 6.284-2.9486c3.4804-1.5952 6.6224-3.287 7.0574-3.7221.43504-.43505 4.6405-8.0725 9.281-16.967l8.4592-16.193 2.2236-18.949 2.2719-18.9-3.8671-21.704-3.8671-21.656-9.6677-26.538-9.716-26.538-6.139-9.4744c-3.3837-5.2206-9.716-15.033-14.115-21.801l-7.9275-12.326-3.2387-93.728-3.2387-93.68 5.4622-9.2327 5.5106-9.1843v-3.5287-3.5771h2.2236 2.2236l-.29003 1.7885c-.24169 1.5952-.0967 1.9819.96677 2.707.67674.53172 1.3051.82176 1.3535.72508.67674-.77342 4.3021-7.4925 4.3021-7.8792 0-.29003-.58006-1.7885-1.2568-3.3354l-1.3051-2.852-1.9819 2.5136c-1.8369 2.2719-2.1269 2.4653-4.0121 2.4653h-2.0786l-.33837-2.2236c-.14501-1.2568-.29003-3.5287-.29003-5.0755v-2.852h1.4985c1.4502 0 1.4985.04834 1.2085 1.7885-.24169 1.5952-.0967 1.9819.96677 2.707.67674.53172 1.3051.82176 1.3535.72508.58006-.62840 4.3021-7.4925 4.3021-7.8792 0-.29003-.58007-1.7402-1.3051-3.3354l-1.2568-2.852-1.9819 2.5136c-1.4985 1.8852-2.2719 2.4653-3.287 2.4653-1.2568 0-1.4018-.14502-1.6918-2.5619-.14502-1.3535-.29003-3.6737-.29003-5.0755v-2.5136h4.3988 4.3988l-.29003 1.7885c-.24169 1.5952-.0967 1.9819.96677 2.707.67674.53172 1.3051.82176 1.3535.72508.58006-.62840 4.3021-7.4925 4.3021-7.8792 0-.29003-.58007-1.7402-1.3052-3.3354l-1.2568-2.852-1.9819 2.5136-1.9819 2.4653h-4.2054-4.2538l-.33837-2.9486c-.58006-5.9456-.67674-5.7523 2.4169-5.7523h2.707l-.29004 1.7885c-.24168 1.5952-.0967 1.9819.96678 2.707.67674.53172 1.3051.82176 1.3535.72508.67675-.77342 4.3021-7.4925 4.3021-7.8792 0-.24169-.58007-1.7402-1.3052-3.3354l-1.2568-2.852-1.9819 2.5136c-1.9335 2.4169-2.0302 2.4653-4.5922 2.4653h-2.6103v-2.0786c0-1.9819-.24169-2.3686-4.4472-6.7191-4.4471-4.5922-4.5438-4.6405-11.166-7.5891-3.6737-1.5952-6.9608-2.9487-7.2508-2.9003-.33837 0-3.6254 1.4018-7.3475 3.0937zm13.73 354.32c11.698 2.7553 20.351 13.728 20.351 25.861 0 14.55-12.036 26.586-26.586 26.586-17.064 0-29.777-16.145-25.861-32.774 2.2236-9.281 10.199-17.402 19.384-19.625 3.7704-.91843 8.8943-.91843 12.713-.0483zm-47.71 17.209c-.91843 2.0786-1.3535 2.6103-1.4502 1.9335-.0967-.58006-.29003-1.0151-.48339-1.0151-.43504 0-3.6737 5.4623-4.8822 8.2176-1.2085 2.852-2.1752 9.4744-1.8852 13.245.48338 5.8006 5.3172 12.665 14.357 20.254 11.021 9.281 13.1 13.148 13.1 24.508 0 4.0121-.14502 4.9789-1.2568 7.1541-1.7885 3.577-5.3656 6.6224-9.2327 7.8308-3.8187 1.1601-10.151 1.3051-12.181.2417-1.8852-.91844-4.3988-4.4955-4.3988-6.0907 0-1.8852 2.0302-3.3354 4.5438-3.3354s3.1903.6284 3.1903 2.9486c0 2.1752.43505 2.3686 4.9789 2.3686 7.1541 0 10.006-3.7704 10.006-13.196 0-4.6405-.0483-4.9789-1.7402-8.0242-2.1269-3.8671-4.7372-6.9608-12.713-14.937-6.9124-6.9124-7.8792-8.5559-8.991-14.888-1.6435-9.4744-.67674-17.982 2.6586-22.961 1.5468-2.3686 6.3807-7.2024 7.2024-7.2024.24169 0-.14502 1.3051-.82176 2.9486zm86.236-.48338c5.5589 5.2689 7.4441 9.9577 7.4441 18.32 0 6.139-1.0634 12.665-2.5136 15.855-.72508 1.4985-3.1904 4.3988-7.2024 8.4109-7.9759 7.9758-10.586 11.07-12.713 14.937-1.6918 3.0453-1.7402 3.3837-1.7402 8.0242 0 9.426 2.852 13.196 10.006 13.196 4.5438 0 4.9789-.19335 4.9789-2.3686 0-2.3202.67673-2.9486 3.1903-2.9486s4.5438 1.4502 4.5438 3.3354c0 1.5952-2.5136 5.1722-4.3988 6.0907-2.0302 1.0634-8.3626.91843-12.181-.2417-3.8671-1.2085-7.4441-4.2538-9.2327-7.8308-1.1118-2.1752-1.2568-3.142-1.2568-7.2024 0-11.263 2.1269-15.227 13.1-24.459 4.6405-3.9154 6.6224-5.9456 9.716-10.054 3.142-4.1571 4.3505-6.7674 4.6405-10.199.29003-3.7704-.67674-10.393-1.8852-13.245-1.2085-2.7553-4.4471-8.2176-4.8822-8.2176-.19336 0-.38671.43505-.48339 1.0151-.0967.67674-.53172.14501-1.4502-1.9335-.67673-1.6435-1.0634-2.9486-.82175-2.9486.29003 0 1.6918 1.1118 3.142 2.4653zm-17.692 101.46v5.8006h-27.311-27.311v-5.8006-5.8006h27.311 27.311v5.8006z" fill="#fff"></path>
</svg>
