<svg xmlns="http://www.w3.org/2000/svg" viewBox="0 0 512 512">
  <path d="M0 0h512v512H0z"/>
  <path d="m152.06 16.355-1.2595 10.24-3.7237 7.0094c-9.2546 17.304-8.2141 15.881-16.976 22.78l-7.8855 6.188-5.0928 11.5c-2.7928 6.2975-5.1475 12.102-5.1475 12.869 0 .76665 1.9714 11.226 4.3809 23.273 4.2713 21.247 5.1475 27.983 3.7237 27.545-.43809-.16428-2.8476-8.5974-5.7499-20.097-2.738-10.952-5.1475-19.988-5.3118-20.207-.16428-.16428-.32856.43809-.32856 1.3143 0 .87617-2.8476 10.678-6.407 21.85l-6.407 20.261 2.0809 12.321c1.0952 6.7903 3.3404 19.878 4.9285 29.133 1.5881 9.3093 2.7928 16.866 2.6833 16.866-.10953 0-.43809-.54761-.76665-1.2595-.43809-1.0952-.49285-1.0404-.21905.38333.9857 4.8737.82141 4.8189-2.6833-1.3143-1.9714-3.4499-4.8737-8.707-6.4618-11.664-1.9714-3.669-2.9571-4.9832-3.0666-4.2166-.10952.60236.43808 10.35 1.2595 21.685l1.4238 20.645 4.1071 7.7213c2.9023 5.4761 6.0784 10.295 10.897 16.592 3.7237 4.9285 6.6808 8.926 6.5165 8.926-.16428 0-3.888-2.1357-8.2141-4.7094-4.3261-2.6285-7.9951-4.6547-8.1046-4.5451-.16429.10952 1.15 5.8594 2.8476 12.759l3.1214 12.54 13.69 7.3379c7.5022 4.0523 13.854 7.5022 14.128 7.776.21904.21904-4.7094-.43809-10.952-1.4238-6.2975-.98569-11.719-1.7523-12.102-1.6976-.65713.16428 12.376 20.371 14.019 21.63.5476.49285 2.9571.71189 6.626.76665 3.1761.0548 8.3784.21905 11.555.43809l5.7499.32856-4.6547 1.9714c-2.5738 1.0952-4.5999 2.2452-4.5451 2.5738.0548.32856-1.0404.71188-2.4642.93093-1.4238.16428-3.1214.65713-3.7785.98569-1.15.60237-.21904 1.15 10.459 6.5165l11.719 5.8594 7.9951-9.3093c4.3809-5.0928 7.9951-9.6926 7.9403-10.24 0-.49285-.43809-6.8451-.9857-14.074l-.98569-13.143 2.9023-13.088c1.6428-7.2284 3.0666-13.197 3.1761-13.362.16428-.10952 2.519.32856 5.3118.98569 4.6547 1.0952 6.3522 1.9166 11.828 5.7499.10952.0548-.93093 18.29-2.3 40.578-1.369 22.233-2.4642 41.837-2.4642 43.48 0 2.6285-.32857 3.5594-3.0666 7.9951-2.8476 4.7642-3.2309 5.1475-6.7903 7.0094-2.0809 1.15-4.8737 2.8476-6.188 3.8332-2.1357 1.6428-2.9023 1.8619-7.9951 2.3547-5.5856.54761-5.7499.54761-11.719-1.2595-3.3404-.9857-6.1332-1.7524-6.2427-1.6428-.10952.0548 5.6951 5.0928 12.814 11.171l13.033 11.007 20.207 30.83 20.207 30.83 8.8712 18.947c7.557 16.045 9.3641 20.481 12.102 29.297l3.2309 10.35.16428-3.5594c.0548-1.9714.60237-28.585 1.2595-59.142.60237-30.556 1.3143-57.334 1.5881-59.415.71189-5.4213.65713-19.604-.0548-21.466-.32856-.82141-1.3143-5.5856-2.1904-10.569-.87617-4.9832-2.2452-11.883-3.0666-15.333l-1.4785-6.2975-8.3784-12.431c-5.8046-8.6522-9.8022-15.278-13.033-21.85-2.6285-5.1475-4.5999-9.5284-4.3809-9.6926.38332-.43808 20.097.9857 20.809 1.5333.32857.21905 5.6404 4.1071 11.828 8.6522l11.281 8.2689 1.9714 6.188c1.0952 3.3952 2.1357 6.8451 2.3 7.7213.54761 2.1904 1.6428 1.8071 2.4095-.87617.38333-1.2595 1.4238-4.7094 2.3547-7.6117l1.6976-5.3666 11.281-8.2689c6.188-4.5999 11.555-8.4879 11.828-8.7617.65713-.49284 20.426-1.9166 20.809-1.4785.21904.16429-1.7523 4.5451-4.3809 9.6926-3.2309 6.5713-7.2284 13.197-13.033 21.85l-8.3784 12.431-1.4785 6.2975c-.82141 3.4499-2.1904 10.35-3.0666 15.333-.87618 4.9832-1.8619 9.7474-2.1904 10.569-.71189 1.8619-.76665 16.045-.0548 21.466.2738 2.0809.98569 28.859 1.5881 59.415.65713 30.556 1.2047 57.17 1.2595 59.142l.16429 3.5594 3.2309-10.405c2.738-8.7617 4.5451-13.252 12.102-29.297l8.8712-18.892 20.207-30.83 20.207-30.83 13.033-11.007c7.1189-6.0784 12.924-11.116 12.814-11.171-.10952-.10952-2.9023.65713-6.2427 1.6428-5.9689 1.8071-6.1332 1.8071-11.719 1.2595-5.0928-.49284-5.8594-.71189-7.9403-2.3547-1.3143-.93093-4.1071-2.6833-6.2427-3.8332-3.6142-1.9714-4.0523-2.4095-6.8451-7.0641-2.6285-4.3261-3.0118-5.3118-3.0118-7.776 0-2.7928-3.9975-70.97-4.6547-79.951l-.38333-4.4356 3.2856-2.1904c2.4095-1.6976 4.4904-2.519 8.2689-3.3952 2.7928-.65713 5.1475-1.0952 5.3118-.98569.10952.16428 1.5333 6.0237 3.1214 13.088l2.9571 12.814-.98569 14.183c-.54761 7.8308-.82141 14.457-.65713 14.785.21904.32857 3.8332 4.5999 7.9951 9.4736l7.6118 8.8712 11.719-5.8594c10.678-5.3666 11.609-5.9142 10.459-6.5165-.65713-.32856-2.3547-.82141-3.7785-.98569-1.4238-.21905-2.519-.60237-2.4642-.93093.0548-.32857-1.9714-1.4785-4.5451-2.5738l-4.6547-1.9714 5.7499-.32856c3.1761-.21904 8.3784-.38332 11.555-.43809 3.669-.0548 6.0784-.2738 6.626-.76665 1.6428-1.2595 14.676-21.466 14.019-21.63-.38332-.0548-5.8046.71189-12.102 1.6976-6.2427.98569-11.171 1.6428-10.952 1.4238.27381-.27381 6.626-3.7237 14.128-7.776l13.69-7.3379 3.1214-12.54c1.6976-6.8998 3.0118-12.65 2.8476-12.759-.10952-.10952-3.7237 1.9166-7.9951 4.4904-4.3261 2.5738-7.9403 4.5999-7.9951 4.4904-.10952-.10952 2.8476-4.2166 6.5713-9.145 4.7094-6.188 7.9951-11.171 10.678-16.373l3.9428-7.5022 1.4238-20.59c.82141-11.335 1.369-21.083 1.2595-21.685-.10952-.76665-1.0952.5476-3.0666 4.2166-1.5881 2.9571-4.4904 8.2141-6.4618 11.664-3.5047 6.1332-3.669 6.188-2.6833 1.3143.2738-1.4238.21904-1.4785-.21905-.38333-.32856.71189-.65712 1.2595-.76665 1.2595-.10952 0 1.0952-7.557 2.6833-16.866 1.5881-9.2546 3.8332-22.342 4.9285-29.133l2.0809-12.321-6.407-20.261c-3.5594-11.171-6.407-20.973-6.407-21.85 0-.87617-.16428-1.4785-.32856-1.3143-.16428.21904-2.5738 9.2546-5.3118 20.207-2.9023 11.5-5.3118 19.933-5.6951 20.097-1.4785.43808-.60237-6.2975 3.669-27.545 2.4095-12.047 4.3809-22.507 4.3809-23.273 0-.76665-2.3547-6.5713-5.1475-12.869l-5.0928-11.5-7.8855-6.188c-8.8165-6.8999-7.4475-5.1475-17.195-23.273l-3.5047-6.5165-1.3143-10.185c-.76665-5.6404-1.369-9.0355-1.4238-7.6117 0 1.4785-.32856 7.3927-.65712 13.197l-.54761 10.514 2.0262 11.774c1.9714 11.555 2.0809 11.938 7.7213 27.052l5.7499 15.333.87617 9.7474c.82141 9.145.82141 10.131-.10952 16.373-.49285 3.669-2.6285 14.457-4.6547 23.985l-3.669 17.304-11.39 13.252c-10.295 11.993-11.555 13.307-13.635 13.854-1.2595.32856-3.4499.87617-4.8737 1.3142-1.8071.54761-4.3809.65713-8.8712.43809l-6.3522-.32856-3.1214-3.6142c-1.6976-1.9714-3.2856-3.8332-3.5594-4.1618-.2738-.2738-1.6976.71189-3.6142 2.519-1.6976 1.6428-3.888 3.669-4.8737 4.5451l-1.6976 1.5333-4.6547-7.0094c-3.9975-6.1332-6.5165-9.0355-19.002-22.014l-14.347-14.895-4.0523-8.8712c-2.2452-4.8189-4.0523-9.4736-4.0523-10.295 0-.93094-.2738-1.4785-.82141-1.4785-.5476 0-.82141.5476-.82141 1.4785 0 .82141-1.8071 5.4761-4.0523 10.295l-4.0523 8.8165-14.731 15.388c-12.704 13.307-15.278 16.319-19.057 22.178l-4.4356 6.7903-5.038-4.7094c-2.7928-2.5738-5.3118-4.4904-5.5308-4.2166-.21904.27381-1.8071 2.1357-3.5047 4.1071l-3.1214 3.6142-6.3522.32856c-4.4904.21904-7.0641.10952-8.8712-.43809-1.4238-.43808-3.6142-.98569-4.8737-1.3142-2.0809-.54761-3.3404-1.8619-13.635-13.854l-11.335-13.197-3.7237-17.359c-2.0262-9.5831-4.1618-20.371-4.6547-23.985-.93093-6.2427-.93093-7.2284-.10952-16.373l.87617-9.7474 5.6951-15.333c5.6951-15.114 5.8046-15.497 7.776-27.052l2.0262-11.719-.60237-12.376c-.32856-6.7903-.65712-12.759-.71189-13.197-.0548-.43809-.65712 3.7785-1.369 9.3641z" fill="#fff"></path>
</svg>
