<svg xmlns="http://www.w3.org/2000/svg" viewBox="0 0 512 512">
  <path d="M0 0h512v512H0z"/>
  <path d="m259.97 12.302c-.29909.05982-2.1534.29909-4.0676.53836-4.4863.47854-5.2041 1.316-5.2041 5.8621 0 2.0338-.29909 5.563-.59818 7.8959-.29908 2.2731-.59817 6.2809-.65799 8.853l-.17945 4.6658 3.1105 2.9311c4.8452 4.6658 4.8452 4.3667.29908 10.947-3.7087 5.3836-3.948 5.9818-4.1274 9.3914-.0598 2.0338-.29908 3.8283-.47854 4.0078-.17945.17945-5.922.05982-12.741-.23927l-12.44-.598-28.41-16.928-28.41-16.929-9.87-1.615c-8.2548-1.4356-9.9297-1.5553-10.468-.89726-.29909.47854-5.3238 2.5722-11.066 4.7256-5.7425 2.1534-14.775 5.563-20.039 7.537-10.767 4.1274-16.45 6.1014-21.235 7.3576-1.7945.47854-9.3316 2.632-16.749 4.7854s-14.655 4.1872-16.031 4.606l-2.632 0.658 5.8023 4.1274c3.6489 2.632 11.425 9.511 20.876 18.663 8.2548 7.9558 17.168 16.569 19.8 19.082l4.7854 4.5461 16.45 4.3069c13.938 3.6489 20.338 5.7425 41.513 13.579 13.818 5.1443 26.439 9.8699 28.114 10.528 2.5124 1.0169 4.0078 1.1365 8.4343.95708l5.3836-.29909 11.365-6.5799c9.3316-5.4434 12.622-6.9987 18.364-8.7932 3.8283-1.1964 7.2379-2.1534 7.5968-2.1534.41872 0 .59817 2.632.47854 8.195-.0598 6.3407.3589 11.964 1.8544 24.406 1.0767 8.853 2.0936 16.809 2.2132 17.646.23927 1.316 1.974 17.287 2.2731 20.637.11964 1.0169-.23927 1.1964-2.5722 1.2562-6.5201.11963-16.091-1.4356-23.987-3.8882-4.4265-1.3758-8.6736-2.7516-9.4512-3.1105-3.29-1.3758-2.9311.35891 2.2731 10.707 2.7516 5.5032 5.264 10.289 5.6229 10.707.35891.53836 1.7945-.59818 5.0845-4.0676l4.606-4.7854 5.0845.71781c2.8114.41873 5.264.89727 5.5032 1.0767.23927.17946.0598 4.2471-.41873 9.0325-.47854 4.7854-.89726 9.2717-.89726 9.9896 0 .71782-.83745 2.2731-1.7945 3.4096-1.7347 1.9142-1.7945 2.2133-1.2562 4.6658.3589 1.4356.89726 10.887 1.2562 21.116.3589 10.169.77763 20.398.95708 22.731.11963 2.2731.47854 11.186.83745 19.74.29909 8.5539.95708 22.97 1.4356 32.002 1.1365 21.355 1.3758 25.183 2.7516 56.827.658 14.655 1.316 29.43 1.4954 32.9.17945 3.4694.71781 14.954 1.1964 25.602l.89726 19.261 4.4863 22.312c2.4525 12.203 4.606 22.491 4.6658 22.791.11963.35891.65799-1.7945 1.1964-4.7854.59818-2.9311 2.5123-12.98 4.3667-22.372l3.29-17.048 1.1365-29.909c.59818-16.45 1.5553-42.052 2.0338-56.827.53836-14.835 1.0767-30.268 1.2562-34.395.17946-4.1274.53836-13.938.89727-21.833.29909-7.8959.71781-18.663.89726-23.927 1.6151-47.914 2.0338-60.954 1.974-61.253-.0598-.17946.11963-1.6749.3589-3.29.41873-2.632.29909-3.0507-1.1964-4.606-1.5553-1.6151-1.7347-2.3329-2.6918-11.724-.59817-5.563-.89726-10.229-.65799-10.468.23927-.23928 2.8114-.71782 5.7425-1.1365l5.3836-.658 4.1872 4.5462c2.3329 2.5123 4.3667 4.5461 4.5462 4.5461.17945 0 2.7516-4.8452 5.6827-10.767 3.4096-6.879 5.1443-10.947 4.7854-11.306-.35891-.35891-4.1872.59818-10.348 2.632-8.3146 2.6918-11.126 3.3498-18.543 4.1274-4.7854.53836-8.9128.77763-9.1521.53836-.29909-.29909-.11964-3.7087.35891-7.6567.47854-3.948 1.6749-15.014 2.6918-24.525.95708-9.5708 2.0936-19.441 2.4525-22.013.3589-2.632.41872-7.0585.17945-10.289-.29909-4.3069-.23927-5.6827.3589-5.6827 2.9909 0 10.528 3.3498 20.577 9.1521l11.306 6.5799 5.2041.29909 5.2041.29909 27.755-10.348c27.217-10.169 29.37-10.827 58.083-18.364 3.8881-1.0767 4.247-1.316 11.964-8.853 26.26-25.662 31.344-30.387 36.668-34.156 3.7087-2.632 5.4434-4.1872 4.9649-4.4863-.41872-.17945-4.7854-1.4954-9.7503-2.9311-4.905-1.3758-10.169-2.8712-11.664-3.3498-1.4954-.41872-6.1612-1.7945-10.468-2.9909-8.2548-2.2731-25.841-8.6137-46.06-16.51-1.6151-.65799-3.8283-1.4356-4.8452-1.7347-1.0767-.29909-2.5123-1.0767-3.29-1.6749-1.4356-1.0767-1.6151-1.0767-11.006.47854l-9.6306 1.5553-11.006 6.5201c-6.1014 3.5891-15.612 9.2717-21.235 12.622-5.563 3.3498-13.459 8.0156-17.527 10.468l-7.3576 4.3667-9.9896.47854c-7.5968.35891-10.049.35891-10.408-.23927-.23927-.41872-.47854-2.2133-.47854-4.0078 0-3.0507-.29909-3.6489-3.8882-8.6736-2.1534-2.9909-3.8882-5.8023-3.8882-6.2809 0-.47854 1.6151-2.5123 3.5891-4.4863l3.6489-3.7087-.95708-11.904c-1.1964-15.194-1.0767-14.596-3.3498-14.596-1.0169 0-2.2731-.23927-2.8114-.53836-.53836-.23927-1.2562-.41872-1.6151-.29909zm-74.473 75.31c10.348 6.5201 18.962 11.964 19.082 12.083.658.47854-.65799.71782-6.221 1.0767l-5.9818.41873-22.731-7.537c-12.502-4.1274-23.149-7.7165-23.628-7.8959-.95708-.41872 18.962-10.468 20.039-10.109.35891.05982 9.0923 5.5032 19.441 11.964zm171.43-7.596c5.5032 2.5722 10.109 4.9649 10.229 5.264.0598.29909-10.408 4.0078-23.329 8.2548l-23.508 7.7165-5.6229-.41872c-5.922-.41872-6.8192-.71781-5.3836-1.5553.71782-.47854 37.207-23.688 37.446-23.867.0598-.05982 4.606 2.0338 10.169 4.606z" fill="#fff"></path>
</svg>
