<svg xmlns="http://www.w3.org/2000/svg" viewBox="0 0 512 512">
  <path d="M0 0h512v512H0z"/>
  <path d="m171.28 17.28c-11.698 13.275-26.025 31.94-29.18 38.118l-2.2345 4.2061 6.0463 8.4122c3.286 4.6004 5.9148 8.9379 5.9148 9.5952 0 .78864-4.6004 1.7087-10.121 2.2345-5.5205.39432-10.252 1.0515-10.647 1.3144-1.7087 1.7087-7.0978 27.997-8.6751 42.192-1.5773 13.933-1.5773 19.585-.13144 35.226 1.0515 10.252 2.8917 22.476 4.469 27.208 1.4458 4.7318 3.286 11.041 4.0746 14.064l1.4458 5.6519 10.384-5.2576c5.7834-2.8917 10.515-4.8633 10.515-4.469 0 .52576-3.0231 6.4406-6.7035 13.144l-6.7035 12.355 5.7834 10.384c6.8349 12.487 35.62 46.398 36.409 42.85.13144-1.3144-.26288-5.6519-1.0515-9.7266-3.286-17.613 2.7602-41.929 14.196-57.045 6.572-8.8065 8.6751-9.7266 20.242-9.9895 6.3091-.13144 8.1493-.65721 10.121-3.0231l2.2345-2.8917 4.2061 7.2292c2.2345 3.8118 4.0746 7.8864 4.0746 8.8065 0 .92008 1.5773 3.6803 3.4174 6.0463l3.4174 4.2061-.13144 37.329-.13144 37.461-4.2061 3.8118-4.0747 3.6803 2.4974 4.2061c2.2345 3.6803 2.4974 8.4122 3.286 48.764 1.4458 70.321 1.3144 138.41-.13144 139.33-2.2345 1.3144-1.4458 4.6004 1.0515 4.6004 1.3144 0 3.286 1.7087 4.6004 3.8118 4.0746 6.9663 17.744 6.8349 21.425 0 1.0515-2.2345 3.0231-3.8118 4.469-3.8118 2.8917 0 3.4174-1.3144 1.183-3.5489-.92008-.92009-1.183-28.917-.92008-92.534l.39432-91.22 2.8917-4.7319 3.0231-4.7318-3.8118-3.5489-3.8118-3.5489-.92009-37.461-.92008-37.461 3.4174-3.6803c1.8402-1.9716 3.4174-4.0746 3.4174-4.8633 0-1.9716 8.2808-17.613 9.4637-17.613.52576 0 1.5773 1.183 2.3659 2.6288 1.183 2.103 2.7602 2.6288 9.0694 2.6288 4.2061 0 9.3323.6572 11.567 1.3144 5.3891 1.9716 14.853 15.379 19.453 27.602 3.286 8.5436 3.8118 11.698 3.8118 24.316.13144 7.8864-.39432 16.956-.92009 19.979-.6572 3.1546-.6572 5.6519 0 5.5205.52577 0 7.4921-7.3607 15.247-16.43 20.11-23.002 30.494-41.272 37.592-66.509 4.6004-16.43 9.2008-45.084 7.3607-46.793-.26288-.26288-5.7834-1.5773-12.355-2.7602-6.572-1.3144-12.224-2.6288-12.618-2.8917-.26288-.39432 5.3891-2.6288 12.618-4.9947 10.515-3.4174 13.013-4.7318 12.487-6.4406-.26288-1.183-.92008-6.4406-1.4458-11.435-1.58-16.82-9.07-43.634-15.9-56.515-7.23-13.67-21.3-32.597-34.7-46.661-9.34-9.8584-9.34-9.8584-8.68-5.258 2.103 12.881.78865 30.231-3.4174 43.638-2.3659 7.8864-3.4174 9.3323-10.121 14.59-7.6235 5.9148-19.979 11.435-25.631 11.435-2.4974 0-3.5489 1.0515-4.9947 5.5205-3.1546 10.384-7.6235 7.3607-7.6235-5.2576 0-3.5489-.52576-5.5205-1.5773-5.5205-3.9432 0-12.618-14.721-12.881-21.425 0-1.8402-1.183-2.2345-7.2292-2.2345-7.0978 0-7.0978 0-8.4122 4.8633-.78865 2.7602-1.4458 5.6519-1.4458 6.4406 0 .78864-2.7602 4.3375-6.0463 7.8864-5.389 5.7834-6.0463 7.2292-6.7035 14.064-.6572 6.8349-1.0515 7.6235-3.5489 7.2292-2.103-.26288-3.0231-1.7087-3.9432-6.0463-.92008-4.469-1.7087-5.5205-4.0746-5.5205-11.304 0-30.888-12.355-35.226-22.213-3.8118-8.6751-6.3091-27.734-5.389-40.615.52576-5.9148.6572-10.778.39432-10.778s-5.1262 5.2576-10.647 11.567z" fill="#fff"></path>
</svg>
