<?xml version="1.0" standalone="no"?>
<!DOCTYPE svg PUBLIC "-//W3C//DTD SVG 20010904//EN"
 "http://www.w3.org/TR/2001/REC-SVG-20010904/DTD/svg10.dtd">
<svg version="1.0" xmlns="http://www.w3.org/2000/svg"
 width="601.000000pt" height="944.000000pt" viewBox="0 0 601.000000 944.000000"
 preserveAspectRatio="xMidYMid meet">
<metadata>
Created by potrace 1.11, written by Peter Selinger 2001-2013
</metadata>
<g transform="translate(0.000000,944.000000) scale(0.100000,-0.100000)"
fill="#000000" stroke="none">
<path d="M3355 8859 c-245 -18 -420 -56 -673 -149 -46 -16 -91 -30 -99 -30 -9
0 -24 -6 -32 -14 -9 -7 -55 -34 -103 -59 -49 -25 -101 -55 -117 -66 -16 -12
-32 -21 -36 -21 -4 0 -51 -30 -104 -67 -349 -243 -635 -579 -791 -933 -129
-290 -170 -496 -170 -842 0 -202 9 -273 51 -423 36 -130 44 -152 76 -225 113
-261 248 -442 469 -629 100 -84 132 -108 264 -194 92 -59 93 -60 208 -121 142
-77 208 -121 228 -152 14 -21 18 -53 20 -165 2 -126 1 -139 -15 -139 -18 0
-81 -59 -81 -76 0 -5 -17 -27 -39 -48 l-38 -38 -7 -141 c-12 -275 -10 -667 9
-1612 1 -44 5 -187 10 -319 l8 -238 -24 7 c-65 21 -130 57 -184 103 -33 29
-63 52 -67 52 -4 0 -17 18 -28 39 -14 29 -17 42 -8 47 7 5 2 15 -17 30 -22 17
-26 26 -18 36 6 7 17 41 24 76 13 62 13 63 -20 129 -28 57 -34 81 -38 157 -4
80 -16 126 -31 112 -9 -10 -42 15 -42 31 0 9 30 46 68 82 76 74 114 139 138
231 17 67 12 145 -9 153 -19 7 -119 -9 -161 -27 -47 -20 -46 -20 -46 0 0 9 23
43 51 77 27 33 58 76 68 96 43 84 50 215 15 283 -22 42 -78 63 -133 49 -24 -7
-55 -20 -69 -31 -35 -28 -59 -25 -77 11 -15 27 -15 35 -1 83 22 74 39 241 31
306 -10 94 -52 216 -88 262 -8 10 -33 26 -57 37 -61 27 -91 14 -133 -58 -18
-31 -40 -57 -49 -59 -28 -5 -73 56 -93 125 -3 11 -24 50 -47 85 -22 34 -53 90
-68 123 -37 82 -109 159 -183 197 -57 28 -64 29 -114 19 -76 -15 -106 -42
-146 -130 -38 -84 -84 -264 -107 -420 -8 -60 -6 -185 5 -241 8 -43 -6 -52 -90
-56 -42 -2 -81 -6 -86 -9 -17 -11 -48 -91 -55 -142 -18 -140 82 -347 219 -451
29 -22 63 -50 77 -64 14 -13 45 -38 70 -55 47 -32 96 -80 89 -87 -2 -2 -34
-18 -72 -36 -37 -17 -73 -41 -79 -53 -22 -39 -38 -91 -38 -125 0 -89 146 -202
260 -202 21 0 54 -7 75 -16 22 -9 74 -16 124 -18 101 -3 180 -29 147 -49 -56
-36 -68 -50 -61 -76 11 -42 51 -87 100 -111 25 -12 47 -26 50 -30 6 -10 203
-150 211 -150 3 0 44 -19 92 -42 66 -32 99 -42 136 -42 48 1 50 -1 140 -90 51
-50 109 -104 129 -119 21 -16 59 -50 86 -77 26 -26 66 -57 87 -68 l39 -20 3
-217 c3 -238 -8 -312 -55 -368 -13 -16 -23 -35 -23 -42 0 -8 -9 -16 -19 -20
-36 -11 -91 -82 -91 -118 0 -18 -5 -38 -11 -44 -8 -8 -14 -73 -17 -180 l-4
-168 66 -58 c36 -32 86 -67 110 -78 49 -21 116 -85 116 -110 0 -8 13 -27 28
-42 26 -25 35 -27 109 -27 45 0 85 5 88 10 3 6 48 10 98 10 144 1 209 43 261
172 45 111 60 335 27 404 -14 29 -20 66 -22 132 l-3 93 125 124 c68 68 126
120 127 115 6 -15 22 -12 22 4 0 8 18 35 40 61 22 25 44 63 50 84 l10 39 31
-30 c38 -38 61 -35 181 21 48 23 89 41 92 41 8 0 205 140 211 150 3 4 25 18
50 30 49 24 89 69 100 111 7 26 -5 40 -61 76 -33 20 46 46 147 49 50 2 102 9
124 18 21 9 54 16 75 16 114 0 260 113 260 202 0 46 -22 103 -51 134 -13 15
-50 38 -81 51 -32 14 -58 29 -58 33 0 10 87 90 98 90 5 0 26 16 48 36 21 20
62 54 91 76 138 106 237 311 219 451 -7 51 -38 131 -55 142 -5 3 -44 7 -86 9
-84 4 -99 13 -90 56 16 77 11 236 -9 330 -55 253 -101 381 -153 426 -15 13
-52 29 -82 35 -53 11 -58 10 -118 -20 -76 -39 -141 -109 -182 -195 -16 -35
-48 -91 -70 -126 -22 -34 -43 -72 -46 -83 -20 -69 -65 -130 -93 -125 -9 2 -31
28 -49 59 -41 72 -72 85 -132 58 -48 -21 -73 -48 -94 -99 -22 -52 -45 -138
-52 -195 -8 -62 10 -239 31 -310 14 -49 14 -57 -1 -84 -18 -36 -42 -39 -77
-11 -14 11 -45 24 -69 31 -55 14 -111 -7 -133 -49 -35 -68 -28 -199 15 -283
10 -20 41 -63 68 -96 28 -34 51 -68 51 -77 0 -20 1 -20 -46 0 -42 18 -142 34
-161 27 -21 -8 -26 -86 -9 -153 24 -92 62 -157 139 -231 37 -36 67 -73 67 -82
0 -16 -33 -41 -42 -31 -15 14 -27 -32 -31 -112 -4 -77 -10 -101 -37 -154 -33
-66 -34 -73 -14 -179 4 -22 3 -32 -3 -28 -6 4 -20 -16 -32 -44 -12 -27 -46
-80 -76 -117 -53 -65 -171 -170 -181 -160 -5 5 -12 375 -18 873 -2 132 -7 248
-11 259 -4 10 -5 188 0 395 12 593 13 952 3 1008 -6 37 -4 98 7 201 18 181 19
245 2 295 -15 40 -82 117 -104 117 -17 0 -16 34 1 185 28 236 41 454 28 467
-7 7 -12 19 -12 28 0 9 -10 26 -23 38 -21 20 -34 22 -130 22 l-106 0 -98 78
c-54 43 -147 116 -208 163 -141 108 -215 177 -280 264 -222 296 -327 620 -295
910 54 482 355 961 769 1220 9 6 27 17 41 26 14 9 54 32 90 51 36 19 74 39 85
46 68 39 347 134 460 157 33 6 76 17 95 23 94 31 347 60 608 68 156 6 205 10
209 21 4 10 35 13 132 13 133 0 265 -21 383 -61 31 -10 69 -19 83 -19 15 0 81
-13 148 -29 67 -16 149 -35 182 -41 112 -22 240 -53 296 -71 31 -11 78 -19
105 -19 l49 1 -36 32 c-20 18 -53 52 -73 76 -77 93 -227 201 -325 236 -23 8
-84 39 -136 70 -52 30 -97 55 -101 55 -3 0 -34 13 -68 28 -128 60 -419 125
-676 152 -285 29 -543 36 -765 19z"/>
</g>
</svg>
