<svg xmlns="http://www.w3.org/2000/svg" viewBox="0 0 512 512">
  <path d="M0 0h512v512H0z"/>
  <path d="m34.125 32.83c-.32414 0-2.9173 1.6207-5.8345 3.5656-3.6466 2.5121-6.2397 5.1863-8.6708 8.8328-1.9448 2.9173-3.4845 5.5914-3.4845 5.9156.08103 1.2155 7.6984 5.6725 11.426 6.7259 3.4035.89139 4.4569 1.7828 10.129 8.8328 3.4845 4.2949 14.019 15.235 23.338 24.392 9.4001 9.0759 20.745 20.097 25.121 24.392l8.1035 7.8604-3.6466.72932-3.5656.72932.16207 3.3224c.16207 3.2414 0 3.5656-6.7259 9.4811-3.8087 3.4035-9.6432 8.2656-12.966 10.697-5.7535 4.3759-6.4828 5.4294-6.969 10.048-.24311 1.7828.24310 2.1069 5.0242 3.4035 8.6708 2.35 8.5897 2.35 9.238-4.2138l.56725-5.6725 9.3191-8.1846c10.21-8.9139 9.4811-8.7518 16.774-5.1052 3.8897 2.0259 4.0518 2.4311 3.0793 5.9156-.48621 1.7828 1.9448 4.3759 23.824 25.202 24.149 23.095 29.821 28.362 30.55 28.362.24311 0 .32414-5.7535.16207-12.804-.16207-6.969-.2431-17.504-.32414-23.257v-10.535l-14.343-15.235-14.343-15.316-3.3224.48621-3.3224.56725-2.5121-5.3483-2.5121-5.3483 8.1846-9.5622 8.2656-9.5622 5.5914-.48621c2.9983-.24311 5.6725-.64828 5.8345-.81035.16207-.16207-.2431-3.2414-.97242-6.888-1.2966-6.4018-1.4586-6.6449-3.6466-6.6449-4.0518 0-6.1587 1.3776-10.21 7.0501-2.269 2.9983-6.888 8.6708-10.291 12.56-6.0776 6.969-6.4018 7.1311-9.8863 7.1311s-3.5656 0-4.0518 3.2414c-.48621 2.9983-1.4586 4.2138-2.1069 2.5121-.73-1.94-47.565-49.023-54.615-54.938-7.456-6.159-8.347-7.212-9.563-11.102-1.296-4.052-5.672-11.102-6.807-10.94zm375.44 28.362-2.6742 2.4311c-1.7828 1.5397-3.4845 2.35-5.2673 2.35-2.35 0-4.7 2.1069-23.338 20.826-18.476 18.638-20.826 21.312-21.717 24.635-.89138 3.2414-2.9983 5.6725-17.179 19.854l-16.126 16.126v10.616c0 5.8345.16207 10.778.40517 10.94.16207.2431 9.8863-9.157 21.636-20.826 19.854-19.773 21.636-21.312 25.769-22.609 2.4311-.81035 4.9432-1.7828 5.5104-2.269.72931-.56725 1.2966-.56725 1.6207 0 .89139 1.2966 9.8863 13.695 15.316 20.988 2.7552 3.7276 5.2673 7.2121 5.5104 7.6173.32414.48622 1.3776 5.8345 2.35 11.993 1.7017 10.048 1.7828 11.912.89139 20.016-.89139 8.5087-1.1345 9.319-5.9966 19.043-5.0242 9.8863-7.8604 14.181-13.776 20.583-2.269 2.35-2.5121 2.9983-1.2966 2.6742.89138-.24311 3.0793-.64828 4.8621-.97242 1.7828-.24311 8.1846-2.0259 14.181-3.8087 11.345-3.4035 17.99-6.807 27.957-14.343 28.93-21.961 39.221-31.928 49.594-48.378 7.7794-12.317 18.071-33.306 18.071-36.952 0-.56725-2.1069-.64829-6.6449-.24311-6.0776.48621-7.7794.24311-18.071-2.4311-21.231-5.4294-33.387-12.398-49.594-28.2l-5.8345-5.7535.48621-3.6466c.24311-2.269 1.2155-4.538 2.35-5.8345 1.0535-1.1345 1.9448-2.35 1.9448-2.8362 0-.40518-2.431-3.2414-5.4294-6.1587l-5.5104-5.4294zm-247.24 42.868c-.32414 0-.32414 60.452 0 134.28l.56725 134.36 2.1069 15.802 2.1069 15.802 9.4001 10.94c7.6984 8.8328 12.074 12.966 23.257 21.88 14.019 11.102 26.418 23.257 36.223 35.412l5.3483 6.6449 4.7-5.8345c11.102-13.776 21.88-24.473 35.899-35.574 11.507-9.157 16.045-13.371 23.824-22.285l9.7242-11.102 1.8638-12.966c1.0535-7.2121 2.0259-17.098 2.269-21.961.56725-13.452 1.1345-265.39.64828-265.39-.32414 0-4.7 3.1604-9.8053 6.969-14.343 10.778-24.067 14.424-37.843 14.181-6.7259-.16207-7.7794-.40517-14.667-3.6466-7.4552-3.5656-7.5363-3.6466-12.155-10.535l-4.538-6.888-4.538 6.969c-4.4569 6.807-4.619 6.969-11.426 10.21-9.238 4.2949-16.045 5.0242-26.742 2.8362-9.4001-1.8638-14.829-4.619-26.499-13.29-5.1052-3.7276-9.4811-6.807-9.7242-6.807zm-3.3224 207.45c-.40518 0-29.092 28.524-63.856 63.289-54.051 54.132-63.937 63.613-68.07 65.72-5.0242 2.5121-8.4277 5.7535-8.5087 8.0225 0 2.7552 2.4311 8.0225 4.7811 10.291 1.3776 1.2966 4.1328 2.8362 6.0776 3.4035 4.9432 1.3776 7.6984-.32414 10.616-6.4828 1.9448-4.0518 10.373-12.804 60.857-63.289l58.67-58.67v-11.102c0-6.1587-.24311-11.183-.56725-11.183zm164.58 13.776c-.16207 0-.32414 6.7259-.32414 14.91v14.91l16.045 15.235c8.7518 8.4277 20.178 19.367 25.283 24.23 14.829 14.262 41.247 39.302 47 44.65 2.9173 2.6742 12.56 10.129 21.474 16.531 8.9139 6.3208 17.017 12.317 18.071 13.209 2.188 2.0259 2.35.89138.2431-1.3776-.89139-.97243-6.969-9.238-13.614-18.395-9.4811-13.209-14.91-19.773-25.769-31.199-7.5363-7.9415-17.261-18.152-21.474-22.609-32.981-34.764-66.692-70.096-66.935-70.096z" fill="#fff"></path>
</svg>
