<?xml version="1.0" standalone="no"?>
<!DOCTYPE svg PUBLIC "-//W3C//DTD SVG 20010904//EN"
 "http://www.w3.org/TR/2001/REC-SVG-20010904/DTD/svg10.dtd">
<svg version="1.0" xmlns="http://www.w3.org/2000/svg"
 width="736.000000pt" height="736.000000pt" viewBox="0 0 736.000000 736.000000"
 preserveAspectRatio="xMidYMid meet">
<metadata>
Created by potrace 1.11, written by Peter Selinger 2001-2013
</metadata>
<g transform="translate(0.000000,736.000000) scale(0.100000,-0.100000)"
fill="#000000" stroke="none">
<path d="M970 6405 c-45 -31 -77 -64 -107 -109 -24 -36 -43 -69 -43 -73 1 -15
95 -70 141 -83 42 -11 55 -22 125 -109 43 -53 173 -188 288 -301 116 -112 256
-248 310 -301 l100 -97 -45 -9 -44 -9 2 -41 c2 -40 0 -44 -83 -117 -47 -42
-119 -102 -160 -132 -71 -54 -80 -67 -86 -124 -3 -22 3 -26 62 -42 107 -29
106 -29 114 52 l7 70 115 101 c126 110 117 108 207 63 48 -25 50 -30 38 -73
-6 -22 24 -54 294 -311 298 -285 368 -350 377 -350 3 0 4 71 2 158 -2 86 -3
216 -4 287 l0 130 -177 188 -177 189 -41 -6 -41 -7 -31 66 -31 66 101 118 102
118 69 6 c37 3 70 8 72 10 2 2 -3 40 -12 85 -16 79 -18 82 -45 82 -50 0 -76
-17 -126 -87 -28 -37 -85 -107 -127 -155 -75 -86 -79 -88 -122 -88 -43 0 -44
0 -50 -40 -6 -37 -18 -52 -26 -31 -9 24 -587 605 -674 678 -92 76 -103 89
-118 137 -16 50 -70 137 -84 135 -4 0 -36 -20 -72 -44z"/>
<path d="M5642 6069 c-22 -19 -43 -29 -65 -29 -29 0 -58 -26 -288 -257 -228
-230 -257 -263 -268 -304 -11 -40 -37 -70 -212 -245 l-199 -199 0 -131 c0 -72
2 -133 5 -135 2 -3 122 113 267 257 245 244 267 263 318 279 30 10 61 22 68
28 9 7 16 7 20 0 11 -16 122 -169 189 -259 34 -46 65 -89 68 -94 4 -6 17 -72
29 -148 21 -124 22 -147 11 -247 -11 -105 -14 -115 -74 -235 -62 -122 -97
-175 -170 -254 -28 -29 -31 -37 -16 -33 11 3 38 8 60 12 22 3 101 25 175 47
140 42 222 84 345 177 357 271 484 394 612 597 96 152 223 411 223 456 0 7
-26 8 -82 3 -75 -6 -96 -3 -223 30 -262 67 -412 153 -612 348 l-72 71 6 45 c3
28 15 56 29 72 13 14 24 29 24 35 0 5 -30 40 -67 76 l-68 67 -33 -30z"/>
<path d="M2624 3913 l7 -1658 26 -195 26 -195 116 -135 c95 -109 149 -160 287
-270 173 -137 326 -287 447 -437 l66 -82 58 72 c137 170 270 302 443 439 142
113 198 165 294 275 l120 137 23 160 c13 89 25 211 28 271 7 166 14 3275 8
3275 -4 0 -58 -39 -121 -86 -177 -133 -297 -178 -467 -175 -83 2 -96 5 -181
45 -92 44 -93 45 -150 130 l-56 85 -56 -86 c-55 -84 -57 -86 -141 -126 -114
-53 -198 -62 -330 -35 -116 23 -183 57 -327 164 -63 46 -117 84 -120 84 -4 0
-4 -746 0 -1657z"/>
<path d="M1795 2229 c-667 -668 -789 -785 -840 -811 -62 -31 -104 -71 -105
-99 0 -34 30 -99 59 -127 17 -16 51 -35 75 -42 61 -17 95 4 131 80 24 50 128
158 751 781 l724 724 0 137 c0 76 -3 138 -7 138 -5 0 -359 -352 -788 -781z"/>
<path d="M4610 2656 l0 -184 198 -188 c108 -104 249 -239 312 -299 183 -176
509 -485 580 -551 36 -33 155 -125 265 -204 110 -78 210 -152 223 -163 27 -25
29 -11 3 17 -11 12 -86 114 -168 227 -117 163 -184 244 -318 385 -93 98 -213
224 -265 279 -407 429 -823 865 -826 865 -2 0 -4 -83 -4 -184z"/>
</g>
</svg>
