<?xml version="1.0" standalone="no"?>
<!DOCTYPE svg PUBLIC "-//W3C//DTD SVG 20010904//EN"
 "http://www.w3.org/TR/2001/REC-SVG-20010904/DTD/svg10.dtd">
<svg version="1.0" xmlns="http://www.w3.org/2000/svg"
 width="432.000000pt" height="776.000000pt" viewBox="0 0 432.000000 776.000000"
 preserveAspectRatio="xMidYMid meet">
<metadata>
Created by potrace 1.11, written by Peter Selinger 2001-2013
</metadata>
<g transform="translate(0.000000,776.000000) scale(0.100000,-0.100000)"
fill="#000000" stroke="none">
<path d="M2205 7392 l-240 -24 -65 -44 c-36 -24 -77 -54 -92 -67 l-28 -22 10
-335 c5 -184 12 -403 14 -487 l6 -151 -39 -24 c-21 -12 -52 -39 -69 -59 l-31
-35 34 -230 33 -229 -21 -21 c-41 -40 -493 -459 -517 -479 -27 -23 -25 -19 46
90 28 44 122 163 208 264 95 113 154 191 152 200 -3 9 -21 98 -42 198 -21 100
-40 187 -44 193 -7 12 -252 -32 -590 -105 -91 -20 -231 -50 -312 -67 l-146
-31 -44 -101 -43 -101 7 -220 c4 -121 14 -421 23 -667 l16 -448 97 -93 c273
-262 377 -358 487 -445 66 -52 126 -100 133 -106 10 -10 8 -211 -8 -1026 -10
-558 -22 -1170 -26 -1360 l-7 -345 62 -95 63 -95 116 -46 c183 -72 513 -202
670 -263 l144 -56 191 6 192 6 60 33 c175 95 712 408 726 423 9 9 44 64 79
122 l62 104 -6 71 c-3 38 -45 617 -92 1285 -85 1199 -86 1214 -67 1230 11 8
69 54 130 101 103 81 110 89 125 140 9 30 54 176 101 324 l84 270 28 510 c29
542 31 645 15 1040 -8 209 -12 252 -26 262 -8 6 -69 39 -134 72 -89 46 -141
66 -209 80 l-90 18 -5 -26 c-12 -57 -146 -1010 -146 -1034 0 -23 -3 -26 -27
-22 -16 3 -118 21 -227 40 -110 19 -202 37 -204 40 -3 3 73 5 169 5 96 0 179
4 186 8 7 4 19 53 28 107 9 55 34 208 56 340 36 214 42 272 53 535 7 162 10
319 7 348 l-6 54 -177 92 c-166 87 -186 94 -308 120 -71 15 -134 24 -140 21
-5 -3 -10 -43 -10 -88 0 -45 -11 -334 -25 -642 -14 -308 -25 -598 -25 -645 -1
-67 -6 -97 -25 -140 l-23 -55 -59 -7 c-86 -10 -525 -39 -529 -35 -3 2 113 35
256 72 143 38 260 73 260 79 0 6 14 184 30 395 27 347 30 427 30 827 0 415 -2
476 -19 473 -3 -1 -114 -13 -246 -27z m1501 -1926 c-8 -98 -18 -181 -20 -184
-3 -2 -89 24 -191 59 -102 35 -181 65 -176 67 5 2 46 -4 91 -12 99 -19 132
-20 200 -4 63 14 63 15 87 180 24 162 27 116 9 -106z m-1643 -933 c138 -97
261 -178 272 -180 11 -2 133 37 271 86 138 50 255 91 259 91 4 0 -84 -60 -196
-134 -112 -74 -212 -140 -222 -148 -15 -10 -28 -72 -67 -319 -26 -168 -51
-331 -55 -362 -4 -32 -10 -57 -14 -57 -4 0 -17 161 -30 358 -12 196 -24 368
-27 382 -4 18 -75 82 -244 219 -237 192 -239 194 -223 217 8 13 17 24 19 24 2
0 118 -79 257 -177z"/>
<path d="M1335 7048 c-71 -34 -175 -85 -230 -113 l-100 -50 -32 -205 c-40
-265 -68 -498 -59 -507 3 -4 151 15 327 41 283 42 323 45 338 33 14 -13 22
-11 69 19 l52 34 0 400 0 400 -97 0 c-54 0 -107 3 -118 5 -12 3 -71 -19 -150
-57z"/>
</g>
</svg>
