<?xml version="1.0" standalone="no"?>
<!DOCTYPE svg PUBLIC "-//W3C//DTD SVG 20010904//EN"
 "http://www.w3.org/TR/2001/REC-SVG-20010904/DTD/svg10.dtd">
<svg version="1.0" xmlns="http://www.w3.org/2000/svg"
 width="692.000000pt" height="997.000000pt" viewBox="0 0 692.000000 997.000000"
 preserveAspectRatio="xMidYMid meet">
<metadata>
Created by potrace 1.11, written by Peter Selinger 2001-2013
</metadata>
<g transform="translate(0.000000,997.000000) scale(0.100000,-0.100000)"
fill="#000000" stroke="none">
<path d="M1622 9309 l-23 -187 -68 -128 c-169 -316 -150 -290 -310 -416 l-144
-113 -93 -210 c-51 -115 -94 -221 -94 -235 0 -14 36 -205 80 -425 78 -388 94
-511 68 -503 -8 3 -52 157 -105 367 -50 200 -94 365 -97 369 -3 3 -6 -8 -6
-24 0 -16 -52 -195 -117 -399 l-117 -370 38 -225 c20 -124 61 -363 90 -532 29
-170 51 -308 49 -308 -2 0 -8 10 -14 23 -8 20 -9 19 -4 -7 18 -89 15 -88 -49
24 -36 63 -89 159 -118 213 -36 67 -54 91 -56 77 -2 -11 8 -189 23 -396 l26
-377 75 -141 c53 -100 111 -188 199 -303 68 -90 122 -163 119 -163 -3 0 -71
39 -150 86 -79 48 -146 85 -148 83 -3 -2 21 -107 52 -233 l57 -229 250 -134
c137 -74 253 -137 258 -142 4 -4 -86 8 -200 26 -115 18 -214 32 -221 31 -12
-3 226 -372 256 -395 10 -9 54 -13 121 -14 58 -1 153 -4 211 -8 l105 -6 -85
-36 c-47 -20 -84 -41 -83 -47 1 -6 -19 -13 -45 -17 -26 -3 -57 -12 -69 -18
-21 -11 -4 -21 191 -119 l214 -107 146 170 c80 93 146 177 145 187 0 9 -8 125
-18 257 l-18 240 53 239 c30 132 56 241 58 244 3 2 46 -6 97 -18 85 -20 116
-35 216 -105 2 -1 -17 -334 -42 -741 -25 -406 -45 -764 -45 -794 0 -48 -6 -65
-56 -146 -52 -87 -59 -94 -124 -128 -38 -21 -89 -52 -113 -70 -39 -30 -53 -34
-146 -43 -102 -10 -105 -10 -214 23 -61 18 -112 32 -114 30 -2 -1 104 -93 234
-204 l238 -201 369 -563 369 -563 162 -346 c138 -293 171 -374 221 -535 l59
-189 3 65 c1 36 11 522 23 1080 11 558 24 1047 29 1085 13 99 12 358 -1 392
-6 15 -24 102 -40 193 -16 91 -41 217 -56 280 l-27 115 -153 227 c-106 158
-179 279 -238 399 -48 94 -84 174 -80 177 7 8 367 -18 380 -28 6 -4 103 -75
216 -158 l206 -151 36 -113 c20 -62 39 -125 42 -141 10 -40 30 -33 44 16 7 23
26 86 43 139 l31 98 206 151 c113 84 211 155 216 160 12 9 373 35 380 27 4 -3
-32 -83 -80 -177 -59 -120 -132 -241 -238 -399 l-153 -227 -27 -115 c-15 -63
-40 -189 -56 -280 -16 -91 -34 -178 -40 -193 -13 -34 -14 -293 -1 -392 5 -38
18 -527 29 -1085 12 -558 22 -1044 23 -1080 l3 -65 59 190 c50 160 83 242 221
535 l162 345 369 563 369 563 238 201 c130 111 236 203 234 204 -2 2 -53 -12
-114 -30 -109 -33 -112 -33 -214 -23 -93 9 -107 13 -145 43 -24 17 -75 49
-114 70 -66 36 -74 44 -125 129 -48 79 -55 97 -55 142 0 51 -73 1296 -85 1460
l-7 81 60 40 c44 31 82 46 151 62 51 12 94 20 97 18 2 -3 28 -110 57 -239 l54
-234 -18 -259 c-10 -143 -15 -264 -12 -270 4 -6 70 -84 146 -173 l139 -162
214 107 c195 98 212 108 191 119 -12 6 -43 15 -69 18 -26 4 -46 11 -45 17 1 6
-36 27 -83 47 l-85 36 105 6 c58 4 153 7 211 8 67 1 111 5 121 14 30 23 268
392 256 395 -7 1 -106 -13 -221 -31 -114 -18 -204 -30 -200 -26 5 5 121 68
258 142 l250 134 57 229 c31 126 55 231 52 233 -2 2 -68 -35 -146 -82 -79 -47
-145 -84 -146 -82 -2 2 52 77 120 167 86 113 146 204 195 299 l72 137 26 376
c15 207 25 385 23 396 -2 14 -20 -10 -56 -77 -29 -54 -82 -150 -118 -213 -64
-112 -67 -113 -49 -24 5 26 4 27 -4 7 -6 -13 -12 -23 -14 -23 -2 0 20 138 49
308 29 169 70 408 90 532 l38 225 -117 370 c-65 204 -117 383 -117 399 0 16
-3 27 -6 24 -3 -4 -47 -169 -97 -369 -53 -210 -97 -364 -104 -367 -27 -8 -11
115 67 503 44 220 80 411 80 425 0 14 -43 120 -94 235 l-93 210 -144 113
c-161 126 -136 94 -314 425 l-64 119 -24 186 c-14 103 -25 165 -26 139 0 -27
-6 -135 -12 -241 l-10 -192 37 -215 c36 -211 38 -218 141 -494 l105 -280 16
-178 c15 -167 15 -185 -2 -299 -9 -67 -48 -264 -85 -438 l-67 -316 -208 -242
c-188 -219 -211 -243 -249 -253 -23 -6 -63 -16 -89 -24 -33 -10 -80 -12 -162
-8 l-116 6 -57 66 c-31 36 -60 70 -65 76 -5 5 -31 -13 -66 -46 -31 -30 -71
-67 -89 -83 l-31 -28 -85 128 c-73 112 -119 165 -347 402 l-262 272 -74 162
c-41 88 -74 173 -74 188 0 17 -5 27 -15 27 -10 0 -15 -10 -15 -27 0 -15 -33
-100 -74 -188 l-74 -161 -269 -281 c-232 -243 -279 -298 -348 -405 l-81 -124
-92 86 c-51 47 -97 82 -101 77 -4 -5 -33 -39 -64 -75 l-57 -66 -116 -6 c-82
-4 -129 -2 -162 8 -26 8 -66 18 -89 24 -38 10 -61 34 -249 253 l-207 241 -68
317 c-37 175 -76 372 -85 438 -17 114 -17 132 -2 299 l16 178 104 280 c104
276 106 283 142 494 l37 214 -11 226 c-6 124 -12 233 -13 241 -1 8 -12 -69
-25 -171z"/>
</g>
</svg>
