<?xml version="1.0" standalone="no"?>
<!DOCTYPE svg PUBLIC "-//W3C//DTD SVG 20010904//EN"
 "http://www.w3.org/TR/2001/REC-SVG-20010904/DTD/svg10.dtd">
<svg version="1.0" xmlns="http://www.w3.org/2000/svg"
 width="692.000000pt" height="997.000000pt" viewBox="0 0 692.000000 997.000000"
 preserveAspectRatio="xMidYMid meet">
<metadata>
Created by potrace 1.11, written by Peter Selinger 2001-2013
</metadata>
<g transform="translate(0.000000,997.000000) scale(0.100000,-0.100000)"
fill="#000000" stroke="none">
<path d="M1146 9359 c-3 -8 -15 -77 -29 -154 l-24 -140 19 -300 c10 -165 36
-461 58 -658 37 -337 44 -377 115 -690 66 -289 89 -372 181 -640 64 -186 142
-390 197 -515 l92 -207 157 -196 156 -196 323 -266 c178 -146 378 -304 444
-350 l120 -85 55 61 c46 52 242 267 492 541 l56 62 -125 139 c-69 77 -280 318
-468 535 -320 371 -351 410 -497 630 -85 129 -303 458 -483 730 l-329 495
-186 385 c-186 384 -187 386 -250 605 -34 121 -64 222 -66 224 -2 2 -6 -2 -8
-10z"/>
<path d="M6011 9147 c-64 -221 -65 -224 -251 -607 l-186 -385 -349 -525 c-191
-289 -409 -617 -482 -729 -120 -181 -170 -244 -451 -570 -362 -419 -658 -751
-683 -766 -10 -5 -121 -125 -248 -266 -298 -330 -400 -472 -741 -1025 -311
-505 -294 -476 -317 -529 -9 -22 -18 -43 -20 -46 -2 -3 23 -18 56 -33 l59 -29
7 -113 7 -114 -99 -108 c-69 -77 -117 -120 -163 -147 -36 -21 -71 -38 -77 -38
-7 0 -13 -4 -13 -8 0 -5 -13 -15 -28 -23 -26 -13 -31 -25 -51 -123 -18 -86
-63 -207 -219 -593 -107 -267 -201 -512 -208 -545 -6 -33 -17 -85 -23 -116
l-12 -56 -43 4 c-35 4 -55 -1 -115 -31 -42 -22 -71 -42 -68 -49 2 -7 16 -52
31 -100 l27 -88 -70 -190 c-39 -105 -71 -195 -71 -201 0 -5 9 -23 20 -38 l20
-28 -31 -26 c-17 -15 -44 -33 -60 -41 -28 -15 -30 -20 -57 -134 l-11 -45 63
-80 c86 -110 118 -174 106 -214 -9 -33 -5 -39 37 -61 19 -10 35 -5 113 34 60
30 102 45 129 45 37 0 39 1 45 40 5 34 16 47 71 91 36 28 65 52 66 52 0 1 9
74 19 162 18 153 23 173 123 480 148 455 401 1078 626 1544 157 324 190 384
404 728 231 372 233 376 468 659 232 280 239 287 420 438 101 84 234 184 294
223 205 130 472 330 780 584 l307 252 153 191 c83 105 159 205 168 222 65 127
202 468 286 715 87 254 112 343 176 627 71 312 78 353 115 689 22 197 48 493
58 658 l18 300 -24 145 c-13 80 -27 148 -31 152 -4 4 -35 -92 -70 -215z"/>
<path d="M4124 4777 c-100 -60 -150 -99 -280 -221 -88 -82 -160 -151 -162
-155 -1 -3 94 -122 211 -264 206 -250 219 -268 444 -631 213 -342 246 -403
403 -727 225 -464 475 -1081 626 -1540 100 -307 106 -331 120 -464 8 -77 17
-150 19 -162 3 -11 34 -44 70 -72 55 -44 66 -57 71 -91 6 -39 8 -40 45 -40 27
0 69 -15 129 -45 78 -39 94 -44 113 -34 42 22 46 28 37 61 -12 40 20 104 106
214 l63 80 -10 45 c-24 107 -29 117 -67 140 -20 12 -47 31 -59 42 l-22 20 19
27 c11 16 20 33 20 38 0 6 -32 96 -71 201 l-70 190 26 88 c15 48 28 94 30 101
3 7 -25 27 -67 48 -59 30 -80 35 -114 31 l-43 -4 -12 56 c-6 31 -17 83 -23
116 -7 33 -101 278 -208 545 -156 386 -201 507 -219 593 -20 98 -25 110 -51
123 -15 8 -28 19 -28 25 0 6 -4 8 -8 5 -4 -2 -40 14 -78 37 -52 31 -98 71
-168 149 l-97 107 7 114 7 115 58 28 c61 29 66 33 49 50 -5 5 -15 25 -22 45
-14 37 -659 1089 -668 1088 -3 0 -60 -33 -126 -72z"/>
<path d="M3369 3050 c-48 -24 -63 -40 -108 -112 -29 -46 -95 -126 -146 -178
l-94 -95 -10 -97 c-12 -104 -13 -274 -2 -375 6 -61 8 -65 107 -185 100 -122
102 -123 175 -151 41 -15 82 -27 92 -27 14 0 162 38 173 44 1 1 14 101 30 222
l27 221 -22 117 c-12 64 -37 169 -57 233 -31 102 -41 124 -80 165 -42 45 -44
50 -44 108 0 41 6 74 20 100 25 49 16 50 -61 10z"/>
<path d="M3890 3040 c13 -26 20 -59 20 -99 0 -57 -2 -63 -45 -111 -37 -42 -50
-68 -79 -162 -19 -62 -45 -168 -57 -234 l-22 -121 28 -219 c15 -121 28 -219
29 -220 0 0 40 -11 87 -25 l86 -26 82 30 82 30 102 124 c100 121 102 125 108
186 11 102 10 272 -2 375 l-11 97 -93 95 c-51 52 -116 132 -145 178 -46 73
-59 86 -111 113 -32 16 -63 29 -69 29 -6 0 -1 -18 10 -40z"/>
<path d="M2795 2343 c-72 -72 -187 -255 -268 -428 -33 -71 -64 -135 -69 -142
-6 -8 -6 -52 2 -120 11 -106 12 -108 75 -212 35 -58 88 -129 117 -158 51 -51
55 -53 124 -59 l72 -7 75 53 c49 34 90 73 119 114 42 58 45 66 51 149 6 78 5
93 -17 146 -13 33 -29 82 -35 110 -7 32 -36 92 -77 158 -86 139 -119 238 -111
338 3 39 9 80 12 93 11 35 -7 26 -70 -35z"/>
<path d="M4455 2378 c3 -13 9 -54 12 -93 8 -100 -25 -199 -111 -338 -41 -66
-70 -126 -77 -158 -6 -28 -22 -77 -35 -110 -22 -53 -24 -69 -18 -142 5 -74 10
-88 47 -145 31 -47 63 -78 120 -119 l79 -56 71 7 c70 6 73 8 125 59 29 29 82
99 117 157 62 104 64 108 75 208 l11 103 -32 67 c-17 37 -49 103 -69 147 -59
127 -181 314 -245 378 -63 61 -81 70 -70 35z"/>
<path d="M3585 1690 c-33 -4 -115 -26 -182 -51 l-122 -44 -87 -165 c-131 -249
-139 -261 -198 -312 -42 -37 -84 -59 -183 -98 -126 -50 -175 -82 -203 -134
-10 -21 -6 -32 44 -112 46 -74 71 -102 153 -169 84 -68 107 -82 165 -96 l67
-17 264 63 c355 85 361 85 715 0 l263 -63 67 18 c58 14 82 28 165 96 82 66
107 93 153 168 50 80 54 91 44 112 -28 52 -77 84 -203 134 -99 39 -141 61
-183 98 -59 51 -67 63 -198 313 l-88 166 -46 15 c-26 9 -85 30 -132 46 -92 32
-180 42 -275 32z"/>
</g>
</svg>
