<?xml version="1.0" standalone="no"?>
<!DOCTYPE svg PUBLIC "-//W3C//DTD SVG 20010904//EN"
 "http://www.w3.org/TR/2001/REC-SVG-20010904/DTD/svg10.dtd">
<svg version="1.0" xmlns="http://www.w3.org/2000/svg"
 width="715.000000pt" height="897.000000pt" viewBox="0 0 715.000000 897.000000"
 preserveAspectRatio="xMidYMid meet">
<metadata>
Created by potrace 1.11, written by Peter Selinger 2001-2013
</metadata>
<g transform="translate(0.000000,897.000000) scale(0.100000,-0.100000)"
fill="#000000" stroke="none">
<path d="M3595 8454 c-5 -1 -36 -5 -68 -9 -75 -8 -87 -22 -87 -98 0 -34 -5
-93 -10 -132 -5 -38 -10 -105 -11 -148 l-3 -78 52 -49 c81 -78 81 -73 5 -183
-62 -90 -66 -100 -69 -157 -1 -34 -5 -64 -8 -67 -3 -3 -99 -1 -213 4 l-208 10
-475 283 -475 283 -165 27 c-138 24 -166 26 -175 15 -5 -8 -89 -43 -185 -79
-96 -36 -247 -93 -335 -126 -180 -69 -275 -102 -355 -123 -30 -8 -156 -44
-280 -80 -124 -36 -245 -70 -268 -77 l-44 -11 97 -69 c61 -44 191 -159 349
-312 138 -133 287 -277 331 -319 l80 -76 275 -72 c233 -61 340 -96 694 -227
231 -86 442 -165 470 -176 42 -17 67 -19 141 -16 l90 5 190 110 c156 91 211
117 307 147 64 20 121 36 127 36 7 0 10 -44 8 -137 -1 -106 6 -200 31 -408 18
-148 35 -281 37 -295 4 -22 33 -289 38 -345 2 -17 -4 -20 -43 -21 -109 -2
-269 24 -401 65 -74 23 -145 46 -158 52 -55 23 -49 -6 38 -179 46 -92 88 -172
94 -179 6 -9 30 10 85 68 l77 80 85 -12 c47 -7 88 -15 92 -18 4 -3 1 -71 -7
-151 -8 -80 -15 -155 -15 -167 0 -12 -14 -38 -30 -57 -29 -32 -30 -37 -21 -78
6 -24 15 -182 21 -353 6 -170 13 -341 16 -380 2 -38 8 -187 14 -330 5 -143 16
-384 24 -535 19 -357 23 -421 46 -950 11 -245 22 -492 25 -550 3 -58 12 -250
20 -428 l15 -322 75 -373 c41 -204 77 -376 78 -381 2 -6 11 30 20 80 10 49 42
217 73 374 l55 285 19 500 c10 275 26 703 34 950 9 248 18 506 21 575 3 69 9
233 15 365 5 132 12 312 15 400 27 801 34 1019 33 1024 -1 3 2 28 6 55 7 44 5
51 -20 77 -26 27 -29 39 -45 196 -10 93 -15 171 -11 175 4 4 47 12 96 19 l90
11 70 -76 c39 -42 73 -76 76 -76 3 0 46 81 95 180 57 115 86 183 80 189 -6 6
-70 -10 -173 -44 -139 -45 -186 -56 -310 -69 -80 -9 -149 -13 -153 -9 -5 5 -2
62 6 128 8 66 28 251 45 410 16 160 35 325 41 368 6 44 7 118 3 172 -5 72 -4
95 6 95 50 0 176 -56 344 -153 l189 -110 87 -5 87 -5 464 173 c455 170 491
181 971 307 65 18 71 22 200 148 439 429 524 508 613 571 62 44 91 70 83 75
-7 3 -80 25 -163 49 -82 23 -170 48 -195 56 -25 7 -103 30 -175 50 -138 38
-432 144 -770 276 -27 11 -64 24 -81 29 -18 5 -42 18 -55 28 -24 18 -27 18
-184 -8 l-161 -26 -184 -109 c-102 -60 -261 -155 -355 -211 -93 -56 -225 -134
-293 -175 l-123 -73 -167 -8 c-127 -6 -168 -6 -174 4 -4 7 -8 37 -8 67 0 51
-5 61 -65 145 -36 50 -65 97 -65 105 0 8 27 42 60 75 l61 62 -16 199 c-20 254
-18 244 -56 244 -17 0 -38 4 -47 9 -9 4 -21 7 -27 5z m-1245 -1259 c173 -109
317 -200 319 -202 11 -8 -11 -12 -104 -18 l-100 -7 -380 126 c-209 69 -387
129 -395 132 -16 7 317 175 335 169 6 -1 152 -92 325 -200z m2866 127 c92 -43
169 -83 171 -88 1 -5 -174 -67 -390 -138 l-393 -129 -94 7 c-99 7 -114 12 -90
26 12 8 622 396 626 399 1 1 77 -34 170 -77z"/>
</g>
</svg>
