<?xml version="1.0" standalone="no"?>
<!DOCTYPE svg PUBLIC "-//W3C//DTD SVG 20010904//EN"
 "http://www.w3.org/TR/2001/REC-SVG-20010904/DTD/svg10.dtd">
<svg version="1.0" xmlns="http://www.w3.org/2000/svg"
 width="419.000000pt" height="787.000000pt" viewBox="0 0 419.000000 787.000000"
 preserveAspectRatio="xMidYMid meet">
<metadata>
Created by potrace 1.11, written by Peter Selinger 2001-2013
</metadata>
<g transform="translate(0.000000,787.000000) scale(0.100000,-0.100000)"
fill="#000000" stroke="none">
<path d="M2020 7315 c0 -77 -4 -125 -10 -125 -6 0 -10 -35 -10 -84 0 -62 -4
-87 -15 -96 -11 -9 -15 -33 -15 -86 0 -40 -4 -76 -10 -79 -5 -3 -10 -24 -10
-45 0 -21 -4 -42 -10 -45 -5 -3 -10 -40 -10 -81 0 -43 -4 -74 -10 -74 -5 0
-10 -21 -10 -46 0 -25 -5 -54 -11 -66 -6 -11 -15 -48 -20 -82 -17 -103 -29
-188 -38 -251 -4 -33 -11 -67 -14 -75 -4 -8 -8 -36 -11 -61 -2 -25 -9 -55 -15
-67 -6 -11 -11 -36 -11 -56 0 -19 -4 -38 -10 -41 -5 -3 -10 -19 -10 -35 0 -16
-4 -32 -10 -35 -5 -3 -10 -19 -10 -35 0 -16 -4 -31 -9 -34 -5 -4 -17 -32 -26
-64 -9 -31 -21 -68 -25 -82 -4 -14 -20 -65 -35 -115 -15 -49 -31 -98 -36 -107
-5 -10 -9 -27 -9 -37 0 -11 -4 -23 -10 -26 -5 -3 -10 -19 -10 -35 0 -16 -4
-32 -10 -35 -5 -3 -10 -16 -10 -28 0 -12 -7 -31 -15 -41 -8 -11 -15 -30 -15
-43 0 -13 -4 -31 -9 -41 -5 -9 -15 -37 -21 -62 -7 -25 -16 -54 -20 -65 -5 -11
-16 -45 -26 -75 -26 -84 -44 -132 -70 -181 -7 -14 -11 -28 -8 -31 2 -3 -2 -11
-11 -18 -8 -7 -15 -21 -15 -31 0 -11 -4 -19 -10 -19 -5 0 -10 -6 -10 -13 0
-12 -37 -99 -60 -139 -6 -10 -10 -25 -10 -33 0 -8 -4 -15 -10 -15 -5 0 -10 -6
-10 -12 0 -7 -16 -47 -36 -88 -20 -41 -40 -84 -44 -95 -5 -11 -24 -54 -43 -95
-19 -41 -43 -93 -52 -115 -10 -22 -30 -67 -46 -100 -16 -33 -29 -65 -29 -72 0
-7 -4 -13 -10 -13 -5 0 -10 -8 -10 -18 0 -10 -3 -22 -7 -26 -12 -12 -43 -100
-43 -123 0 -12 -4 -25 -10 -28 -5 -3 -10 -19 -10 -36 0 -16 -4 -37 -9 -47 -10
-19 -60 -209 -76 -287 -4 -16 -10 -39 -15 -50 -5 -11 -11 -33 -13 -50 -5 -32
-43 -148 -58 -177 -5 -10 -9 -27 -9 -38 0 -11 -4 -28 -9 -38 -17 -35 -34 -88
-38 -125 -3 -20 -9 -40 -14 -43 -5 -3 -9 -27 -9 -54 0 -27 -5 -52 -10 -55 -6
-3 -10 -34 -10 -68 -1 -34 -7 -80 -15 -102 -19 -51 -21 -399 -4 -442 7 -15 16
-62 20 -103 17 -152 21 -175 30 -185 5 -5 9 -18 9 -30 0 -21 26 -107 41 -137
5 -10 9 -27 9 -38 0 -11 4 -29 10 -40 5 -11 14 -29 20 -40 6 -11 10 -24 10
-30 0 -6 16 -43 35 -83 19 -39 35 -78 35 -84 0 -7 4 -13 9 -13 5 0 13 -10 17
-22 11 -37 119 -201 168 -258 17 -20 46 -55 65 -78 31 -39 170 -162 210 -187
9 -5 44 -29 78 -52 34 -24 69 -43 77 -43 9 0 16 -4 16 -10 0 -5 7 -10 15 -10
8 0 23 -4 33 -10 37 -21 147 -60 168 -60 13 0 26 -5 29 -10 3 -6 44 -10 90
-10 64 0 84 -3 89 -15 8 -22 321 -22 329 -1 4 10 29 16 84 19 95 6 151 16 159
28 3 5 12 9 21 9 15 0 47 14 173 73 75 36 210 136 298 221 81 78 198 223 240
296 81 143 100 179 121 233 5 12 20 48 35 79 14 31 26 64 26 73 0 8 4 23 9 33
5 9 14 37 21 62 6 25 16 61 22 80 33 103 70 402 70 560 0 67 -20 306 -31 375
-17 105 -47 227 -62 257 -5 10 -9 29 -9 42 0 14 -4 28 -10 31 -5 3 -10 17 -10
31 0 13 -4 32 -9 42 -25 49 -41 95 -41 117 0 13 -4 27 -10 30 -5 3 -10 19 -10
36 0 16 -4 37 -9 47 -10 20 -51 173 -58 220 -3 18 -9 35 -14 38 -5 3 -9 20 -9
39 0 19 -4 37 -10 40 -5 3 -10 21 -10 40 0 19 -4 36 -9 39 -5 3 -12 23 -16 43
-6 34 -52 145 -76 183 -5 8 -12 22 -15 30 -16 39 -39 90 -65 146 -16 33 -29
66 -29 72 0 7 -4 12 -10 12 -5 0 -10 7 -10 15 0 8 -4 23 -9 33 -31 61 -61 129
-61 140 0 6 -4 12 -10 12 -5 0 -10 9 -10 19 0 11 -4 23 -10 26 -5 3 -10 15
-10 26 0 10 -4 19 -10 19 -5 0 -10 8 -10 19 0 10 -7 24 -15 31 -8 7 -15 18
-15 25 0 6 -6 25 -14 41 -33 70 -79 171 -86 189 -13 34 -27 69 -44 108 -9 21
-16 46 -16 57 0 10 -4 22 -10 25 -5 3 -10 19 -10 35 0 16 -4 32 -10 35 -5 3
-10 19 -10 35 0 16 -4 32 -10 35 -5 3 -10 16 -10 28 0 12 -7 31 -15 41 -8 11
-15 28 -15 38 0 10 -4 26 -9 36 -5 9 -15 37 -21 62 -7 25 -17 61 -22 80 -6 19
-16 48 -24 63 -8 16 -14 39 -14 52 0 13 -4 27 -10 30 -5 3 -10 17 -10 30 0 13
-4 27 -10 30 -5 3 -10 19 -10 35 0 16 -4 31 -9 34 -5 3 -12 22 -16 42 -3 20
-10 44 -15 53 -4 9 -14 36 -20 61 -7 25 -16 54 -20 65 -4 11 -13 36 -20 55
-12 35 -22 85 -40 215 -5 39 -14 99 -19 135 -6 36 -15 97 -20 135 -6 39 -15
88 -21 110 -5 22 -10 63 -10 92 0 28 -4 55 -10 58 -5 3 -10 30 -10 60 0 30 -4
57 -10 60 -5 3 -10 44 -10 90 0 46 -4 87 -10 90 -5 3 -10 23 -10 44 0 23 -6
44 -16 52 -10 8 -14 25 -12 47 2 22 -2 37 -10 40 -7 2 -12 24 -12 58 0 30 -4
54 -10 54 -6 0 -10 28 -10 64 0 36 -4 68 -10 71 -5 3 -10 26 -10 51 0 42 -1
44 -30 44 l-30 0 0 -125z m-36 -3641 c6 -25 5 -57 -2 -94 -23 -107 -15 -141
65 -309 42 -88 46 -105 54 -201 4 -58 15 -140 23 -182 33 -171 50 -526 28
-581 -7 -16 -12 -57 -12 -93 0 -55 2 -64 18 -64 10 0 26 14 35 33 10 17 31 53
47 79 l30 46 4 194 c4 190 13 254 38 246 18 -6 26 -43 27 -121 1 -72 21 -126
60 -161 41 -37 69 -101 85 -194 30 -170 18 -272 -39 -359 -19 -29 -35 -61 -35
-71 0 -27 -20 -82 -31 -82 -4 0 -17 -21 -28 -46 -15 -34 -19 -57 -14 -90 8
-61 26 -42 43 46 22 120 52 147 148 135 72 -9 81 0 75 74 -8 87 2 131 31 131
67 0 130 -164 92 -240 -10 -21 -16 -58 -16 -103 0 -42 -8 -95 -19 -131 -11
-34 -22 -73 -25 -88 -9 -42 -43 -66 -119 -83 -50 -11 -82 -26 -112 -50 -23
-19 -57 -38 -76 -42 -41 -8 -49 -17 -49 -64 0 -58 -16 -70 -92 -71 -59 -1 -70
2 -109 30 -47 35 -80 39 -119 17 -39 -22 -107 -19 -122 5 -10 16 -24 20 -65
20 -30 0 -57 6 -65 14 -8 7 -30 21 -48 31 -108 55 -149 118 -150 228 0 62 -2
68 -25 79 -13 6 -28 23 -34 38 -5 16 -23 38 -40 51 -17 13 -31 30 -31 39 0 9
-9 25 -21 36 -30 27 -39 48 -50 117 -17 107 9 243 40 211 6 -6 15 -41 19 -78
9 -73 19 -86 67 -86 54 -1 74 -11 87 -46 7 -19 18 -34 25 -34 9 0 10 6 3 26
-6 14 -10 42 -10 62 0 47 -18 112 -31 112 -6 0 -17 17 -26 37 -12 31 -14 72
-11 238 3 124 9 211 17 229 6 16 32 56 56 89 25 32 45 67 45 77 0 18 15 34 35
35 28 3 43 20 49 54 6 42 31 70 46 55 6 -6 15 -36 21 -68 10 -48 9 -70 -5
-134 -13 -60 -15 -91 -8 -142 5 -36 10 -56 11 -45 2 33 28 62 81 92 43 24 53
36 70 81 11 29 28 65 37 79 16 24 18 54 18 243 l0 215 -27 45 c-25 42 -27 55
-33 215 -5 118 -4 184 4 215 28 108 48 125 65 54z"/>
</g>
</svg>
