<?xml version="1.0" standalone="no"?>
<!DOCTYPE svg PUBLIC "-//W3C//DTD SVG 20010904//EN"
 "http://www.w3.org/TR/2001/REC-SVG-20010904/DTD/svg10.dtd">
<svg version="1.0" xmlns="http://www.w3.org/2000/svg"
 width="501.000000pt" height="1189.000000pt" viewBox="0 0 501.000000 1189.000000"
 preserveAspectRatio="xMidYMid meet">
<metadata>
Created by potrace 1.11, written by Peter Selinger 2001-2013
</metadata>
<g transform="translate(0.000000,1189.000000) scale(0.100000,-0.100000)"
fill="#000000" stroke="none">
<path d="M2488 11324 c-5 -4 -8 -50 -8 -103 0 -53 -5 -181 -10 -286 -5 -104
-14 -309 -20 -455 -6 -146 -17 -389 -25 -540 l-13 -275 -106 -570 c-58 -313
-106 -577 -106 -586 0 -11 43 -34 146 -78 l146 -62 144 62 c101 44 144 68 144
79 0 9 -48 272 -106 586 -98 526 -106 582 -114 749 -5 99 -14 275 -19 390 -9
176 -36 806 -44 1033 -1 35 -5 60 -9 56z"/>
<path d="M773 9040 c23 -79 252 -747 258 -754 12 -13 537 -136 583 -136 l38 0
-161 168 c-308 320 -723 737 -718 722z"/>
<path d="M3766 8603 c-433 -444 -436 -448 -402 -451 31 -3 544 111 575 128 13
7 275 759 267 767 -2 2 -200 -198 -440 -444z"/>
<path d="M2478 8062 c-18 -41 -258 -172 -315 -172 -49 0 -66 24 -58 81 5 38 4
49 -7 49 -7 0 -48 -34 -92 -75 -43 -42 -99 -90 -125 -107 -25 -17 -80 -57
-121 -89 -122 -91 -315 -181 -475 -220 -76 -18 -105 -20 -192 -15 l-103 7 0
-66 c0 -69 -20 -125 -56 -156 -56 -47 -151 -86 -271 -109 -35 -7 -63 -16 -63
-20 0 -4 22 -10 49 -12 37 -4 81 -23 187 -83 305 -172 415 -243 524 -335 30
-26 65 -53 78 -59 13 -7 67 -50 120 -97 53 -47 123 -108 155 -136 32 -27 79
-82 105 -120 l47 -70 95 -2 c82 -1 103 -5 150 -28 54 -27 108 -72 163 -136 20
-23 36 -32 58 -32 40 0 83 -43 100 -99 23 -77 95 -77 118 0 17 56 60 99 100
99 22 0 38 8 54 28 47 57 114 114 167 140 45 22 73 28 154 32 l99 5 46 70 c33
49 85 104 181 188 74 65 153 130 175 145 22 15 72 52 110 83 101 82 213 156
350 234 66 37 160 90 208 118 63 36 102 51 137 55 28 2 50 8 50 12 0 4 -28 13
-62 20 -160 31 -265 85 -305 155 -17 31 -23 56 -23 108 l0 68 -107 -6 c-97 -6
-118 -4 -206 19 -172 46 -323 118 -472 227 -165 119 -197 146 -254 204 -70 70
-85 72 -76 6 8 -57 -9 -81 -57 -81 -43 0 -224 90 -280 139 -48 43 -54 46 -60
33z m-457 -662 c89 -16 370 -112 366 -124 -2 -6 -19 -68 -37 -138 l-33 -126
84 -216 c46 -119 86 -216 89 -216 3 0 43 97 89 216 l84 216 -33 126 c-18 70
-35 132 -37 138 -2 7 59 32 152 62 164 54 272 79 298 69 40 -15 96 -179 104
-303 17 -265 -132 -515 -372 -624 -196 -90 -449 -77 -633 32 -72 42 -178 148
-220 220 -101 171 -119 393 -46 571 45 113 48 115 145 97z"/>
<path d="M894 5666 l-299 -234 -38 -108 c-98 -278 -152 -427 -236 -658 -50
-137 -90 -250 -89 -252 3 -2 343 385 642 730 76 89 200 230 275 315 75 85 144
165 155 179 18 23 18 24 -19 118 -21 51 -50 105 -65 119 l-26 25 -300 -234z"/>
<path d="M3757 5872 c-14 -15 -42 -68 -63 -119 l-37 -92 38 -47 c21 -26 62
-72 91 -103 28 -31 130 -146 225 -257 357 -413 734 -843 737 -840 1 2 -38 115
-88 252 -84 228 -130 357 -237 658 l-38 108 -290 227 c-159 125 -295 230 -301
234 -6 3 -22 -6 -37 -21z"/>
<path d="M2480 5592 c-8 -3 -107 -29 -218 -58 -112 -28 -200 -53 -194 -55 5
-2 55 -240 112 -529 l102 -525 18 -360 c11 -198 26 -495 35 -660 8 -165 33
-664 55 -1110 22 -445 43 -853 45 -905 21 -372 45 -902 45 -969 0 -47 4 -81
10 -81 6 0 10 34 10 81 0 67 21 529 45 979 13 248 75 1494 85 1700 6 124 24
475 40 780 l29 555 100 510 c56 281 101 517 101 526 0 12 -41 27 -181 63 -100
26 -191 51 -203 55 -11 5 -28 6 -36 3z"/>
<path d="M1522 5442 c-12 -8 -376 -2201 -370 -2229 3 -10 797 1973 806 2011 2
11 -393 226 -414 226 -5 0 -15 -4 -22 -8z"/>
<path d="M3226 5345 c-110 -58 -201 -107 -204 -109 -2 -3 96 -256 218 -563
122 -307 303 -763 402 -1013 161 -406 207 -515 192 -454 -2 10 -85 516 -184
1123 -114 700 -184 1108 -192 1113 -7 4 -17 8 -23 8 -5 0 -100 -48 -209 -105z"/>
</g>
</svg>
