<svg xmlns="http://www.w3.org/2000/svg" viewBox="0 0 512 512">
  <path d="M0 0h512v512H0z"/>
  <path d="m255.94 2.4664c-.0115.00138-.0231.00794-.0346.019481-.23081.18465-.3693 2.3081-.3693 4.7547s-.23081 8.3554-.46162 13.202c-.23082 4.8009-.64628 14.264-.92325 21.004-.27698 6.7397-.78476 17.957-1.1541 24.928l-.60011 12.695-4.8932 26.313c-2.6774 14.449-4.8932 26.636-4.8932 27.051 0 .50778 1.985 1.5695 6.7397 3.6007l6.7397 2.8621 6.6474-2.8621c4.6624-2.0311 6.6474-3.139 6.6474-3.6468 0-.41546-2.2158-12.556-4.8932-27.051-4.5239-24.281-4.8932-26.867-5.2625-34.576-.23082-4.5701-.64628-12.695-.87709-18.003-.41546-8.1246-1.6618-37.207-2.0312-47.686-.0433-1.5147-.20823-2.624-.38084-2.6046zm79.272 105.13c-.0923-.0923-9.2325 9.1402-20.311 20.496-19.988 20.496-20.127 20.681-18.557 20.819 1.431.13849 25.112-5.124 26.543-5.9088.60011-.32314 12.695-35.037 12.325-35.407zm-158.47.3051c-.006.00092-.007.007-.004.018 1.0617 3.6468 11.633 34.483 11.91 34.806.55395.60012 24.789 6.2781 26.913 6.2781h1.7542l-7.4322-7.7553c-13.996-14.541-32.778-33.421-33.141-33.347zm79.022 44.853c-.14573.009-.23225.12478-.31881.31232-.83093 1.8927-11.91 7.9399-14.541 7.9399-2.262 0-3.0467-1.1079-2.6774-3.7392.23082-1.7542.18465-2.262-.32313-2.262-.32314 0-2.2158 1.5695-4.2469 3.4622-1.985 1.9388-4.5701 4.1546-5.7703 4.9394-1.1541.78476-3.693 2.6313-5.5856 4.1085-5.6318 4.2008-14.541 8.3554-21.927 10.156-3.5084.83092-4.8471.92325-8.8632.69243l-4.7547-.32313v3.0467c0 3.1852-.92324 5.7703-2.5851 7.2013-2.5851 2.1696-6.9705 3.97-12.51 5.0317-1.6157.32313-2.9082.73859-2.9082.92324s1.0156.46163 2.262.55395c1.708.18465 3.7392 1.0617 8.6324 3.8315 14.08 7.9399 19.157 11.217 24.189 15.464 1.3849 1.2002 3.0006 2.4466 3.6007 2.7236.60011.32313 3.0929 2.3081 5.5395 4.4778 2.4466 2.1696 5.678 4.9855 7.1552 6.2781 1.4772 1.2464 3.6468 3.7853 4.847 5.5395l2.1696 3.2314 4.3854.0923c3.7853.0462 4.7547.23082 6.9244 1.2926 2.4928 1.2464 4.9855 3.3237 7.5245 6.2781.92325 1.0617 1.6618 1.4772 2.6774 1.4772 1.8465 0 3.8315 1.985 4.6162 4.5701 1.0617 3.5545 4.3854 3.5545 5.4472 0 .78476-2.5851 2.7697-4.5701 4.6162-4.5701 1.0156 0 1.7542-.3693 2.4928-1.2926 2.1696-2.6313 5.2625-5.2625 7.7091-6.4627 2.0773-1.0156 3.3699-1.2926 7.109-1.4772l4.5701-.23081 2.1235-3.2314c1.5234-2.262 3.9238-4.8009 8.3554-8.6785 3.416-3.0006 7.0628-6.0011 8.0784-6.6936 1.0156-.69244 3.3237-2.4004 5.0779-3.8315 4.6624-3.7853 9.8326-7.2013 16.157-10.802 3.0467-1.708 7.386-4.1546 9.6018-5.4472 2.9082-1.6618 4.7086-2.3543 6.3242-2.5389 1.2926-.0923 2.3081-.3693 2.3081-.55395s-1.2925-.60011-2.8621-.92324c-7.386-1.431-12.233-3.9238-14.08-7.1552-.78476-1.431-1.0617-2.5851-1.0617-4.9855v-3.139l-4.9394.27697c-4.4778.27698-5.4472.18465-9.5094-.87708-7.9399-2.1235-14.91-5.4472-21.789-10.479-7.6168-5.4933-9.094-6.7397-11.725-9.4171-3.2314-3.2314-3.9238-3.3237-3.5083-.27697.3693 2.6313-.41547 3.7392-2.6313 3.7392-1.985 0-10.34-4.1546-12.925-6.4166-1.5234-1.3647-2.1303-1.8565-2.4509-1.8357zm25.138 30.451c.26598.008.47533.0404.62536.0981 1.8465.69244 4.4316 8.2631 4.8009 13.987.78476 12.233-6.0934 23.774-17.172 28.805-9.0478 4.1546-20.727 3.5545-29.221-1.4772-3.3237-1.9388-8.2169-6.832-10.156-10.156-4.6624-7.8938-5.4933-18.142-2.1235-26.359 2.0773-5.2164 2.2158-5.3087 6.6936-4.4778 4.1085.7386 17.08 5.1702 16.895 5.7241-.0923.27697-.87709 3.139-1.708 6.3704l-1.5234 5.8165 3.8776 9.9711c2.1235 5.4933 3.97 9.9711 4.1085 9.9711.13848 0 1.985-4.4778 4.1084-9.9711l3.8776-9.9711-1.5234-5.8165c-.83092-3.2314-1.6157-6.0934-1.708-6.3704-.0923-.32314 2.7236-1.4772 7.0167-2.8621 6.6243-2.1812 11.269-3.3376 13.131-3.2833zm-84.729 69.665-13.849 10.802-13.803 10.802-1.7542 4.9855c-4.5239 12.833-7.0167 19.711-10.894 30.375-2.3081 6.3242-4.1546 11.541-4.1085 11.633.13849.0923 15.834-17.773 29.636-33.699 3.5084-4.1084 9.2325-10.617 12.695-14.541 3.4622-3.9238 6.6474-7.6168 7.1552-8.2631.83093-1.0617.83093-1.1079-.87708-5.4472-.96941-2.3543-2.3081-4.847-3.0006-5.4933l-1.2002-1.1541zm119.9.29645c-.33639-.004-.97735.39022-1.5832.9961-.64628.69244-1.9388 3.139-2.9082 5.4933l-1.708 4.2469 1.7542 2.1696c.96941 1.2002 2.8621 3.3237 4.2008 4.7547 1.2926 1.431 6.0011 6.7397 10.387 11.864 16.48 19.065 33.883 38.915 34.022 38.776.0462-.0923-1.7542-5.3087-4.0623-11.633-3.8776-10.525-6.0011-16.48-10.94-30.375l-1.7542-4.9855-13.387-10.479c-7.3398-5.7703-13.618-10.617-13.895-10.802-.0346-.0173-.0767-.0261-.12478-.0267zm-60.189 13.852c-.13343.0115-.25172.0346-.34405.0692-.3693.13849-4.9394 1.3387-10.063 2.6774-5.1702 1.2926-9.2325 2.4466-8.9555 2.5389.23081.0923 2.5389 11.079 5.1702 24.42l4.7086 24.235.83093 16.618c.50778 9.1402 1.2002 22.85 1.6157 30.467.3693 7.6168 1.5234 30.652 2.5389 51.24 1.0156 20.542 1.985 39.377 2.0773 41.777.96941 17.172 2.0773 41.638 2.0773 44.731 0 2.1696.18465 3.7392.46163 3.7392.27697 0 .46162-1.5695.46162-3.7392 0-3.0929.96941-24.42 2.0773-45.193.60011-11.448 3.4622-68.967 3.9238-78.476.27698-5.7241 1.1079-21.927 1.8465-36.007l1.3387-25.62 4.6162-23.543c2.5851-12.972 4.6624-23.866 4.6624-24.281 0-.55395-1.8927-1.2464-8.3554-2.9082-4.6162-1.2002-8.817-2.3543-9.371-2.5389-.38084-.17311-.91748-.24236-1.3178-.20773zm-43.552 6.6243c-.23081 0-.69244.18465-1.0156.3693-.55394.3693-17.357 101.6-17.08 102.9.13848.46162 36.791-91.078 37.207-92.833.0923-.50779-18.142-10.433-19.111-10.433zm87.293 0c-.23081 0-4.6162 2.2158-9.648 4.8471-5.0779 2.6774-9.2786 4.9394-9.4171 5.0317-.0923.13849 4.4316 11.818 10.063 25.989 5.6318 14.172 13.987 35.222 18.557 46.763 7.4322 18.742 9.5556 23.774 8.8632 20.958-.0923-.46162-3.9238-23.82-8.4939-51.84-5.2625-32.314-8.4939-51.148-8.8632-51.379-.32314-.18465-.78477-.3693-1.0617-.3693z" fill="#fff"></path>
</svg>
