<?xml version="1.0" standalone="no"?>
<!DOCTYPE svg PUBLIC "-//W3C//DTD SVG 20010904//EN"
 "http://www.w3.org/TR/2001/REC-SVG-20010904/DTD/svg10.dtd">
<svg version="1.0" xmlns="http://www.w3.org/2000/svg"
 width="698.000000pt" height="1018.000000pt" viewBox="0 0 698.000000 1018.000000"
 preserveAspectRatio="xMidYMid meet">
<metadata>
Created by potrace 1.11, written by Peter Selinger 2001-2013
</metadata>
<g transform="translate(0.000000,1018.000000) scale(0.100000,-0.100000)"
fill="#000000" stroke="none">
<path d="M3860 9619 c-15 -55 -9 -241 8 -261 15 -19 58 -12 67 10 19 49 17
237 -3 269 -4 6 -19 14 -34 18 -25 6 -28 4 -38 -36z"/>
<path d="M2896 9334 c-12 -48 84 -194 119 -181 20 8 20 59 -1 103 -15 32 -88
104 -105 104 -4 0 -10 -12 -13 -26z"/>
<path d="M3815 8688 c-144 -12 -308 -61 -362 -108 -23 -20 -69 -51 -102 -69
-79 -42 -133 -96 -208 -207 -68 -103 -106 -204 -124 -329 -15 -104 -4 -483 16
-559 23 -90 130 -289 177 -331 22 -21 92 -62 154 -91 72 -33 132 -70 162 -97
26 -24 76 -57 112 -74 121 -57 297 -195 350 -274 77 -112 82 -133 81 -324 -2
-238 -25 -340 -100 -443 -75 -103 -108 -208 -147 -462 -30 -205 -9 -331 70
-410 22 -23 49 -46 59 -52 16 -8 18 -7 12 11 -5 15 -2 21 9 21 20 0 20 11 1
36 -19 25 -19 54 0 54 18 0 20 21 3 39 -11 11 -10 13 5 8 24 -9 21 6 -9 55
-25 39 -25 41 -5 35 17 -4 21 -1 21 17 0 24 -15 77 -32 112 -17 36 0 79 56
140 169 190 242 302 263 408 20 98 27 402 14 542 -9 87 -19 135 -42 192 -55
138 -67 158 -126 223 -32 35 -61 68 -65 74 -38 54 -149 150 -207 179 -18 10
-83 51 -145 93 -227 153 -299 287 -347 648 -16 123 -17 147 -5 198 8 34 24 70
39 85 13 15 31 39 38 54 18 35 127 122 199 158 85 43 160 52 391 48 189 -3
208 -5 257 -27 109 -49 142 -123 142 -317 0 -75 -4 -125 -10 -129 -6 -4 -10
-14 -8 -24 3 -20 -37 -90 -54 -95 -59 -15 -203 -64 -248 -84 -38 -17 -66 -22
-92 -19 -20 3 -41 0 -47 -6 -13 -13 -88 19 -101 43 -5 9 -11 50 -14 90 l-5 74
47 47 c45 44 50 47 82 40 46 -10 100 -39 120 -63 26 -33 43 -1 43 80 0 66 -10
99 -40 134 -20 22 -144 34 -200 19 -49 -13 -138 -103 -172 -174 -43 -89 -51
-249 -18 -330 16 -36 151 -173 195 -196 88 -46 147 -62 232 -60 56 1 85 -2 88
-10 5 -16 33 -14 67 7 17 10 47 21 67 25 39 6 127 58 167 98 33 34 113 164
139 226 30 71 48 164 63 315 8 89 8 132 1 140 -6 7 -17 40 -26 73 -22 88 -81
232 -112 277 -15 21 -55 59 -88 83 -34 25 -79 58 -101 74 -83 61 -142 83 -231
87 -200 9 -255 9 -349 2z"/>
<path d="M2374 8496 c-10 -42 18 -89 75 -119 59 -33 81 -30 81 10 0 35 -3 38
-67 91 -59 48 -80 52 -89 18z"/>
<path d="M6033 6182 c-64 -61 -147 -175 -263 -366 -37 -62 -35 -26 5 71 l37
88 -38 33 c-21 18 -44 31 -50 30 -7 -2 -47 -34 -88 -72 -54 -49 -99 -103 -153
-185 -42 -64 -114 -173 -160 -242 -85 -130 -93 -147 -190 -444 l-37 -109 22
-61 21 -62 -79 -184 c-94 -217 -124 -278 -159 -324 -14 -18 -51 -68 -81 -110
-30 -42 -56 -72 -58 -66 -8 23 66 246 113 341 29 58 78 160 109 227 l56 122
-32 46 c-17 25 -39 45 -47 45 -9 0 -71 -21 -137 -48 -117 -45 -124 -49 -170
-107 -27 -33 -56 -68 -64 -79 -8 -10 -30 -34 -47 -55 -31 -34 -119 -162 -202
-293 -20 -32 -76 -111 -126 -177 -159 -212 -197 -268 -314 -463 l-64 -107
-289 -130 c-278 -126 -293 -132 -408 -150 -66 -11 -123 -22 -128 -25 -5 -3
-22 -24 -38 -48 -16 -24 -49 -70 -74 -103 -39 -51 -46 -68 -50 -119 l-5 -60
-65 -38 c-36 -20 -83 -55 -105 -77 l-40 -39 -75 13 c-101 18 -222 49 -353 92
-60 19 -114 32 -120 30 -7 -3 -38 -56 -69 -119 -102 -204 -228 -300 -432 -331
l-80 -12 -34 -80 c-107 -250 -207 -474 -225 -500 -11 -16 -59 -71 -106 -120
-113 -118 -234 -255 -230 -259 11 -8 316 -144 464 -206 338 -144 802 -348 890
-392 175 -88 283 -131 311 -124 25 7 26 8 9 26 -10 11 -16 20 -13 20 11 0 64
-26 128 -62 143 -81 360 -161 413 -152 33 5 100 22 127 32 8 3 18 5 22 4 22
-5 26 40 12 124 -11 68 -12 106 -5 164 6 41 15 112 20 157 14 111 58 240 138
403 62 127 71 141 159 226 91 90 94 94 147 220 31 71 65 162 77 201 19 63 25
73 45 73 25 0 41 -15 47 -45 4 -17 6 -16 13 8 6 22 3 33 -13 50 -34 38 -42 62
-32 96 8 30 8 31 -24 31 -20 0 -40 8 -51 20 -10 11 -27 20 -38 20 -19 0 -20 1
-2 20 10 11 36 25 57 31 24 6 38 15 35 22 -3 7 -8 19 -12 28 -4 12 15 26 87
61 54 26 145 84 218 140 69 52 206 141 305 198 99 56 207 120 240 140 109 67
158 87 300 121 l139 34 78 75 c77 73 79 77 107 170 20 66 93 223 243 520 229
454 280 565 339 730 176 494 211 573 386 868 27 44 32 132 9 155 -8 8 -34 17
-57 21 l-42 7 -139 -137 c-76 -76 -141 -135 -144 -131 -3 3 67 153 155 333 89
180 161 332 161 339 0 9 -93 56 -110 55 -3 -1 -37 -31 -77 -68z"/>
<path d="M3970 4106 c-103 -52 -379 -166 -552 -227 -44 -15 -56 -25 -199 -163
-103 -100 -112 -113 -169 -226 -35 -70 -55 -120 -48 -120 7 0 65 11 128 24
107 21 122 27 215 87 57 37 173 96 275 140 l175 76 74 109 c263 387 248 365
234 363 -5 0 -64 -29 -133 -63z"/>
</g>
</svg>
