<svg xmlns="http://www.w3.org/2000/svg" viewBox="0 0 512 512">
  <path d="M0 0h512v512H0z"/>
  <path d="m271.29 7.8982c-.65442-.00497-.851.47077-1.2649 2.1262-.82772 3.035-.49663 13.299.44146 14.402.82772 1.0484 3.2005.66218 3.6972-.55181 1.0484-2.7039.93808-13.078-.16555-14.844-.22072-.33109-1.0484-.77254-1.8762-.99327-.34489-.082772-.6139-.13795-.83204-.13968zm-53.74 16.418c-.22073 0-.55182.66218-.71736 1.4347-.66218 2.6487 4.6352 10.705 6.5666 9.9878 1.1036-.44145 1.1036-3.2557-.0552-5.6837-.82772-1.7658-4.856-5.7389-5.794-5.7389zm57.43 36.806c-2.7867-.0138-4.8422.08277-7.4357.27591-7.9461.66218-16.996 3.3661-19.976 5.9596-1.2692 1.1036-3.8075 2.8143-5.6285 3.8075-4.3593 2.3176-7.3391 5.2974-11.478 11.423-3.7523 5.6837-5.8492 11.257-6.8425 18.155-.82772 5.7389-.22072 26.653.8829 30.846 1.2692 4.9663 7.1736 15.947 9.7671 18.265 1.214 1.1588 5.0767 3.4212 8.4979 5.0215 3.9731 1.821 7.2839 3.8627 8.9394 5.3526 1.4347 1.3244 4.1938 3.1453 6.1803 4.0834 6.677 3.1453 16.389 10.76 19.314 15.12 4.249 6.1803 4.5249 7.3391 4.4697 17.879-.11036 13.133-1.3795 18.762-5.5181 24.445-4.1386 5.6837-5.9596 11.478-8.1117 25.494-1.6554 11.312-.49663 18.265 3.8627 22.624 1.214 1.2692 2.7039 2.5384 3.2557 2.8694.88291.44145.99327.38627.66218-.607-.27591-.82772-.11036-1.1588.49663-1.1588 1.1036 0 1.1036-.60699.0552-1.9865s-1.0484-2.9798 0-2.9798c.99326 0 1.1036-1.1588.16554-2.1521-.607-.607-.55181-.71736.27591-.44145 1.3244.49663 1.1588-.33109-.49664-3.035-1.3795-2.1521-1.3795-2.2624-.2759-1.9314.93808.22073 1.1588.0552 1.1588-.93808 0-1.3244-.82772-4.249-1.7658-6.1803-.93808-1.9865 0-4.3593 3.0902-7.7254 9.3257-10.484 13.354-16.665 14.513-22.514 1.1036-5.4078 1.4899-22.183.77254-29.908-.49663-4.8008-1.0484-7.4495-2.3176-10.595-3.035-7.615-3.6972-8.7187-6.9529-12.305-1.7658-1.9313-3.3661-3.7523-3.5868-4.0834-2.0969-2.9798-8.222-8.2772-11.423-9.8775-.99326-.55181-4.5801-2.8142-8.0013-5.1319-12.526-8.4428-16.499-15.837-19.148-35.758-.8829-6.7873-.93808-8.1117-.27591-10.926.44145-1.8762 1.3244-3.8627 2.1521-4.6904.71736-.82772 1.7106-2.1521 2.0969-2.9798.99327-1.9313 7.008-6.7321 10.981-8.7187 4.6904-2.3728 8.829-2.8694 21.576-2.6487 10.429.16554 11.478.27591 14.182 1.4899 6.0148 2.7039 7.8358 6.7873 7.8358 17.493 0 4.1386-.22072 6.8977-.55181 7.1184-.33109.22073-.55182.77254-.44145 1.3244.16554 1.1036-2.0417 4.9663-2.9798 5.2422-3.2557.82772-11.202 3.5316-13.685 4.6352-2.0969.93809-3.642 1.214-5.0767 1.0484-1.1036-.16554-2.2624 0-2.5935.33109-.71736.71736-4.856-1.0484-5.5733-2.3728-.2759-.49663-.60699-2.7591-.77254-4.9663l-.2759-4.0834 2.5935-2.5935c2.4832-2.428 2.7591-2.5935 4.5249-2.2072 2.5383.55181 5.5181 2.1521 6.6218 3.4764 1.4347 1.821 2.3728.0552 2.3728-4.4145 0-3.642-.55182-5.463-2.2073-7.3943-1.1036-1.214-7.9461-1.8762-11.036-1.0484-2.7039.71736-7.615 5.6837-9.4912 9.6016-2.3728 4.9112-2.8142 13.74-.99327 18.21.88291 1.9865 8.3324 9.5464 10.76 10.816 4.856 2.5384 8.1117 3.4212 12.802 3.3109 3.0902-.0552 4.6904.11036 4.856.55181.2759.8829 1.821.77254 3.6972-.38627.93809-.55181 2.5935-1.1588 3.6972-1.3795 2.1521-.33108 7.008-3.2005 9.2153-5.4078 1.821-1.8762 6.2355-9.0498 7.6702-12.471 1.6554-3.9179 2.6487-9.0498 3.4764-17.382.44146-4.9111.44146-7.2839.0552-7.7254-.33109-.38627-.93809-2.2073-1.4347-4.0282-1.214-4.856-4.4697-12.802-6.1803-15.285-.82772-1.1588-3.035-3.2557-4.856-4.5801-1.8762-1.3795-4.3593-3.2005-5.5733-4.0834-4.5801-3.3661-7.8358-4.5801-12.747-4.8008-5.5181-.24832-9.036-.37247-11.823-.38627zm-85.8 9.6404c-.59092-.0096-.93464.40955-1.1519 1.2304-.55182 2.3176.99326 4.9111 4.1386 6.5666 3.2557 1.821 4.4697 1.6554 4.4697-.55181 0-1.9313-.16554-2.0969-3.6972-5.0215-1.8313-1.4899-2.9995-2.2113-3.7592-2.2236zm205.01 125.17c-.16555.0552-2.0417 1.7106-4.249 3.7523-3.5316 3.3661-8.1117 9.6567-14.513 20.196-2.0417 3.4212-1.9314 1.4347.27591-3.9179l2.0417-4.856-2.0969-1.821c-1.1588-.99327-2.428-1.7106-2.7591-1.6554-.38627.11036-2.5935 1.8762-4.856 3.9731-2.9798 2.7039-5.463 5.6837-8.4428 10.209-2.3176 3.5316-6.2907 9.5464-8.829 13.354-4.6904 7.1736-5.1319 8.1117-10.484 24.501l-2.0417 6.0148 1.214 3.3661 1.1588 3.4212-4.3593 10.153c-5.187 11.974-6.8425 15.34-8.7738 17.879-.77254.99327-2.8142 3.7523-4.4697 6.07-1.6554 2.3176-3.0902 3.9731-3.2005 3.642-.44145-1.2692 3.642-13.575 6.2355-18.817 1.6003-3.2005 4.3042-8.829 6.0148-12.526l3.0902-6.7321-1.7658-2.5383c-.93809-1.3795-2.1521-2.4832-2.5935-2.4832-.49663 0-3.9179 1.1588-7.5598 2.6487-6.4562 2.4832-6.8425 2.7039-9.3808 5.9044-1.4899 1.821-3.0902 3.7523-3.5316 4.3593-.44145.55182-1.6554 1.8762-2.5935 3.035-1.7106 1.8762-6.5666 8.9394-11.147 16.168-1.1036 1.7658-4.1938 6.1251-6.9529 9.7671-8.7738 11.698-10.871 14.789-17.327 25.549l-3.5316 5.9044-15.947 7.1736c-15.34 6.9529-16.168 7.284-22.514 8.2772-3.642.607-6.7873 1.214-7.0632 1.3795-.27591.16554-1.214 1.3244-2.0969 2.6487-.8829 1.3244-2.7039 3.8627-4.0834 5.6837-2.1521 2.8142-2.5383 3.7523-2.7591 6.5666l-.2759 3.3109-3.5868 2.0969c-1.9865 1.1036-4.5801 3.035-5.794 4.249l-2.2073 2.1521-4.1386-.71736c-5.5733-.99326-12.25-2.7039-19.479-5.0767-3.3109-1.0484-6.2907-1.7658-6.6218-1.6554-.38627.16554-2.0969 3.0902-3.8075 6.5666-5.6285 11.257-12.581 16.554-23.838 18.265l-4.4145.66218-1.8762 4.4145c-5.9044 13.795-11.423 26.156-12.416 27.591-.607.88291-3.2557 3.9179-5.8492 6.6218-6.2355 6.5114-12.912 14.071-12.692 14.292.607.44145 17.437 7.9461 25.604 11.367 18.651 7.9461 44.256 19.203 49.111 21.631 9.6568 4.856 15.616 7.2288 17.161 6.8425 1.3795-.38627 1.4347-.44145.49663-1.4347-.55181-.607-.8829-1.1036-.71736-1.1036.607 0 3.5316 1.4347 7.0632 3.4212 7.8909 4.4697 19.865 8.8842 22.79 8.3876 1.821-.27591 5.5181-1.214 7.008-1.7658.44145-.16554.99327-.2759 1.214-.22072 1.214.2759 1.4347-2.2073.66218-6.8425-.607-3.7523-.66218-5.8492-.27591-9.0498.33109-2.2624.82772-6.1803 1.1036-8.6635.77254-6.1251 3.2005-13.244 7.615-22.238 3.4212-7.008 3.9179-7.7806 8.7738-12.471 5.0215-4.9663 5.187-5.187 8.1117-12.14 1.7106-3.9179 3.5868-8.9394 4.249-11.091 1.0484-3.4764 1.3795-4.0282 2.4832-4.0282 1.3795 0 2.2624.82772 2.5935 2.4832.22073.93808.33109.8829.71736-.44145.33109-1.214.16555-1.821-.71736-2.7591-1.8762-2.0969-2.3176-3.4212-1.7658-5.2974.44145-1.6554.44145-1.7106-1.3244-1.7106-1.1036 0-2.2072-.44145-2.8142-1.1036-.55181-.607-1.4899-1.1036-2.0969-1.1036-1.0484 0-1.1036-.0552-.11036-1.1036.55181-.60699 1.9865-1.3795 3.1453-1.7106 1.3244-.33109 2.0969-.82772 1.9314-1.214-.16555-.38627-.44146-1.0484-.66218-1.5451-.22073-.66218.82772-1.4347 4.8008-3.3661 2.9798-1.4347 8.0013-4.6352 12.03-7.7254 3.8075-2.8694 11.367-7.7806 16.83-10.926 5.463-3.0902 11.423-6.6218 13.244-7.7254 6.0148-3.6972 8.7187-4.8008 16.554-6.677l7.6702-1.8762 4.3042-4.1386c4.249-4.0282 4.3593-4.249 5.9044-9.3808 1.1036-3.642 5.1319-12.305 13.409-28.694 12.637-25.052 15.451-31.178 18.706-40.282 9.7119-27.26 11.643-31.619 21.3-47.897 1.4899-2.428 1.7658-7.2839.49663-8.5531-.44145-.44145-1.8762-.93808-3.1453-1.1588l-2.3176-.38627-7.6702 7.5599c-4.1938 4.1938-7.7806 7.4495-7.9461 7.2288-.16555-.16554 3.6972-8.4428 8.5531-18.375 4.9112-9.9326 8.8842-18.32 8.8842-18.706 0-.49664-5.1319-3.0902-6.07-3.035zm-110.49 114.79c-.0682.002-.16555.0328-.26211.0466-.27591 0-3.5316 1.6003-7.3391 3.4764-5.6837 2.8694-20.914 9.1601-30.46 12.526-2.428.82772-3.0902 1.3795-10.981 8.9946-5.6837 5.5181-6.1803 6.2355-9.3256 12.471-1.9314 3.8627-3.035 6.6218-2.6487 6.6218.38627 0 3.5868-.607 7.0632-1.3244 5.9044-1.1588 6.7321-1.4899 11.864-4.8008 3.1453-2.0417 9.5464-5.2974 15.175-7.7254l9.6567-4.1938 4.0834-6.0148c12.699-18.686 13.652-20.092 13.175-20.077z" fill="#fff"></path>
</svg>
