<?xml version="1.0" encoding="UTF-8" standalone="no"?>
<svg
   xmlns:dc="http://purl.org/dc/elements/1.1/"
   xmlns:cc="http://creativecommons.org/ns#"
   xmlns:rdf="http://www.w3.org/1999/02/22-rdf-syntax-ns#"
   xmlns:svg="http://www.w3.org/2000/svg"
   xmlns="http://www.w3.org/2000/svg"
   xmlns:sodipodi="http://sodipodi.sourceforge.net/DTD/sodipodi-0.dtd"
   xmlns:inkscape="http://www.inkscape.org/namespaces/inkscape"
   viewBox="0 0 512 512"
   id="svg3021"
   version="1.1"
   inkscape:version="0.48.5 r10040"
   width="100%"
   height="100%"
   sodipodi:docname="crossed-swords.svg">
  <metadata
     id="metadata3055">
    <rdf:RDF>
      <cc:Work
         rdf:about="">
        <dc:format>image/svg+xml</dc:format>
        <dc:type
           rdf:resource="http://purl.org/dc/dcmitype/StillImage" />
        <dc:title></dc:title>
      </cc:Work>
    </rdf:RDF>
  </metadata>
  <defs
     id="defs3053" />
  <sodipodi:namedview
     pagecolor="#ffffff"
     bordercolor="#666666"
     borderopacity="1"
     objecttolerance="10"
     gridtolerance="10"
     guidetolerance="10"
     inkscape:pageopacity="0"
     inkscape:pageshadow="2"
     inkscape:window-width="1096"
     inkscape:window-height="792"
     id="namedview3051"
     showgrid="false"
     inkscape:zoom="0.4609375"
     inkscape:cx="256"
     inkscape:cy="256"
     inkscape:window-x="0"
     inkscape:window-y="0"
     inkscape:window-maximized="0"
     inkscape:current-layer="svg3021" />
  <path
     d="m0,0h512v512h-512z"
     id="path3023" />
  <g
     id="g3027"
     transform="matrix(17.348422,17.348422,17.348422,-17.348422,-16815.681,673.79376)">
    <path
       style="fill:#ffffff;fill-rule:evenodd"
       inkscape:connector-curvature="0"
       id="path3029"
       d="m 477.8817,498.1319 c 0,6.8988 0.0652,13.1242 1.9305,19.6863 1.9437,-6.3312 1.7374,-12.7162 1.7374,-19.518" />
    <path
       style="fill:#ffffff;fill-rule:evenodd;stroke:#000000;stroke-width:0.76169997"
       inkscape:connector-curvature="0"
       id="path3031"
       d="m 479.7188,510.0878 -10e-6,-12.6103" />
    <path
       style="fill:#ffffff"
       inkscape:connector-curvature="0"
       id="path3033"
       d="m 474.9984,497.5732 h 9.4408 v 1.6439 c -3.1061,-0.8312 -6.3458,-1.0083 -9.4408,0 v -1.6439 z" />
    <path
       style="fill:#ffffff"
       inkscape:connector-curvature="0"
       id="path3035"
       d="m 478.91,491.5236 h 1.6175 c -0.4295,2.0932 -0.478,4.1865 0,6.2797 H 478.91 c 0.5704,-2.0932 0.4481,-4.1865 0,-6.2797 z" />
  </g>
  <g
     transform="matrix(18.68858,0,0,18.68858,-4647.0968,-7880.9508)"
     id="g3085">
    <path
       style="fill:#ffffff"
       inkscape:connector-curvature="0"
       d="m 266.9048,444.9211 3.64,3.6399 2e-5,-4.7276 4.7275,-10e-6 -3.6399,-3.6399 h -4.7276 l -3e-5,4.7276 z"
       id="path3087" />
    <path
       style="fill:#ffffff;stroke:#000000"
       inkscape:connector-curvature="0"
       d="m 275.2262,447.251 -1.2808,1.2467 -21.6844,-21.6842 1.2502,-1.2502 21.715,21.6877 z"
       id="path3089" />
    <path
       style="fill:#ffffff;stroke:#000000"
       inkscape:connector-curvature="0"
       d="m 252.3373,430.4766 c -1.238,-2.6246 -2.3217,-5.2492 -2.8906,-7.8739 2.6246,0.6708 5.2492,1.6691 7.8739,2.8906 -2.3306,1.1631 -3.9169,2.5003 -4.9832,4.9832 z"
       id="path3091" />
  </g>
</svg>
